<svg width="31" height="36" viewBox="0 0 31 36" fill="none" xmlns="http://www.w3.org/2000/svg">
<path d="M16.9309 4.58955C17.0668 4.58231 17.1602 4.58213 17.2898 4.62602C17.5567 5.04887 17.4034 6.18971 17.4069 6.70804L15.6066 6.72416C15.5489 6.72251 15.4273 6.72187 15.3737 6.70822C15.229 6.67129 15.207 6.57747 15.1494 6.45762C15.1588 6.34996 15.1796 6.25953 15.221 6.15929C15.5374 5.39 16.1803 4.89192 16.9309 4.58955Z" fill="black"/>
<path d="M18.4283 4.55469C18.9499 4.56202 19.4139 4.7373 19.8202 5.06853C20.3855 5.52931 20.5441 6.0185 20.603 6.70863C19.8782 6.74326 19.1509 6.71193 18.4258 6.69443L18.4283 4.55469Z" fill="black"/>
<path d="M18.468 7.67969L20.607 7.71047C20.6186 8.39116 20.6551 9.08129 20.6008 9.76033C19.8889 9.82035 19.1533 9.79515 18.4411 9.75584C18.433 9.06452 18.4564 8.3711 18.468 7.67969Z" fill="black"/>
<path d="M15.1963 7.67969L17.373 7.68702L17.3615 9.74164C16.6397 9.79286 15.9064 9.77444 15.1846 9.7355L15.1963 7.67969Z" fill="black"/>
<path d="M10.2797 30.8907C10.8561 30.8881 11.4505 31.041 11.9263 31.3718C12.4919 31.7651 12.8782 32.3768 12.9968 33.0549C13.1189 33.7527 12.9329 34.4729 12.5031 35.0345C12.0098 35.6792 11.4283 35.8817 10.6618 35.9934C10.0008 36.0132 9.40213 35.9438 8.84377 35.5533C8.32617 35.1914 7.99042 34.6196 7.88213 34.0015C7.75525 33.2771 7.93032 32.5254 8.37051 31.9356C8.85632 31.2844 9.50162 31.0067 10.2797 30.8907Z" fill="black"/>
<path d="M24.9638 30.8967C25.5717 30.8566 26.2245 31.0153 26.7231 31.3691C27.2921 31.7731 27.6612 32.4072 27.7696 33.0933C27.8774 33.7758 27.7142 34.4842 27.2971 35.0381C26.8134 35.6806 26.2218 35.8845 25.4633 35.9993C24.8328 36.0208 24.2384 35.9689 23.6963 35.6129C23.1303 35.2411 22.7623 34.6209 22.6496 33.9589C22.5317 33.2661 22.6795 32.5408 23.092 31.9678C23.5543 31.3256 24.2023 31.0135 24.9638 30.8967Z" fill="black"/>
<path d="M17.8892 0C17.9176 0.00119114 17.9462 0.00054989 17.9744 0.00357355C18.2638 0.0350929 18.5508 0.22412 18.7993 0.368064C20.0524 1.09392 30.6257 7.81249 30.8592 8.1614C30.9152 8.24515 30.8772 8.27969 30.8519 8.36765C30.7845 8.41126 30.7859 8.41484 30.6966 8.44626C30.4017 8.55044 29.7729 8.5126 29.479 8.40723C28.3788 8.01287 27.2861 7.15159 26.2984 6.52707L21.2047 3.28983C20.1534 2.60832 19.123 1.87137 18.0372 1.24703C16.5653 1.96061 15.1579 3.01706 13.781 3.90931L6.87593 8.30333L7.49055 10.4781C9.4784 10.5299 11.4735 10.4956 13.4621 10.4964L22.9524 10.4997L27.0969 10.4829C27.8845 10.4801 28.6989 10.4391 29.4839 10.5025C29.8739 10.534 30.3598 10.6368 30.6716 10.8883C30.8656 11.045 30.9206 11.1645 30.9457 11.4108C30.9812 11.759 30.9598 12.1231 30.9142 12.4693C30.7507 13.7114 28.9372 23.5112 28.5706 23.9518C28.3547 24.2113 28.0858 24.304 27.7684 24.3868C26.9204 24.6083 25.9542 24.6387 25.0815 24.7456L19.2519 25.4392L13.1216 26.1854C12.4028 26.2705 11.2402 26.2453 10.6186 26.5039C10.5307 26.6262 10.5047 26.7596 10.4834 26.9065C10.4507 27.1317 10.4872 27.3596 10.6464 27.532C10.8673 27.7712 11.2517 27.8259 11.5581 27.8445C12.6806 27.9127 13.8995 27.695 15.0212 27.6023C17.8454 27.3689 20.6759 27.1829 23.5074 27.0661C24.665 27.0184 25.9106 26.8668 27.0583 27.0384C27.4567 27.0979 28.0552 27.2429 28.2821 27.6156C28.4064 27.8198 28.4196 28.0583 28.3713 28.29C28.2913 28.6743 27.9896 28.8438 27.6887 29.0473C24.5585 29.1039 21.4543 29.1878 18.3292 29.4084C16.1904 29.5594 13.8489 29.9369 11.7214 29.8551C10.9641 29.826 10.1561 29.704 9.49691 29.3062C8.96465 28.985 8.59591 28.4961 8.4607 27.8865C8.22169 26.8081 8.58996 25.7976 9.14466 24.889C8.76613 23.8632 8.47929 22.797 8.16589 21.7495L6.67915 16.7942C5.89945 14.1896 4.89385 11.2859 4.31221 8.66122C3.43981 8.62897 2.5641 8.6931 1.69371 8.65242C1.1905 8.62887 0.571666 8.54036 0.228952 8.12869C-0.0205035 7.82889 -0.024625 7.43811 0.0249363 7.06858C0.0883307 6.59588 0.426834 6.35518 0.772022 6.07737C2.17897 5.99078 3.71006 5.98153 5.11738 6.07059C6.31298 6.14636 5.96935 6.4151 6.6087 7.14206C7.67972 6.67459 8.96776 5.68218 9.98336 5.02403C12.5931 3.33253 15.201 1.56057 17.8892 0Z" fill="black"/>
<path d="M22.647 18.5418C24.134 18.5139 25.6466 18.4809 27.1314 18.5681C26.8433 19.697 26.6568 20.8522 26.4588 21.9994C25.1465 22.1238 23.84 22.3013 22.5254 22.4031C22.5787 21.5773 22.4426 19.1053 22.647 18.5418Z" fill="#FEFEFE"/>
<path d="M10.2417 18.5374C11.7355 18.5007 13.2367 18.5083 14.7307 18.5293C14.7991 20.0807 14.7953 21.6974 14.7396 23.2499C14.6109 23.3926 14.5516 23.3744 14.3664 23.4037L11.4475 23.7658C11.2461 22.8904 9.96069 19.0721 10.0091 18.5981L10.2417 18.5374Z" fill="#FEFEFE"/>
<path d="M22.582 13.181C24.4395 13.1593 26.2982 13.171 28.156 13.172C27.8501 14.3612 27.6628 15.6013 27.4349 16.8088L27.3663 17.1437C27.3291 17.1787 27.3013 17.2276 27.2547 17.2486C26.9716 17.3759 23.181 17.2931 22.5469 17.2946C22.5818 15.9243 22.5747 14.5517 22.582 13.181Z" fill="#FEFEFE"/>
<path d="M15.9502 13.202C17.7392 13.1403 19.5415 13.1815 21.332 13.1807C21.3694 14.5499 21.3346 15.9332 21.3201 17.3033L15.9718 17.3289L15.9502 13.202Z" fill="#FEFEFE"/>
<path d="M16.2183 18.5489C17.9243 18.4966 19.6469 18.5043 21.3534 18.5419C21.4257 19.8725 21.3422 21.239 21.3641 22.5747C21.0696 22.6251 20.7696 22.6525 20.4729 22.6876C18.973 22.864 17.4667 23.0184 15.9735 23.2452C15.9799 22.4381 15.8415 19.134 16.0261 18.6224L16.2183 18.5489Z" fill="#FEFEFE"/>
<path d="M8.35547 13.1886C10.4737 13.1464 12.6011 13.1825 14.7203 13.1791C14.7776 14.5401 14.7739 15.9465 14.7205 17.308C13.0046 17.2849 11.2869 17.3021 9.57077 17.3053C9.09174 15.9998 8.67436 14.543 8.35547 13.1886Z" fill="#FEFEFE"/>
</svg>
