<svg width="117" height="18" viewBox="0 0 117 18" fill="none" xmlns="http://www.w3.org/2000/svg">
<path d="M103.896 0.277344L116.042 0.293619C116.024 1.44758 116.038 2.60377 116.038 3.75796C114.687 3.8345 113.322 3.80947 111.968 3.82261L111.94 13.9075L111.967 17.6699C110.621 17.7507 109.27 17.7271 107.922 17.7226L107.933 3.77603C106.58 3.80981 105.228 3.84314 103.873 3.82496C103.773 2.64553 103.824 1.457 103.896 0.277344Z" fill="#034BA7"/>
<path d="M50.4089 0.274408C52.9655 0.421318 56.2291 -0.0937085 58.6476 0.619854C59.8975 0.988645 60.9757 1.79783 61.5922 2.95684C62.2702 4.23133 62.2992 5.88449 61.8777 7.2445C61.3488 8.95131 60.1491 9.76969 58.6434 10.5741C59.3216 11.4876 60.1054 12.3574 60.8345 13.2325C62.0742 14.7202 63.3079 16.2143 64.6079 17.6498C63.4443 17.634 62.2772 17.661 61.1134 17.67C60.5715 17.6812 60.0268 17.6643 59.4848 17.6587C57.8015 15.3901 56.0959 13.0105 54.2456 10.8801C54.2278 13.1398 54.1358 15.4308 54.2446 17.6868L50.4009 17.68C50.152 11.881 50.2798 6.07371 50.4089 0.274408Z" fill="#F47123"/>
<path d="M54.2588 3.5275C55.1598 3.49496 56.4206 3.43615 57.1848 3.98193C57.5768 4.26183 57.7927 4.68147 57.8711 5.15059C58.0093 5.97751 57.8662 6.7685 57.367 7.44683C56.4446 7.96836 55.3037 8.0008 54.2704 8.00574C54.1918 6.51801 54.2405 5.01669 54.2588 3.5275Z" fill="#FEFEFE"/>
<path d="M71.4503 0.0307795C71.8139 -0.00760344 72.1741 -0.005918 72.5385 0.0131612C73.8162 0.0802752 76.7032 0.490367 77.5918 1.47946C77.7427 2.09033 76.4317 4.29634 76.0967 4.94166C75.4426 4.53146 74.7955 4.25795 74.0375 4.09881C72.3902 3.75303 70.5047 3.95875 69.0894 4.91787C68.0193 5.64299 67.2915 6.8103 67.0561 8.0766C66.81 9.40025 67.0872 10.7596 67.8671 11.86C69.1324 13.6456 71.7097 14.4992 73.8258 13.9825C74.343 13.8563 75.7359 13.1715 76.1334 13.242C76.4173 13.6406 76.5307 14.1304 76.677 14.5928C77.419 13.2093 77.9462 11.5989 78.5376 10.1361C79.862 6.86013 81.1278 3.55965 82.4876 0.298115C83.7129 0.306196 84.9372 0.28162 86.1614 0.259735C86.6955 1.90818 87.463 3.55763 88.1049 5.1723L91.726 14.2698C91.8831 12.5734 91.7989 10.8268 91.7966 9.12361L91.809 0.261975C94.0532 0.300694 97.7708 0.0412175 99.7816 0.494293C101.211 0.816395 102.33 1.69404 103.101 2.92207C103.155 3.03789 103.207 3.15192 103.253 3.27122C103.807 4.70026 103.809 6.41222 103.182 7.82116C102.558 9.22439 101.479 9.97735 100.079 10.5086C102.002 12.8852 104.05 15.4428 106.145 17.6517C104.437 17.6921 102.731 17.728 101.022 17.7179C100.16 16.4272 99.1622 15.2026 98.2129 13.9741C97.4319 12.9634 96.6678 11.865 95.7712 10.9559L95.7891 17.6393C93.4866 17.7359 91.1716 17.7078 88.8668 17.7134C88.584 16.5406 88.0667 15.3649 87.6762 14.2163C85.4589 14.2729 83.2508 14.2717 81.0345 14.2035C80.5494 15.3085 80.1448 16.4923 79.7815 17.6438C78.2817 17.8122 76.7875 17.6517 75.2873 17.7022C74.6682 17.7224 74.0486 17.8335 73.4346 17.9132C70.8125 18.251 68.2031 17.6034 66.107 15.9634C64.2103 14.479 62.993 12.3487 62.7063 9.9613C62.4296 7.65641 63.191 5.36477 64.6385 3.56673C66.3526 1.43737 68.7731 0.31304 71.4503 0.0307795Z" fill="#034BA7"/>
<path d="M84.2946 5.73828C84.6918 6.12088 85.925 9.83358 86.2628 10.7143L84.3687 10.7081C83.6781 10.6982 82.9836 10.7311 82.293 10.7476C83.0548 9.13427 83.655 7.40614 84.2946 5.73828Z" fill="#FEFEFE"/>
<path d="M95.7916 3.5252C96.7443 3.5041 98.0033 3.43565 98.8012 4.03799C99.222 4.35639 99.4262 4.82483 99.4834 5.33997C99.581 6.2239 99.3936 6.77496 98.8281 7.44554C97.9831 8.07785 96.787 7.99535 95.7771 8.0224C95.7501 6.52502 95.7827 5.02303 95.7916 3.5252Z" fill="#FEFEFE"/>
<path d="M23.5347 0.0298816C25.369 -0.00872575 26.1889 0.397437 27.8326 0.955785C28.0304 1.02301 28.1614 1.07699 28.355 0.981822C28.3903 0.742771 28.4078 0.589688 28.5712 0.397885C28.7017 0.338852 28.8107 0.295646 28.9555 0.287004C29.7297 0.24054 30.5351 0.306531 31.3127 0.315397L35.6298 0.325159C40.4427 0.320782 45.2541 0.27769 50.0668 0.331673C50.0965 1.47497 50.0502 2.62735 50.0324 3.77121C48.0484 3.77693 46.0473 3.73507 44.0661 3.82878C44.0186 4.96366 44.0238 6.09696 44.0447 7.23229L49.7774 7.2287L49.7612 10.7493L44.0402 10.7467C44.0253 11.8984 44.0007 13.0494 44.053 14.2005L50.0367 14.1857L50.0784 17.6713L40.0297 17.668C40.0447 13.0458 40.1292 8.40701 40.0227 3.78636C38.8531 3.76099 37.6788 3.78703 36.5088 3.79186C36.523 8.41026 36.4389 13.0336 36.5144 17.6511C35.1929 17.696 33.8669 17.7488 32.5464 17.6601L32.552 9.07321C32.5506 7.31927 32.6018 5.54434 32.4838 3.79388C31.1995 3.74113 29.8551 3.9033 28.5835 3.74561C28.3256 3.57042 28.3675 3.25057 28.2312 2.9646C27.9438 3.30545 28.0545 4.01632 27.767 4.41743C27.3905 4.94289 24.5266 3.20826 23.0749 3.69691C22.4691 3.90083 22.173 4.29813 21.9125 4.85569C21.8829 6.53624 25.3323 7.49929 26.5622 8.20196C27.5491 8.76581 28.5396 9.56646 29.1062 10.5691C29.7202 11.656 29.6969 12.9189 29.363 14.0878C28.9759 15.4435 28.1998 16.4166 26.966 17.0933C25.0161 18.1618 22.4349 18.173 20.3212 17.6545C19.822 17.5322 19.3713 17.2819 18.8795 17.1528C18.7006 17.1057 18.6378 17.0675 18.4759 17.1584C18.5041 17.3066 18.5017 17.4098 18.4791 17.558C17.9076 17.8453 15.1196 17.7229 14.3491 17.6724C13.9714 16.5052 13.5299 15.3582 13.1027 14.2087C10.935 14.242 8.76557 14.2213 6.59798 14.1938C6.10313 15.316 5.57943 16.4458 5.29452 17.6433C3.85653 17.6736 2.39969 17.7521 0.963379 17.6747C2.76022 13.4142 4.46483 9.10867 6.18571 4.81731C6.78571 3.32082 7.43777 1.84589 8.02778 0.345811L11.7403 0.319213C11.9975 1.41357 12.4877 2.45642 12.8974 3.50095L15.3847 9.67196C15.9661 11.0945 16.5618 13.0251 17.3504 14.3043C17.735 13.6801 18.0709 13.0249 18.4177 12.379C19.8561 13.407 21.2685 14.2905 23.0898 14.3135C23.8392 14.323 24.4748 14.053 24.9907 13.5088C25.1939 13.2943 25.3639 13.0047 25.3267 12.697C25.1586 11.309 22.3264 10.282 21.2323 9.68127C20.6606 9.36736 20.1065 8.99824 19.6127 8.57109C18.7259 7.80399 18.1361 6.78887 18.0633 5.59989C17.9784 4.21452 18.4126 2.92263 19.3446 1.89157C20.4427 0.676669 21.9329 0.121686 23.5347 0.0298816Z" fill="#F47123"/>
<path d="M9.77584 5.74219C10.1991 6.15273 11.4893 9.9248 11.7121 10.7528L9.84598 10.7581L7.77051 10.7535L9.77584 5.74219Z" fill="#FEFEFE"/>
</svg>
