<svg width="301" height="300" viewBox="0 0 301 300" fill="none" xmlns="http://www.w3.org/2000/svg">
<path d="M79.6176 108.171C95.193 106.275 106.283 92.1118 104.387 76.5364C102.491 60.9609 88.3275 49.8714 72.752 51.7673C57.1766 53.6632 46.0871 67.8265 47.9829 83.4019C49.8788 98.9774 64.0421 110.067 79.6176 108.171Z" fill="#EBEBEB"/>
<path d="M91.524 95.3086C99.9945 86.8381 99.9945 73.1048 91.524 64.6343C83.0535 56.1638 69.3202 56.1638 60.8497 64.6343C52.3792 73.1048 52.3792 86.8381 60.8497 95.3086C69.3202 103.779 83.0535 103.779 91.524 95.3086Z" fill="white"/>
<path d="M76.184 95.472C84.7433 95.472 91.682 88.5333 91.682 79.9739C91.682 71.4146 84.7433 64.476 76.184 64.476C67.6247 64.476 60.686 71.4146 60.686 79.9739C60.686 88.5333 67.6247 95.472 76.184 95.472Z" fill="#EBEBEB"/>
<path d="M78.1732 88.3032C82.7769 87.209 85.6219 82.5899 84.5277 77.9861C83.4335 73.3824 78.8144 70.5374 74.2107 71.6316C69.6069 72.7258 66.7619 77.3449 67.8561 81.9486C68.9503 86.5524 73.5694 89.3974 78.1732 88.3032Z" fill="white"/>
<path d="M72.3141 79.974C72.3153 80.7391 72.5433 81.4868 72.9692 82.1224C73.3952 82.758 74 83.2531 74.7073 83.5451C75.4145 83.8371 76.1924 83.9129 76.9428 83.7629C77.6931 83.6129 78.3821 83.2438 78.9227 82.7023C79.4633 82.1609 79.8313 81.4713 79.9802 80.7208C80.129 79.9702 80.052 79.1924 79.7589 78.4856C79.4658 77.7788 78.9698 77.1747 78.3335 76.7498C77.6972 76.3248 76.9492 76.098 76.1841 76.098C75.6754 76.098 75.1716 76.1983 74.7017 76.3931C74.2318 76.588 73.8049 76.8736 73.4455 77.2336C73.086 77.5936 72.8011 78.0209 72.607 78.4911C72.4128 78.9614 72.3133 79.4652 72.3141 79.974Z" fill="#EBEBEB"/>
<path d="M37.3849 40.2863L36.5024 41.1688L73.2183 77.8846L74.1007 77.0021L37.3849 40.2863Z" fill="#A6A6A6"/>
<path d="M71.384 78.6839L76.184 79.9739L74.9 75.174L71.384 78.6839Z" fill="#A6A6A6"/>
<path d="M30.8 38.34L37.682 45.222L43.082 46.872L41.432 41.472L34.55 34.584L36.2 39.984L30.8 38.34Z" fill="#A6A6A6"/>
<path d="M203.342 33.2339L205.334 36.2039L208.778 37.1819L206.57 39.9899L206.702 43.5659L203.342 42.3359L199.988 43.5659L200.12 39.9899L197.912 37.1819L201.35 36.2039L203.342 33.2339Z" fill="#EBEBEB"/>
<path d="M218.702 33.2339L220.694 36.2039L224.132 37.1819L221.924 39.9899L222.056 43.5659L218.702 42.3359L215.348 43.5659L215.48 39.9899L213.272 37.1819L216.71 36.2039L218.702 33.2339Z" fill="#EBEBEB"/>
<path d="M234.056 33.2339L236.048 36.2039L239.486 37.1819L237.278 39.9899L237.416 43.5659L234.056 42.3359L230.702 43.5659L230.834 39.9899L228.626 37.1819L232.064 36.2039L234.056 33.2339Z" fill="#EBEBEB"/>
<path d="M249.416 33.2339L251.408 36.2039L254.846 37.1819L252.638 39.9899L252.77 43.5659L249.416 42.3359L246.056 43.5659L246.194 39.9899L243.986 37.1819L247.424 36.2039L249.416 33.2339Z" fill="#EBEBEB"/>
<path d="M261.098 43.998L261.248 40.092L258.848 37.014L262.61 35.946L264.788 32.694L266.972 35.946L270.734 37.014L268.334 40.092L268.478 43.998L264.806 42.654L261.098 43.998ZM264.77 42L267.812 43.116L267.692 39.882L269.69 37.332L266.576 36.45L264.776 33.762L262.976 36.45L259.862 37.332L261.86 39.882L261.74 43.116L264.77 42Z" fill="#EBEBEB"/>
<path d="M264.77 42.3359V33.2339L262.778 36.2039L259.34 37.1819L261.548 39.9899L261.416 43.5659L264.77 42.3359Z" fill="#EBEBEB"/>
<path fill-rule="evenodd" clip-rule="evenodd" d="M245.594 158.634C244.832 158.16 244.166 157.47 243.152 157.572C242.762 157.614 242.846 157.29 242.846 157.074C242.846 153.25 242.83 149.43 242.798 145.614C242.798 145.338 242.798 145.104 243.116 144.954C246.032 143.472 247.286 140.574 249.068 138.09C249.979 136.857 250.634 135.454 250.992 133.964C251.351 132.473 251.407 130.926 251.156 129.414C251.03 128.556 251.426 128.166 252.2 127.992C253.136 127.776 254.066 128.028 254.384 128.67C255.23 130.226 255.801 131.917 256.07 133.668C256.244 135.12 255.728 136.53 255.554 137.964C255.422 139.014 255.182 140.052 254.984 141.114C255.242 141.3 255.536 141.204 255.812 141.21H265.496C266.858 141.21 267.524 141.594 267.716 142.494C267.822 143.049 267.743 143.623 267.492 144.129C267.241 144.635 266.83 145.045 266.324 145.296C266.078 145.422 265.646 145.296 265.616 145.692C265.586 146.088 266.036 146.034 266.258 146.19C267.458 146.988 267.218 148.638 265.874 149.604C265.544 149.832 264.914 149.724 264.902 150.204C264.902 150.582 265.502 150.576 265.754 150.846C266.702 151.776 266.24 153.516 264.83 154.224C264.637 154.284 264.449 154.359 264.266 154.446C264.104 154.554 263.948 154.674 264.266 154.896C265.664 155.886 265.64 157.296 264.236 158.298L263.816 158.598C263.307 158.908 262.71 159.041 262.118 158.976C257.054 159.004 251.992 159.022 246.932 159.03C246.694 159.056 246.453 159.035 246.223 158.967C245.993 158.899 245.78 158.786 245.594 158.634Z" fill="#EBEBEB"/>
<path fill-rule="evenodd" clip-rule="evenodd" d="M231.176 151.944C231.176 149.544 231.176 147.09 231.14 144.66C231.14 144.168 231.188 143.922 231.794 143.928C234.758 143.96 237.718 143.96 240.674 143.928C241.274 143.928 241.346 144.12 241.346 144.636C241.346 149.52 241.362 154.404 241.394 159.288C241.394 159.888 241.232 160.086 240.608 160.08C237.74 160.08 234.866 160.08 231.992 160.116C231.278 160.116 231.182 159.876 231.188 159.252C231.212 156.798 231.182 154.374 231.176 151.944Z" fill="#EBEBEB"/>
<path d="M119.126 268.164H40.526C40.109 268.164 39.7092 267.998 39.4144 267.704C39.1196 267.409 38.954 267.009 38.954 266.592V257.226C38.954 257.196 38.954 257.166 38.954 257.136C38.954 257.106 38.954 257.028 38.954 256.968L48.5 222.078L36.194 145.8L32.084 144.372C31.7245 144.224 31.4326 143.949 31.2645 143.598C31.0963 143.248 31.064 142.848 31.1736 142.475C31.2832 142.102 31.527 141.783 31.858 141.579C32.189 141.376 32.5837 141.302 32.966 141.372L38.036 143.082C38.3232 143.166 38.5803 143.33 38.7771 143.556C38.9738 143.781 39.1018 144.058 39.146 144.354L51.65 221.874C51.6831 222.048 51.6831 222.228 51.65 222.402L42.422 255.834L115.622 261.036C116.028 261.064 116.408 261.247 116.684 261.546L120.284 265.542C120.486 265.768 120.619 266.047 120.667 266.347C120.714 266.646 120.674 266.953 120.551 267.23C120.428 267.507 120.227 267.743 119.973 267.908C119.72 268.074 119.423 268.163 119.12 268.164H119.126ZM42.116 265.026H115.586L114.776 264.126L42.116 258.96V265.026Z" fill="#C7C7C7"/>
<path d="M147.896 170.586H41.9719C41.7577 170.599 41.5431 170.569 41.3412 170.496C41.1393 170.423 40.9545 170.309 40.7982 170.162C40.6418 170.015 40.5172 169.838 40.432 169.641C40.3468 169.444 40.3029 169.232 40.3029 169.017C40.3029 168.802 40.3468 168.59 40.432 168.393C40.5172 168.196 40.6418 168.019 40.7982 167.872C40.9545 167.725 41.1393 167.611 41.3412 167.538C41.5431 167.466 41.7577 167.435 41.9719 167.448H147.896C148.11 167.435 148.325 167.466 148.527 167.538C148.729 167.611 148.913 167.725 149.07 167.872C149.226 168.019 149.351 168.196 149.436 168.393C149.521 168.59 149.565 168.802 149.565 169.017C149.565 169.232 149.521 169.444 149.436 169.641C149.351 169.838 149.226 170.015 149.07 170.162C148.913 170.309 148.729 170.423 148.527 170.496C148.325 170.569 148.11 170.599 147.896 170.586Z" fill="#C7C7C7"/>
<path d="M50.0959 222.636C49.9664 222.622 49.8465 222.561 49.7594 222.464C49.6723 222.367 49.6241 222.241 49.6241 222.111C49.6241 221.981 49.6723 221.855 49.7594 221.758C49.8465 221.661 49.9664 221.6 50.0959 221.586L129.668 217.332L145.334 168.858C145.355 168.793 145.389 168.732 145.433 168.679C145.478 168.627 145.533 168.584 145.594 168.553C145.655 168.521 145.722 168.503 145.791 168.497C145.86 168.492 145.929 168.501 145.994 168.522C146.059 168.545 146.119 168.582 146.171 168.629C146.222 168.676 146.263 168.733 146.291 168.796C146.32 168.859 146.335 168.928 146.337 168.997C146.338 169.067 146.326 169.136 146.3 169.2L130.52 218.016C130.488 218.117 130.427 218.207 130.343 218.272C130.259 218.338 130.158 218.376 130.052 218.382L50.1259 222.63L50.0959 222.636Z" fill="#C7C7C7"/>
<path d="M131.396 213.984H48.6439C48.5055 213.984 48.3727 213.929 48.2748 213.831C48.1769 213.733 48.1219 213.6 48.1219 213.462C48.1219 213.324 48.1769 213.191 48.2748 213.093C48.3727 212.995 48.5055 212.94 48.6439 212.94H131.396C131.534 212.94 131.667 212.995 131.765 213.093C131.863 213.191 131.918 213.324 131.918 213.462C131.918 213.6 131.863 213.733 131.765 213.831C131.667 213.929 131.534 213.984 131.396 213.984Z" fill="#C7C7C7"/>
<path d="M133.502 207.6H47.6659C47.5275 207.6 47.3947 207.545 47.2968 207.447C47.1989 207.349 47.1439 207.216 47.1439 207.078C47.1439 206.94 47.1989 206.807 47.2968 206.709C47.3947 206.611 47.5275 206.556 47.6659 206.556H133.502C133.64 206.556 133.773 206.611 133.871 206.709C133.969 206.807 134.024 206.94 134.024 207.078C134.024 207.216 133.969 207.349 133.871 207.447C133.773 207.545 133.64 207.6 133.502 207.6Z" fill="#C7C7C7"/>
<path d="M135.446 201.258H46.6999C46.5704 201.244 46.4505 201.183 46.3634 201.086C46.2763 200.989 46.2281 200.863 46.2281 200.733C46.2281 200.603 46.2763 200.477 46.3634 200.38C46.4505 200.283 46.5704 200.222 46.6999 200.208H135.446C135.52 200.2 135.594 200.208 135.665 200.231C135.735 200.253 135.8 200.291 135.855 200.34C135.91 200.39 135.954 200.45 135.984 200.518C136.015 200.586 136.03 200.659 136.03 200.733C136.03 200.807 136.015 200.88 135.984 200.948C135.954 201.016 135.91 201.076 135.855 201.126C135.8 201.175 135.735 201.213 135.665 201.235C135.594 201.258 135.52 201.266 135.446 201.258Z" fill="#C7C7C7"/>
<path d="M137.558 194.892H45.7219C45.6482 194.9 45.5737 194.892 45.5033 194.869C45.4328 194.847 45.3679 194.809 45.3128 194.76C45.2577 194.71 45.2136 194.65 45.1834 194.582C45.1533 194.514 45.1377 194.441 45.1377 194.367C45.1377 194.293 45.1533 194.22 45.1834 194.152C45.2136 194.084 45.2577 194.024 45.3128 193.974C45.3679 193.925 45.4328 193.887 45.5033 193.865C45.5737 193.842 45.6482 193.834 45.7219 193.842H137.558C137.687 193.856 137.807 193.917 137.894 194.014C137.982 194.111 138.03 194.237 138.03 194.367C138.03 194.497 137.982 194.623 137.894 194.72C137.807 194.817 137.687 194.878 137.558 194.892Z" fill="#C7C7C7"/>
<path d="M139.568 188.526H44.768C44.6295 188.526 44.4968 188.471 44.3989 188.373C44.301 188.275 44.246 188.142 44.246 188.004C44.246 187.866 44.301 187.733 44.3989 187.635C44.4968 187.537 44.6295 187.482 44.768 187.482H139.568C139.706 187.482 139.839 187.537 139.937 187.635C140.035 187.733 140.09 187.866 140.09 188.004C140.09 188.142 140.035 188.275 139.937 188.373C139.839 188.471 139.706 188.526 139.568 188.526Z" fill="#C7C7C7"/>
<path d="M141.728 182.16H43.772C43.6336 182.16 43.5008 182.105 43.4029 182.007C43.305 181.909 43.25 181.776 43.25 181.638C43.25 181.5 43.305 181.367 43.4029 181.269C43.5008 181.171 43.6336 181.116 43.772 181.116H141.728C141.866 181.116 141.999 181.171 142.097 181.269C142.195 181.367 142.25 181.5 142.25 181.638C142.25 181.776 142.195 181.909 142.097 182.007C141.999 182.105 141.866 182.16 141.728 182.16Z" fill="#C7C7C7"/>
<path d="M143.786 175.8H42.8C42.6615 175.8 42.5287 175.745 42.4308 175.647C42.333 175.549 42.278 175.416 42.278 175.278C42.278 175.14 42.333 175.007 42.4308 174.909C42.5287 174.811 42.6615 174.756 42.8 174.756H143.786C143.924 174.756 144.057 174.811 144.155 174.909C144.253 175.007 144.308 175.14 144.308 175.278C144.308 175.416 144.253 175.549 144.155 175.647C144.057 175.745 143.924 175.8 143.786 175.8Z" fill="#C7C7C7"/>
<path d="M57.2419 222C57.1095 222 56.9819 221.95 56.885 221.86C56.7881 221.77 56.7291 221.646 56.7199 221.514L52.6999 169.056C52.6942 168.988 52.7021 168.919 52.7232 168.854C52.7444 168.789 52.7783 168.728 52.8229 168.676C52.8676 168.624 52.9222 168.582 52.9835 168.551C53.0448 168.521 53.1116 168.503 53.1799 168.498C53.3178 168.49 53.4535 168.535 53.5587 168.624C53.6638 168.714 53.7302 168.841 53.7439 168.978L57.7639 221.4C57.7739 221.538 57.729 221.673 57.639 221.778C57.5491 221.883 57.4214 221.947 57.2839 221.958L57.2419 222Z" fill="#C7C7C7"/>
<path d="M122.12 218.55C122.076 218.556 122.032 218.556 121.988 218.55C121.854 218.513 121.74 218.426 121.67 218.305C121.601 218.185 121.581 218.042 121.616 217.908L134.942 168.9C134.979 168.766 135.066 168.652 135.187 168.582C135.307 168.513 135.45 168.493 135.584 168.528C135.65 168.546 135.712 168.577 135.766 168.619C135.821 168.661 135.866 168.713 135.9 168.773C135.934 168.833 135.956 168.899 135.965 168.967C135.973 169.035 135.968 169.104 135.95 169.17L122.63 218.178C122.595 218.286 122.527 218.381 122.436 218.447C122.344 218.514 122.233 218.55 122.12 218.55Z" fill="#C7C7C7"/>
<path d="M65.6 221.58C65.4631 221.578 65.3321 221.524 65.2347 221.428C65.1373 221.331 65.0811 221.201 65.078 221.064L63.782 169.032C63.7803 168.893 63.8326 168.76 63.9278 168.659C64.0229 168.558 64.1536 168.498 64.292 168.492C64.429 168.492 64.5606 168.545 64.6592 168.64C64.7577 168.735 64.8154 168.865 64.82 169.002L66.11 221.04C66.1133 221.179 66.0615 221.314 65.966 221.415C65.8705 221.516 65.739 221.575 65.6 221.58Z" fill="#C7C7C7"/>
<path d="M74.1799 221.112C74.1114 221.11 74.0438 221.095 73.9811 221.068C73.9183 221.04 73.8617 221 73.8143 220.951C73.7669 220.901 73.7298 220.843 73.705 220.779C73.6803 220.715 73.6683 220.647 73.6699 220.578L74.6299 169.008C74.633 168.871 74.6892 168.741 74.7866 168.644C74.884 168.548 75.015 168.494 75.1519 168.492C75.2205 168.494 75.2881 168.509 75.3508 168.536C75.4135 168.564 75.4702 168.604 75.5176 168.653C75.5649 168.703 75.6021 168.761 75.6268 168.825C75.6516 168.889 75.6635 168.957 75.6619 169.026L74.7019 220.626C74.6928 220.758 74.6338 220.882 74.5369 220.972C74.44 221.062 74.3124 221.112 74.1799 221.112Z" fill="#C7C7C7"/>
<path d="M112.988 218.958H112.886C112.753 218.932 112.635 218.854 112.559 218.742C112.482 218.63 112.453 218.492 112.478 218.358L122.6 168.942C122.63 168.811 122.709 168.696 122.82 168.62C122.931 168.545 123.067 168.514 123.2 168.534C123.332 168.562 123.449 168.64 123.525 168.752C123.601 168.864 123.631 169.001 123.608 169.134L113.486 218.55C113.46 218.663 113.396 218.765 113.306 218.839C113.216 218.913 113.104 218.954 112.988 218.958Z" fill="#C7C7C7"/>
<path d="M102.584 219.6H102.5C102.364 219.576 102.242 219.5 102.161 219.388C102.081 219.276 102.047 219.137 102.068 219L110.264 168.96C110.287 168.824 110.364 168.703 110.476 168.623C110.589 168.544 110.728 168.511 110.864 168.534C110.932 168.545 110.996 168.569 111.055 168.605C111.113 168.642 111.163 168.689 111.203 168.745C111.242 168.801 111.27 168.864 111.285 168.931C111.3 168.997 111.302 169.067 111.29 169.134L103.1 219.144C103.083 219.269 103.021 219.384 102.927 219.468C102.832 219.551 102.71 219.598 102.584 219.6Z" fill="#C7C7C7"/>
<path d="M82.964 220.614H82.922C82.8536 220.609 82.7868 220.591 82.7255 220.561C82.6643 220.53 82.6097 220.488 82.565 220.436C82.5203 220.384 82.4864 220.323 82.4653 220.258C82.4442 220.193 82.4363 220.124 82.442 220.056L86.264 168.978C86.2743 168.84 86.3392 168.711 86.4445 168.62C86.5497 168.53 86.6865 168.485 86.825 168.495C86.9634 168.505 87.0921 168.57 87.1827 168.675C87.2733 168.781 87.3183 168.918 87.308 169.056L83.486 220.134C83.4741 220.265 83.414 220.386 83.3176 220.475C83.2211 220.563 83.0951 220.613 82.964 220.614Z" fill="#C7C7C7"/>
<path d="M93.254 219.948H93.194C93.1239 219.94 93.056 219.918 92.9946 219.883C92.9331 219.848 92.8793 219.802 92.8362 219.746C92.7931 219.69 92.7617 219.626 92.7438 219.557C92.7259 219.489 92.7219 219.418 92.732 219.348L98.336 168.948C98.3435 168.88 98.3643 168.814 98.3973 168.754C98.4303 168.694 98.4748 168.641 98.5283 168.598C98.5818 168.555 98.6432 168.523 98.709 168.504C98.7749 168.485 98.8438 168.479 98.912 168.486C98.9801 168.494 99.0462 168.514 99.1063 168.547C99.1664 168.58 99.2194 168.625 99.2623 168.678C99.3052 168.732 99.3371 168.793 99.3563 168.859C99.3755 168.925 99.3815 168.994 99.374 169.062L93.77 219.462C93.7609 219.593 93.7028 219.716 93.6071 219.806C93.5115 219.896 93.3854 219.947 93.254 219.948Z" fill="#C7C7C7"/>
<path d="M50.726 276.336C53.9635 276.336 56.588 273.712 56.588 270.474C56.588 267.237 53.9635 264.612 50.726 264.612C47.4885 264.612 44.864 267.237 44.864 270.474C44.864 273.712 47.4885 276.336 50.726 276.336Z" fill="#263238"/>
<path d="M53.39 270.474C53.39 271.001 53.2338 271.516 52.941 271.954C52.6483 272.392 52.2323 272.734 51.7455 272.935C51.2587 273.137 50.7231 273.19 50.2063 273.087C49.6895 272.984 49.2148 272.73 48.8423 272.358C48.4697 271.985 48.216 271.51 48.1132 270.994C48.0104 270.477 48.0632 269.941 48.2648 269.455C48.4664 268.968 48.8079 268.552 49.246 268.259C49.6841 267.966 50.1991 267.81 50.726 267.81C51.4325 267.81 52.1101 268.091 52.6097 268.59C53.1093 269.09 53.39 269.767 53.39 270.474Z" fill="#EBEBEB"/>
<path d="M103.184 276.336C106.422 276.336 109.046 273.712 109.046 270.474C109.046 267.237 106.422 264.612 103.184 264.612C99.9465 264.612 97.322 267.237 97.322 270.474C97.322 273.712 99.9465 276.336 103.184 276.336Z" fill="#263238"/>
<path d="M105.848 270.474C105.848 271.001 105.692 271.516 105.399 271.954C105.106 272.392 104.69 272.734 104.203 272.935C103.717 273.137 103.181 273.19 102.664 273.087C102.148 272.984 101.673 272.73 101.3 272.358C100.928 271.985 100.674 271.51 100.571 270.994C100.468 270.477 100.521 269.941 100.723 269.455C100.924 268.968 101.266 268.552 101.704 268.259C102.142 267.966 102.657 267.81 103.184 267.81C103.891 267.81 104.568 268.091 105.068 268.59C105.567 269.09 105.848 269.767 105.848 270.474Z" fill="#EBEBEB"/>
<path d="M36.434 146.118C36.2168 146.119 36.0014 146.08 35.798 146.004L27.542 142.872C27.3209 142.788 27.1186 142.661 26.9465 142.499C26.7745 142.337 26.636 142.143 26.5391 141.927C26.4421 141.712 26.3886 141.479 26.3815 141.243C26.3745 141.006 26.414 140.771 26.498 140.55C26.5819 140.329 26.7085 140.127 26.8706 139.955C27.0327 139.783 27.2271 139.644 27.4427 139.547C27.6584 139.45 27.891 139.397 28.1273 139.39C28.3636 139.383 28.5989 139.422 28.82 139.506L37.1 142.638C37.492 142.789 37.8189 143.072 38.0242 143.438C38.2294 143.805 38.3001 144.232 38.2239 144.645C38.1477 145.058 37.9294 145.431 37.6069 145.7C37.2844 145.969 36.878 146.117 36.458 146.118H36.434Z" fill="#FA965B"/>
<path d="M29.6479 276.336C107.048 275.97 193.928 275.964 271.352 276.336C193.952 276.708 107.072 276.702 29.6479 276.336Z" fill="#263238"/>
<path d="M201.212 46.626H99.776C98.416 46.6386 97.0718 46.9189 95.8201 47.451C94.5685 47.983 93.4339 48.7564 92.4811 49.727C91.5284 50.6976 90.7762 51.8463 90.2674 53.1076C89.7586 54.3689 89.5033 55.7181 89.516 57.078V265.878C89.492 268.624 90.5591 271.268 92.4829 273.227C94.4067 275.187 97.0298 276.303 99.776 276.33H201.212C203.959 276.303 206.583 275.188 208.509 273.228C210.435 271.269 211.505 268.625 211.484 265.878V57.078C211.506 54.3303 210.437 51.6861 208.511 49.7263C206.585 47.7665 203.96 46.6514 201.212 46.626ZM205.064 259.428C205.064 264.924 200.948 269.37 195.872 269.37H105.128C100.04 269.37 95.9239 264.924 95.9239 259.428V64.992C95.9239 53.796 100.04 53.25 105.128 53.25H123.308C124.364 53.25 125.228 54.45 125.228 55.938V56.58C125.228 60.066 127.136 60.078 129.476 60.078H171.5C173.864 60.078 175.76 60.078 175.76 56.58V55.938C175.76 54.45 176.612 53.25 177.686 53.25H195.86C200.936 53.25 205.052 54.738 205.052 64.992L205.064 259.428Z" fill="#263238"/>
<path d="M205.1 65.166V259.602C205.1 265.098 200.984 269.544 195.908 269.544H105.134C100.046 269.544 95.9299 265.098 95.9299 259.602V65.166C95.9299 54 100.046 53.4 105.134 53.4H123.314C124.37 53.4 125.234 54.6 125.234 56.088V56.73C125.234 60.216 127.142 60.228 129.482 60.228H171.5C173.864 60.228 175.76 60.228 175.76 56.73V56.112C175.76 54.624 176.612 53.424 177.686 53.424H195.86C200.954 53.4 205.1 54.912 205.1 65.166Z" fill="white"/>
<path d="M156.23 55.722H144.764C144.576 55.722 144.396 55.6474 144.263 55.5147C144.131 55.3819 144.056 55.2018 144.056 55.014C144.056 54.8263 144.131 54.6462 144.263 54.5134C144.396 54.3806 144.576 54.306 144.764 54.306H156.23C156.418 54.306 156.598 54.3806 156.731 54.5134C156.863 54.6462 156.938 54.8263 156.938 55.014C156.938 55.2018 156.863 55.3819 156.731 55.5147C156.598 55.6474 156.418 55.722 156.23 55.722Z" fill="white"/>
<path d="M120.17 57.6L119.996 57.774L119.894 57.876C119.444 57.429 118.836 57.1781 118.202 57.1781C117.568 57.1781 116.96 57.429 116.51 57.876C116.475 57.845 116.443 57.8109 116.414 57.774C116.354 57.72 116.3 57.66 116.24 57.6C116.318 57.54 116.39 57.468 116.462 57.408C116.619 57.2768 116.793 57.1659 116.978 57.078C117.192 56.97 117.42 56.8933 117.656 56.85L117.998 56.808H118.298H118.526C118.731 56.83 118.933 56.8784 119.126 56.952C119.273 57.0058 119.416 57.072 119.552 57.15C119.693 57.2336 119.827 57.3279 119.954 57.432L120.14 57.6H120.17Z" fill="#A6A6A6"/>
<path d="M117.062 58.4461C116.972 58.3501 116.882 58.2601 116.786 58.1701C116.971 57.9837 117.191 57.8359 117.434 57.735C117.676 57.6341 117.936 57.5822 118.199 57.5822C118.462 57.5822 118.722 57.6341 118.964 57.735C119.207 57.8359 119.427 57.9837 119.612 58.1701L119.336 58.4461C119.034 58.1445 118.625 57.9751 118.199 57.9751C117.773 57.9751 117.364 58.1445 117.062 58.4461Z" fill="#A6A6A6"/>
<path d="M119.06 58.7221L118.784 58.9981C118.629 58.8449 118.42 58.759 118.202 58.759C117.984 58.759 117.775 58.8449 117.62 58.9981C117.524 58.9081 117.434 58.8121 117.344 58.7221C117.456 58.6078 117.589 58.517 117.737 58.455C117.884 58.393 118.042 58.361 118.202 58.361C118.362 58.361 118.52 58.393 118.667 58.455C118.815 58.517 118.948 58.6078 119.06 58.7221Z" fill="#A6A6A6"/>
<path d="M118.448 59.25C118.448 59.3153 118.422 59.3779 118.376 59.424C118.33 59.4701 118.267 59.496 118.202 59.496C118.169 59.4968 118.137 59.4911 118.106 59.4791C118.075 59.4671 118.048 59.4491 118.024 59.4262C118.001 59.4032 117.982 59.3758 117.969 59.3456C117.956 59.3154 117.95 59.2829 117.95 59.25C117.95 59.1832 117.977 59.1191 118.024 59.0719C118.071 59.0246 118.135 58.998 118.202 58.998C118.235 58.998 118.267 59.0046 118.297 59.0173C118.328 59.0301 118.355 59.0487 118.378 59.0722C118.401 59.0957 118.419 59.1235 118.431 59.1541C118.443 59.1846 118.449 59.2172 118.448 59.25Z" fill="#A6A6A6"/>
<path d="M103.04 58.146C103.04 58.0025 103.083 57.8621 103.162 57.7427C103.242 57.6233 103.355 57.5303 103.488 57.4753C103.621 57.4204 103.767 57.406 103.908 57.434C104.048 57.462 104.178 57.5311 104.279 57.6327C104.381 57.7342 104.45 57.8636 104.478 58.0044C104.506 58.1452 104.492 58.2912 104.437 58.4239C104.382 58.5565 104.289 58.6699 104.169 58.7497C104.05 58.8295 103.91 58.872 103.766 58.872C103.573 58.872 103.389 58.7956 103.253 58.6594C103.116 58.5233 103.04 58.3386 103.04 58.146Z" fill="#A6A6A6"/>
<path d="M105.32 58.146C105.32 58.0025 105.363 57.8621 105.442 57.7427C105.522 57.6233 105.635 57.5303 105.768 57.4753C105.901 57.4204 106.047 57.406 106.188 57.434C106.328 57.462 106.458 57.5311 106.559 57.6327C106.661 57.7342 106.73 57.8636 106.758 58.0044C106.786 58.1452 106.772 58.2912 106.717 58.4239C106.662 58.5565 106.569 58.6699 106.449 58.7497C106.33 58.8295 106.19 58.872 106.046 58.872C105.951 58.872 105.856 58.8533 105.768 58.8168C105.68 58.7803 105.6 58.7268 105.533 58.6594C105.465 58.592 105.412 58.512 105.375 58.4239C105.339 58.3358 105.32 58.2414 105.32 58.146Z" fill="#A6A6A6"/>
<path d="M107.6 58.146C107.6 58.0022 107.643 57.8616 107.723 57.7421C107.803 57.6225 107.917 57.5295 108.05 57.4747C108.183 57.42 108.329 57.4059 108.47 57.4344C108.611 57.4629 108.74 57.5327 108.841 57.6348C108.943 57.737 109.011 57.8669 109.039 58.0081C109.066 58.1493 109.051 58.2955 108.995 58.428C108.939 58.5606 108.845 58.6735 108.725 58.7526C108.605 58.8316 108.464 58.8732 108.32 58.872C108.225 58.872 108.131 58.8532 108.043 58.8166C107.955 58.7801 107.876 58.7265 107.809 58.659C107.742 58.5915 107.689 58.5114 107.653 58.4234C107.617 58.3353 107.599 58.2411 107.6 58.146Z" fill="#A6A6A6"/>
<path d="M109.88 58.146C109.88 58.0022 109.923 57.8616 110.003 57.7421C110.083 57.6225 110.196 57.5295 110.329 57.4747C110.462 57.42 110.609 57.4059 110.75 57.4344C110.891 57.4629 111.02 57.5327 111.121 57.6348C111.223 57.737 111.291 57.8669 111.319 58.0081C111.346 58.1493 111.331 58.2955 111.275 58.428C111.219 58.5606 111.125 58.6735 111.005 58.7526C110.885 58.8316 110.744 58.8732 110.6 58.872C110.505 58.872 110.411 58.8532 110.323 58.8166C110.235 58.7801 110.156 58.7265 110.089 58.659C110.022 58.5915 109.969 58.5114 109.933 58.4234C109.897 58.3353 109.879 58.2411 109.88 58.146Z" fill="#A6A6A6"/>
<path d="M112.154 58.146C112.154 58.0025 112.197 57.8621 112.276 57.7427C112.356 57.6233 112.469 57.5303 112.602 57.4753C112.735 57.4204 112.881 57.406 113.022 57.434C113.162 57.462 113.292 57.5311 113.393 57.6327C113.495 57.7342 113.564 57.8636 113.592 58.0044C113.62 58.1452 113.606 58.2912 113.551 58.4239C113.496 58.5565 113.403 58.6699 113.283 58.7497C113.164 58.8295 113.024 58.872 112.88 58.872C112.687 58.872 112.503 58.7956 112.367 58.6594C112.23 58.5233 112.154 58.3386 112.154 58.146Z" fill="#A6A6A6"/>
<path d="M196.88 59.73H190.988V57H196.88V59.73ZM191.288 59.43H196.58V57.3H191.3L191.288 59.43Z" fill="#A6A6A6"/>
<path d="M195.278 57.462H191.48V59.262H195.278V57.462Z" fill="#A6A6A6"/>
<path d="M197.402 57.636H196.88V59.094H197.402V57.636Z" fill="#A6A6A6"/>
<path d="M156.77 45.072H144.236V74.562H156.77V45.072Z" fill="#FA965B"/>
<path d="M156.764 74.556C156.764 74.556 155.564 80.556 150.5 80.556C145.436 80.556 144.236 74.556 144.236 74.556H156.764Z" fill="#FA965B"/>
<path opacity="0.1" d="M156.764 74.556C156.764 74.556 155.564 80.556 150.5 80.556C145.436 80.556 144.236 74.556 144.236 74.556H156.764Z" fill="black"/>
<path d="M144.23 74.562H131.696L132.974 45.072H144.23V74.562Z" fill="white"/>
<path d="M144.23 74.562L131.696 74.64H131.612C131.612 74.64 132.812 45.108 132.812 45.066V44.922H132.95H144.206H144.332C144.38 45.036 144.254 59.7 144.284 59.82L144.206 74.532L144.23 74.562ZM144.23 74.562L144.152 59.784L144.11 45.072L144.23 45.192L132.974 45.222L133.124 45.078C133.082 45.078 131.888 74.91 131.696 74.478L144.23 74.556V74.562Z" fill="#263238"/>
<path d="M144.236 74.556C144.236 74.556 143.036 80.556 137.96 80.556C132.884 80.556 131.696 74.556 131.696 74.556H144.236Z" fill="#EBEBEB"/>
<path d="M131.696 74.562H119.162L121.718 45.072H132.974L131.696 74.562Z" fill="#FA965B"/>
<path d="M131.696 74.556C131.696 74.556 130.496 80.556 125.426 80.556C120.356 80.556 119.162 74.556 119.162 74.556H131.696Z" fill="#FA965B"/>
<path opacity="0.1" d="M131.696 74.556C131.696 74.556 130.496 80.556 125.426 80.556C120.356 80.556 119.162 74.556 119.162 74.556H131.696Z" fill="black"/>
<path d="M119.156 74.562H106.622L110.462 45.072H121.718L119.156 74.562Z" fill="white"/>
<path d="M119.156 74.562L106.622 74.64H106.532C106.532 74.64 110.3 45.102 110.3 45.054V44.922H110.432H121.688H121.82V45.054L120.5 59.856L119.144 74.562H119.156ZM119.156 74.562L120.356 59.778L121.592 45.06L121.712 45.192L110.456 45.222L110.6 45.09C110.558 45.09 106.79 74.934 106.616 74.49L119.15 74.568L119.156 74.562Z" fill="#263238"/>
<path d="M119.156 74.556C119.156 74.556 117.956 80.556 112.886 80.556C107.816 80.556 106.622 74.556 106.622 74.556H119.156Z" fill="#EBEBEB"/>
<path d="M106.622 74.562H94.088L99.206 45.072H110.456L106.622 74.562Z" fill="#FA965B"/>
<path d="M106.622 74.556C106.622 74.556 105.422 80.556 100.358 80.556C95.294 80.556 94.082 74.556 94.082 74.556H106.622Z" fill="#FA965B"/>
<path opacity="0.1" d="M106.622 74.556C106.622 74.556 105.422 80.556 100.358 80.556C95.294 80.556 94.082 74.556 94.082 74.556H106.622Z" fill="black"/>
<path d="M94.1 74.562H81.548L87.146 48.762C87.608 46.632 89.876 45.078 92.546 45.078H99.2L94.1 74.562Z" fill="white"/>
<path d="M94.1 74.562L81.566 74.64H81.47V74.544C82.256 70.878 86.03 53.292 86.726 50.034C86.8464 49.1902 87.0868 48.3678 87.44 47.592C88.766 45.192 91.706 44.766 94.19 44.934H99.2H99.35L99.32 45.072L96.716 59.844L94.1 74.562ZM94.1 74.562L96.584 59.772L99.098 45.048L99.218 45.192H94.208C91.808 45.048 89.006 45.432 87.71 47.724C87.3682 48.4729 87.1358 49.267 87.02 50.082L85.946 54.978L81.644 74.568L81.566 74.472L94.1 74.55V74.562Z" fill="#263238"/>
<path d="M94.1 74.556C94.1 74.556 92.9 80.556 87.836 80.556C82.772 80.556 81.572 74.556 81.572 74.556H94.1Z" fill="#EBEBEB"/>
<path d="M156.77 74.562H169.304L168.026 45.072H156.77V74.562Z" fill="white"/>
<path d="M156.77 74.562L169.304 74.484L169.226 74.562L167.9 45.078L168.05 45.222L156.794 45.192L156.914 45.072L156.872 59.784L156.794 74.562H156.77ZM156.77 74.562L156.692 59.85L156.65 45.072V44.952H156.776H168.032H168.17V45.096C168.17 45.204 169.37 74.574 169.37 74.67H169.286L156.752 74.592L156.77 74.562Z" fill="#263238"/>
<path d="M169.304 74.556C169.304 74.556 168.104 80.556 163.04 80.556C157.976 80.556 156.764 74.556 156.764 74.556H169.304Z" fill="#EBEBEB"/>
<path d="M169.304 74.562H181.838L179.282 45.072H168.026L169.304 74.562Z" fill="#FA965B"/>
<path d="M181.838 74.556C181.838 74.556 180.638 80.556 175.574 80.556C170.51 80.556 169.304 74.556 169.304 74.556H181.838Z" fill="#FA965B"/>
<path opacity="0.1" d="M181.838 74.556C181.838 74.556 180.638 80.556 175.574 80.556C170.51 80.556 169.304 74.556 169.304 74.556H181.838Z" fill="black"/>
<path d="M181.844 74.562H194.378L190.538 45.072H179.282L181.844 74.562Z" fill="white"/>
<path d="M181.844 74.562L194.378 74.484C194.204 75.024 190.454 44.97 190.394 45.084L190.538 45.216L179.3 45.192L179.42 45.06C180.05 52.41 181.268 67.206 181.862 74.562H181.844ZM181.844 74.562L180.5 59.856L179.174 45.084V44.952H179.3H190.556H190.7C190.742 45.168 194.462 74.442 194.498 74.67H194.408L181.874 74.592L181.844 74.562Z" fill="#263238"/>
<path d="M194.378 74.556C194.378 74.556 193.178 80.556 188.114 80.556C183.05 80.556 181.844 74.556 181.844 74.556H194.378Z" fill="#EBEBEB"/>
<path d="M194.378 74.562H206.912L201.794 45.072H190.544L194.378 74.562Z" fill="#FA965B"/>
<path d="M206.9 74.556C206.9 74.556 205.7 80.556 200.624 80.556C195.548 80.556 194.36 74.556 194.36 74.556H206.9Z" fill="#FA965B"/>
<path opacity="0.1" d="M206.9 74.556C206.9 74.556 205.7 80.556 200.624 80.556C195.548 80.556 194.36 74.556 194.36 74.556H206.9Z" fill="black"/>
<path d="M206.9 74.562H219.434L213.836 48.762C213.374 46.632 211.106 45.078 208.436 45.078H201.8L206.9 74.562Z" fill="white"/>
<path d="M206.9 74.562L219.434 74.484L219.356 74.58L215.054 54.99L213.98 50.094C213.864 49.279 213.632 48.4849 213.29 47.736C211.994 45.444 209.204 45.06 206.792 45.204H201.782L201.902 45.06C203.186 52.398 205.7 67.2 206.9 74.562ZM206.9 74.562L204.266 59.862L201.68 45.09L201.65 44.952H201.8H206.81C209.732 44.718 213.29 45.552 214.01 48.822C214.91 53.022 218.57 70.074 219.53 74.562V74.658H219.434L206.9 74.562Z" fill="#263238"/>
<path d="M219.446 74.556C219.446 74.556 218.246 80.556 213.182 80.556C208.118 80.556 206.918 74.556 206.918 74.556H219.446Z" fill="#EBEBEB"/>
<path d="M179.666 132.318H121.34V190.644H179.666V132.318Z" fill="#FA965B"/>
<path d="M169.664 160.236H131.336V154.8H169.664V160.236Z" fill="white"/>
<path d="M167.528 159.084L166.262 179.25H134.744L133.472 159.084H167.528Z" fill="white"/>
<path d="M154.574 156.906C154.574 157.712 154.335 158.499 153.887 159.169C153.44 159.839 152.804 160.362 152.059 160.67C151.315 160.978 150.496 161.059 149.705 160.902C148.915 160.745 148.189 160.357 147.619 159.787C147.05 159.217 146.662 158.491 146.504 157.701C146.347 156.911 146.428 156.091 146.736 155.347C147.044 154.603 147.567 153.966 148.237 153.519C148.907 153.071 149.694 152.832 150.5 152.832C151.58 152.834 152.615 153.263 153.379 154.027C154.143 154.791 154.572 155.826 154.574 156.906Z" fill="white"/>
<path d="M145.136 163.446V175.05C145.138 175.187 145.112 175.322 145.061 175.449C145.01 175.575 144.934 175.69 144.838 175.788C144.742 175.885 144.628 175.962 144.502 176.014C144.376 176.067 144.241 176.094 144.104 176.094H143.936C143.823 176.093 143.712 176.07 143.608 176.026C143.504 175.983 143.41 175.919 143.331 175.838C143.252 175.758 143.189 175.663 143.147 175.559C143.105 175.454 143.083 175.343 143.084 175.23V163.446C143.086 163.221 143.176 163.005 143.335 162.845C143.495 162.686 143.711 162.596 143.936 162.594H144.272C144.385 162.592 144.497 162.613 144.602 162.655C144.706 162.697 144.802 162.76 144.882 162.839C144.963 162.919 145.026 163.013 145.07 163.117C145.114 163.221 145.136 163.333 145.136 163.446Z" fill="#FA965B"/>
<path d="M151.52 163.446V175.05C151.522 175.187 151.496 175.322 151.445 175.449C151.394 175.575 151.318 175.69 151.222 175.788C151.126 175.885 151.012 175.962 150.886 176.014C150.76 176.067 150.624 176.094 150.488 176.094H150.32C150.207 176.093 150.096 176.07 149.992 176.026C149.888 175.983 149.794 175.919 149.715 175.838C149.636 175.758 149.573 175.663 149.531 175.559C149.489 175.454 149.467 175.343 149.468 175.23V163.446C149.471 163.222 149.562 163.007 149.721 162.849C149.881 162.691 150.095 162.602 150.32 162.6H150.656C150.768 162.598 150.88 162.619 150.984 162.661C151.089 162.703 151.184 162.765 151.264 162.843C151.344 162.922 151.408 163.016 151.452 163.119C151.496 163.222 151.519 163.334 151.52 163.446Z" fill="#FA965B"/>
<path d="M157.904 163.446V175.05C157.906 175.187 157.88 175.322 157.829 175.449C157.778 175.575 157.702 175.69 157.606 175.788C157.51 175.885 157.396 175.962 157.27 176.014C157.144 176.067 157.008 176.094 156.872 176.094H156.704C156.591 176.093 156.48 176.07 156.376 176.026C156.272 175.983 156.178 175.919 156.099 175.838C156.02 175.758 155.957 175.663 155.915 175.559C155.873 175.454 155.851 175.343 155.852 175.23V163.446C155.854 163.221 155.944 163.005 156.103 162.845C156.263 162.686 156.478 162.596 156.704 162.594H157.04C157.153 162.592 157.265 162.613 157.37 162.655C157.474 162.697 157.57 162.76 157.65 162.839C157.731 162.919 157.794 163.013 157.838 163.117C157.882 163.221 157.904 163.333 157.904 163.446Z" fill="#FA965B"/>
<path d="M161.678 156.576H159.878V145.8H141.122V156.576H139.322V144H161.678V156.576Z" fill="white"/>
<path d="M186.713 138.747C190.256 134.851 189.97 128.822 186.075 125.278C182.18 121.735 176.15 122.021 172.607 125.916C169.064 129.811 169.349 135.841 173.245 139.384C177.14 142.927 183.17 142.642 186.713 138.747Z" fill="#455A64"/>
<path d="M181.64 131.328C181.953 131.633 182.201 131.998 182.37 132.401C182.539 132.804 182.625 133.237 182.624 133.674C182.626 134.335 182.431 134.982 182.065 135.533C181.699 136.083 181.177 136.512 180.566 136.766C179.955 137.019 179.283 137.085 178.634 136.956C177.986 136.826 177.391 136.507 176.924 136.038C176.844 135.97 176.778 135.886 176.732 135.791C176.686 135.697 176.66 135.593 176.655 135.488C176.651 135.383 176.669 135.278 176.707 135.18C176.745 135.082 176.803 134.993 176.878 134.918C176.952 134.844 177.042 134.785 177.14 134.747C177.238 134.709 177.343 134.691 177.448 134.696C177.553 134.7 177.657 134.726 177.751 134.772C177.846 134.818 177.93 134.884 177.998 134.964C178.166 135.132 178.365 135.265 178.584 135.356C178.804 135.446 179.039 135.493 179.276 135.492C179.515 135.494 179.753 135.449 179.974 135.358C180.196 135.267 180.397 135.133 180.566 134.964C180.737 134.796 180.874 134.595 180.966 134.374C181.059 134.152 181.107 133.914 181.106 133.674C181.107 133.436 181.06 133.201 180.967 132.983C180.874 132.764 180.738 132.566 180.566 132.402C180.399 132.232 180.2 132.097 179.981 132.004C179.762 131.911 179.526 131.863 179.288 131.862C179.184 131.868 179.079 131.849 178.984 131.807C178.888 131.766 178.803 131.702 178.736 131.622C178.595 131.478 178.516 131.284 178.516 131.082C178.516 130.88 178.595 130.687 178.736 130.542L180.104 129.15H177.926C177.736 129.133 177.56 129.046 177.431 128.905C177.303 128.765 177.232 128.581 177.232 128.391C177.232 128.201 177.303 128.017 177.431 127.877C177.56 127.736 177.736 127.649 177.926 127.632H181.892C181.992 127.63 182.091 127.649 182.184 127.686C182.276 127.722 182.361 127.777 182.432 127.847C182.504 127.917 182.56 128 182.6 128.092C182.639 128.184 182.659 128.282 182.66 128.382C182.657 128.508 182.624 128.631 182.564 128.742C182.528 128.811 182.484 128.876 182.432 128.934L180.734 130.68C181.075 130.836 181.382 131.056 181.64 131.328Z" fill="white"/>
<path d="M222.38 97.674C227.108 101.076 242.222 114.762 243.176 117.042C244.322 119.754 238.46 129.396 236.036 129.186C229.772 128.64 218.804 108.912 215.288 99.882C213.566 95.466 214.472 91.98 222.38 97.674Z" fill="#D3766A"/>
<path d="M235.19 96.456C236.546 94.968 247.28 102.96 247.064 105.912C246.278 116.772 242.948 125.994 240.968 127.902C240.337 128.482 239.578 128.904 238.752 129.134C237.927 129.364 237.059 129.396 236.219 129.227C235.379 129.058 234.591 128.693 233.919 128.161C233.247 127.63 232.71 126.947 232.352 126.168C229.976 121.2 229.934 102.21 235.19 96.456Z" fill="#D3766A"/>
<path d="M231.194 120.03C229.994 114.03 231.548 105.546 231.542 105.534C231.542 105.414 231.698 105.372 231.704 105.438C231.746 106.638 230.93 115.53 231.356 119.982C231.356 120 231.2 120.072 231.194 120.03Z" fill="#263238"/>
<path d="M249.35 97.962C249.17 101.112 246.284 107.4 245 108.654C243.716 109.908 232.862 105.348 232.4 103.572C231.938 101.796 233.36 91.248 235.508 88.86C237.656 86.472 249.536 94.698 249.35 97.962Z" fill="#D3766A"/>
<path d="M232.31 101.736C231.499 99.3211 230.341 97.0371 228.872 94.956C227.03 92.556 224.024 89.16 225.272 88.116C227.864 85.986 235.358 94.422 235.358 94.422C235.358 94.422 238.07 98.67 235.688 101.022C235.245 101.44 234.695 101.727 234.099 101.853C233.503 101.979 232.884 101.938 232.31 101.736Z" fill="#D3766A"/>
<path d="M232.922 93.198C233.702 94.68 234.998 92.91 234.998 92.91C234.998 92.91 233.744 95.91 235.142 97.11C236.54 98.31 237.974 96.084 238.082 95.91C238.016 96.066 236.942 98.844 238.466 99.918C239.99 100.992 241.172 98.58 241.244 98.418C241.244 98.592 241.082 100.818 242.444 101.382C244.754 102.324 245.288 96.612 246.902 95.382C246.902 95.382 249.302 97.872 249.368 97.932C249.434 97.992 249.968 92.532 248.216 90.426C247.964 90.1195 247.615 89.9084 247.226 89.8277C246.838 89.7469 246.433 89.8014 246.08 89.982C246.08 89.982 246.47 88.26 245.294 87.372C244.694 86.922 243.434 87.486 243.434 87.486C243.502 87.0908 243.46 86.6844 243.311 86.3117C243.163 85.9391 242.915 85.6146 242.594 85.374C241.724 84.774 240.596 85.452 240.596 85.452C240.596 85.452 240.224 83.994 239.138 83.694C236.942 83.112 231.254 90.036 232.922 93.198Z" fill="#D3766A"/>
<path d="M240.386 85.56C240.386 85.56 240.386 85.506 240.356 85.524C237.825 87.4055 235.927 90.0132 234.914 93C234.884 93.096 235.028 93.186 235.082 93.084C236.475 90.3314 238.261 87.7967 240.386 85.56Z" fill="#263238"/>
<path d="M243.428 87.474C243.428 87.474 243.428 87.408 243.38 87.432C240.62 89.5384 238.705 92.5626 237.98 95.958C237.98 96.078 238.058 96.204 238.094 96.072C238.7 93.786 241.406 89.544 243.428 87.474Z" fill="#263238"/>
<path d="M241.28 98.706C242.03 95.388 243.764 92.646 245.954 90.084C245.954 90.084 245.954 90.018 245.9 90.036C244.49 90.996 243.266 92.778 242.426 94.236C241.625 95.5806 241.191 97.1114 241.166 98.676C241.166 98.742 241.262 98.772 241.28 98.706Z" fill="#263238"/>
<path d="M234.944 92.928C234.908 93.042 235.112 92.97 235.082 93.084C234.95 93.576 234.392 96.576 235.358 97.08C236.132 97.488 237.212 96.726 237.512 96.27L238.268 95.13L237.956 96.468C237.812 97.0565 237.766 97.6645 237.818 98.268C237.827 98.5503 237.896 98.8274 238.019 99.0817C238.142 99.3359 238.317 99.5615 238.532 99.744C238.737 99.9081 238.992 99.9975 239.255 99.9975C239.518 99.9975 239.773 99.9081 239.978 99.744C240.428 99.3668 240.775 98.8817 240.986 98.334L241.628 96.846L241.514 98.454C241.481 98.9033 241.505 99.3549 241.586 99.798C241.649 100.22 241.835 100.615 242.12 100.932C242.255 101.069 242.425 101.166 242.611 101.211C242.798 101.257 242.993 101.25 243.176 101.19C243.565 100.998 243.89 100.698 244.112 100.326C244.609 99.5295 245.042 98.6949 245.408 97.83C245.612 97.398 245.81 96.966 246.008 96.546C246.206 96.1073 246.497 95.7164 246.86 95.4C246.54 95.7481 246.291 96.1558 246.128 96.6C245.942 97.038 245.774 97.482 245.606 97.926C245.291 98.8344 244.889 99.7104 244.406 100.542C244.157 101.001 243.777 101.375 243.314 101.616C243.049 101.721 242.759 101.746 242.48 101.689C242.2 101.631 241.944 101.493 241.742 101.292C241.377 100.907 241.135 100.423 241.046 99.9C240.946 99.4108 240.912 98.9104 240.944 98.412L241.466 98.526C241.223 99.1828 240.808 99.7628 240.266 100.206C239.963 100.444 239.589 100.571 239.204 100.566C238.826 100.544 238.463 100.41 238.16 100.182C237.886 99.9523 237.664 99.6674 237.508 99.3458C237.352 99.0243 237.265 98.6733 237.254 98.316C237.205 97.6467 237.266 96.9739 237.434 96.324L237.878 96.522C237.476 97.086 236.36 98.064 235.082 97.59C233.558 96.732 234.692 93.504 234.944 92.928Z" fill="#263238"/>
<path d="M234.998 92.91C234.745 93.1515 234.458 93.3537 234.146 93.51C234.021 93.5692 233.884 93.5954 233.746 93.5859C233.608 93.5764 233.475 93.5317 233.36 93.456C233.135 93.2496 232.975 92.983 232.898 92.688C232.796 92.364 232.706 92.022 232.628 91.668C232.52 92.0235 232.489 92.3978 232.538 92.766C232.572 93.1802 232.768 93.5642 233.084 93.834C233.264 93.9608 233.479 94.0289 233.699 94.0289C233.919 94.0289 234.134 93.9608 234.314 93.834C234.637 93.6091 234.877 93.2845 234.998 92.91Z" fill="#263238"/>
<path d="M207.674 269.064C206.474 268.326 182.318 239.064 182.108 237.342C182.078 237.108 185.756 233.796 190.424 229.638C190.664 229.422 208.148 212.502 208.148 212.502L223.148 230.616L206.744 247.356C206.744 247.356 210.98 262.698 211.016 264.594C211.052 266.49 208.862 269.808 207.674 269.064Z" fill="#D3766A"/>
<path d="M208.49 253.422C208.448 253.326 208.436 253.272 208.454 253.248C208.47 253.305 208.482 253.363 208.49 253.422Z" fill="#FA965B"/>
<path d="M211.022 264.6C211.052 266.484 208.856 269.814 207.674 269.07C206.492 268.326 182.318 239.07 182.108 237.348C182.072 237.114 185.75 233.802 190.424 229.644L194.18 226.044L209.642 244.434L206.75 247.386C206.75 247.386 210.986 262.698 211.022 264.6Z" fill="#EBEBEB"/>
<path d="M208.61 268.758C207.41 268.008 183.056 238.356 182.846 236.634C182.756 235.986 186.872 232.182 191.972 227.736L192.134 227.598L208.058 246.558L207.728 246.816C207.728 246.816 211.97 262.338 212.006 264.252C212.042 266.166 209.804 269.514 208.61 268.758Z" fill="#FA965B"/>
<path d="M209.48 267.48C205.502 262.38 188.954 242.184 184.634 237.444C184.598 237.408 184.568 237.444 184.604 237.474C188.438 242.616 205.142 262.674 209.402 267.546C209.492 267.648 209.564 267.6 209.48 267.48Z" fill="white"/>
<path d="M208.994 248.472C207.746 246.198 205.466 244.044 202.832 243.672C202.73 243.672 202.712 243.804 202.784 243.852C204.933 245.236 206.928 246.845 208.736 248.652C208.763 248.676 208.798 248.69 208.834 248.692C208.87 248.694 208.906 248.684 208.936 248.663C208.965 248.642 208.987 248.612 208.998 248.578C209.008 248.543 209.007 248.506 208.994 248.472Z" fill="white"/>
<path d="M209.3 250.59C208.052 248.322 205.778 246.168 203.138 245.79C203.036 245.79 203.018 245.922 203.09 245.97C205.242 247.352 207.24 248.961 209.048 250.77C209.076 250.791 209.109 250.803 209.144 250.803C209.178 250.804 209.212 250.793 209.24 250.773C209.269 250.753 209.29 250.724 209.3 250.691C209.311 250.658 209.311 250.623 209.3 250.59Z" fill="white"/>
<path d="M209.612 252.714C208.364 250.446 206.084 248.286 203.45 247.914C203.348 247.914 203.33 248.046 203.402 248.088C205.553 249.472 207.55 251.081 209.36 252.888C209.387 252.908 209.42 252.919 209.454 252.92C209.487 252.92 209.52 252.91 209.548 252.891C209.576 252.872 209.597 252.844 209.608 252.813C209.62 252.781 209.621 252.747 209.612 252.714Z" fill="white"/>
<path d="M210.044 268.338C210.272 269.04 208.394 270.39 207.938 270.138C207.482 269.886 181.1 237.402 180.746 236.748C180.392 236.094 182.546 234.684 183.182 235.236C183.818 235.788 210.044 268.338 210.044 268.338Z" fill="#263238"/>
<path d="M192.836 235.2C192.146 232.2 187.436 233.238 188.12 236.274C188.804 239.31 193.526 238.26 192.836 235.2Z" fill="white"/>
<path d="M220.166 194.22C218.822 200.82 194.54 223.65 194.54 223.65L213.674 245.742C213.674 245.742 249.488 210.426 247.454 195.81C245.684 183.09 226.646 131.958 226.646 131.958H204.68C204.68 131.958 221.48 187.716 220.166 194.22Z" fill="#37474F"/>
<path d="M220.166 194.22C218.822 200.82 194.54 223.65 194.54 223.65L213.674 245.742C213.674 245.742 249.488 210.426 247.454 195.81C245.684 183.09 226.646 131.958 226.646 131.958H204.68C204.68 131.958 221.48 187.716 220.166 194.22Z" fill="#37474F"/>
<path d="M215.852 240.486C213.308 237.324 214.082 238.194 211.508 235.056C210.242 233.52 201.944 223.446 200.516 222.216C200.486 222.216 200.432 222.216 200.45 222.27C201.41 223.89 209.882 233.826 211.178 235.338C213.812 238.422 213.092 237.51 215.762 240.564C215.81 240.6 215.9 240.546 215.852 240.486Z" fill="#263238"/>
<path d="M222.89 190.998C222.578 189.348 222.218 187.698 221.87 186.054C221.154 182.694 220.398 179.344 219.602 176.004C218.026 169.38 216.306 162.792 214.442 156.24C212.57 149.67 210.59 143.106 208.31 136.662C208.034 135.864 207.71 135.072 207.452 134.262C207.452 134.202 207.332 134.226 207.356 134.262C209.33 140.718 211.364 147.156 213.212 153.648C215.06 160.14 216.764 166.614 218.372 173.142C219.176 176.424 219.926 179.742 220.664 183.006C221.024 184.626 221.376 186.248 221.72 187.872C222.148 189.517 222.455 191.192 222.638 192.882C222.695 194.484 222.243 196.064 221.348 197.394C220.526 198.744 219.548 200.01 218.624 201.282C216.746 203.826 202.034 220.152 201.458 220.698C201.41 220.74 201.458 220.8 201.524 220.764C203.924 218.61 215.924 205.764 217.856 203.238C218.81 201.984 219.734 200.706 220.646 199.422C221.559 198.254 222.295 196.958 222.83 195.576C223.24 194.08 223.261 192.504 222.89 190.998Z" fill="#263238"/>
<path d="M222.848 131.952L218.858 184.284C215.054 166.374 204.686 131.952 204.686 131.952H222.848Z" fill="#263238"/>
<path d="M259.7 275.94C258.38 276.39 220.406 276.492 218.96 275.574C218.756 275.454 218.534 270.51 218.282 264.258C218.282 263.94 213.626 238.332 213.626 238.332L237.152 238.218L242.336 262.878C242.336 262.878 256.886 269.34 258.374 270.51C259.862 271.68 261.008 275.496 259.7 275.94Z" fill="#D3766A"/>
<path d="M259.7 275.94C258.374 276.39 220.406 276.492 218.96 275.574C218.756 275.454 218.528 270.51 218.276 264.258C218.276 264.168 217.922 262.176 217.412 259.332H241.586L242.33 262.878C242.33 262.878 256.88 269.34 258.368 270.51C259.856 271.68 261.008 275.496 259.7 275.94Z" fill="#EBEBEB"/>
<path d="M248.108 265.38C248.012 265.38 247.958 265.326 247.952 265.296L248.108 265.38Z" fill="#FA965B"/>
<path d="M259.874 275.772C258.53 276.216 220.154 276.042 218.702 275.106C218.138 274.758 217.838 269.166 217.67 262.398V262.2L242.426 262.032V262.452C242.426 262.452 257.084 269.094 258.578 270.288C260.072 271.482 261.212 275.328 259.874 275.772Z" fill="#FA965B"/>
<path d="M259.442 274.278C252.974 274.092 226.868 273.942 220.442 274.248C220.388 274.248 220.388 274.284 220.442 274.29C226.844 274.614 252.95 274.554 259.442 274.386C259.58 274.38 259.58 274.284 259.442 274.278Z" fill="white"/>
<path d="M244.496 262.524C241.952 262.038 238.838 262.416 236.882 264.222C236.81 264.288 236.882 264.396 236.99 264.372C239.426 263.597 241.939 263.086 244.484 262.848C244.527 262.85 244.569 262.834 244.6 262.805C244.632 262.776 244.65 262.735 244.652 262.692C244.654 262.649 244.638 262.607 244.609 262.576C244.58 262.544 244.539 262.526 244.496 262.524Z" fill="white"/>
<path d="M246.326 263.64C243.782 263.154 240.668 263.532 238.718 265.338C238.64 265.404 238.718 265.512 238.82 265.488C241.257 264.715 243.769 264.204 246.314 263.964C246.335 263.965 246.357 263.961 246.376 263.954C246.396 263.947 246.415 263.935 246.43 263.921C246.446 263.906 246.459 263.889 246.467 263.87C246.476 263.85 246.481 263.829 246.482 263.808C246.483 263.787 246.479 263.766 246.472 263.746C246.465 263.726 246.453 263.707 246.439 263.692C246.424 263.676 246.407 263.663 246.388 263.655C246.368 263.646 246.347 263.641 246.326 263.64Z" fill="white"/>
<path d="M248.162 264.756C245.618 264.27 242.498 264.648 240.548 266.454C240.47 266.52 240.548 266.628 240.656 266.604C243.092 265.829 245.605 265.318 248.15 265.08C248.193 265.082 248.235 265.066 248.266 265.037C248.298 265.008 248.316 264.967 248.318 264.924C248.32 264.881 248.304 264.839 248.275 264.808C248.245 264.776 248.205 264.758 248.162 264.756Z" fill="white"/>
<path d="M260.462 274.398C261.152 274.662 260.99 276.972 260.492 277.152C259.994 277.332 218.156 276.96 217.448 276.798C216.74 276.636 217.01 274.086 217.838 273.954C218.666 273.822 260.462 274.398 260.462 274.398Z" fill="#263238"/>
<path d="M223.982 266.514C221.21 265.11 219.02 269.418 221.804 270.828C224.588 272.238 226.766 267.918 223.982 266.514Z" fill="white"/>
<path d="M224.528 131.958C223.673 135.568 223.042 139.227 222.638 142.914C222.182 147.51 221.606 151.578 220.994 152.082C220.382 152.586 216.83 154.884 215.66 155.598C215.66 155.598 226.46 188.406 229.274 199.338C233.324 215.19 243.002 257.244 243.002 257.244H216.5C216.5 257.244 209.342 217.476 205.91 202.386C202.952 189.438 191.672 150.6 191.672 150.6C187.568 140.508 194.486 131.934 194.486 131.934C194.486 131.934 224.528 131.94 224.528 131.958Z" fill="#37474F"/>
<path d="M240.536 252.228C236.618 252.228 237.746 252.156 233.828 252.18C231.914 252.18 219.326 252.27 217.538 252.606C217.502 252.606 217.502 252.684 217.538 252.69C219.338 252.966 231.938 252.69 233.828 252.612C237.746 252.51 236.618 252.492 240.53 252.348C240.546 252.349 240.561 252.343 240.573 252.333C240.585 252.322 240.592 252.307 240.593 252.291C240.594 252.275 240.588 252.26 240.578 252.248C240.567 252.236 240.552 252.229 240.536 252.228Z" fill="#263238"/>
<path d="M222.824 150.786C220.314 152.177 217.929 153.783 215.696 155.586C215.687 155.592 215.678 155.6 215.672 155.61C215.666 155.619 215.661 155.63 215.659 155.641C215.657 155.652 215.657 155.664 215.659 155.675C215.661 155.686 215.666 155.697 215.672 155.706C215.678 155.715 215.686 155.724 215.696 155.73C215.705 155.736 215.716 155.741 215.727 155.743C215.738 155.745 215.75 155.745 215.761 155.743C215.772 155.741 215.783 155.736 215.792 155.73C218.192 154.218 220.682 152.73 222.992 151.098C223.033 151.076 223.064 151.038 223.078 150.993C223.091 150.948 223.086 150.899 223.064 150.858C223.042 150.817 223.004 150.786 222.959 150.772C222.914 150.759 222.865 150.764 222.824 150.786Z" fill="#263238"/>
<path d="M220.85 132.942C220.85 132.852 220.67 132.858 220.688 132.942C221.136 135.829 221.439 138.737 221.594 141.654C221.684 143.01 221.756 150.54 219.356 150.366C218.96 150.366 218.702 149.982 218.552 149.412C218.44 148.647 218.424 147.871 218.504 147.102C218.504 145.518 218.504 143.94 218.378 142.362C218.197 139.42 217.713 136.504 216.932 133.662C216.925 133.645 216.913 133.632 216.897 133.623C216.881 133.615 216.862 133.612 216.845 133.616C216.827 133.619 216.811 133.629 216.8 133.643C216.788 133.657 216.782 133.674 216.782 133.692C217.478 137.705 217.868 141.764 217.946 145.836C217.946 147.792 217.442 150.828 219.488 150.816C221.534 150.804 222.146 145.758 222.194 144.396C222.244 140.536 221.793 136.686 220.85 132.942Z" fill="#263238"/>
<path d="M219.452 150.564C219.322 151.093 219.228 151.63 219.17 152.172C219.092 152.599 219.092 153.036 219.17 153.462C219.177 153.479 219.188 153.494 219.203 153.504C219.218 153.514 219.236 153.52 219.254 153.52C219.272 153.52 219.29 153.514 219.305 153.504C219.32 153.494 219.332 153.479 219.338 153.462C219.518 153.048 219.636 152.609 219.686 152.16C219.788 151.662 219.902 151.164 219.986 150.66C219.999 150.589 219.983 150.516 219.942 150.457C219.901 150.398 219.838 150.358 219.767 150.345C219.696 150.332 219.623 150.348 219.564 150.389C219.505 150.43 219.465 150.493 219.452 150.564Z" fill="#263238"/>
<path d="M214.184 243.492C214.112 242.892 214.034 242.292 213.95 241.692C213.788 240.546 213.596 239.406 213.416 238.26C213.062 235.962 212.672 233.676 212.264 231.39C211.454 226.824 210.518 222.276 209.528 217.752C208.97 215.19 208.328 212.664 207.638 210.132C207.59 209.958 207.344 210.042 207.374 210.216C207.788 212.526 208.19 214.842 208.664 217.146C209.138 219.45 209.606 221.742 210.062 224.04C210.962 228.582 211.802 233.142 212.702 237.69C212.96 238.974 213.188 240.258 213.44 241.542C213.566 242.184 213.692 242.82 213.83 243.462C213.968 244.104 214.166 244.722 214.274 245.364C214.274 245.424 214.37 245.394 214.364 245.364C214.262 244.734 214.25 244.11 214.184 243.492Z" fill="#263238"/>
<path d="M231.998 209.166C231.134 204.876 229.976 200.646 228.812 196.434C226.46 187.956 223.7 179.604 220.94 171.234L218.54 164.034C218.138 162.834 216.194 156.348 215.954 155.73C215.924 155.67 215.834 155.694 215.852 155.73C216.41 157.938 217.172 161.16 217.82 163.35C218.468 165.54 219.152 167.658 219.824 169.812C221.144 174.042 222.488 178.266 223.766 182.508C226.298 190.908 228.818 199.266 230.87 207.786C231.47 210.186 232.022 212.55 232.544 214.95C233.066 217.35 233.522 219.75 234.02 222.15C234.02 222.166 234.026 222.181 234.038 222.192C234.049 222.204 234.064 222.21 234.08 222.21C234.096 222.21 234.111 222.204 234.122 222.192C234.134 222.181 234.14 222.166 234.14 222.15C233.726 217.8 232.856 213.462 231.998 209.166Z" fill="#263238"/>
<path d="M215.936 231.6C214.514 223.422 212.81 215.292 210.92 207.204C209.03 199.116 206.912 191.004 204.584 183C202.256 174.996 199.7 167.04 196.91 159.174C195.602 155.448 194 151.758 193.406 147.846C192.575 142.823 193.418 137.666 195.806 133.17C195.81 133.164 195.812 133.157 195.813 133.15C195.813 133.142 195.813 133.135 195.811 133.128C195.809 133.121 195.806 133.115 195.801 133.109C195.797 133.103 195.791 133.099 195.785 133.095C195.779 133.091 195.772 133.089 195.765 133.088C195.757 133.087 195.75 133.088 195.743 133.09C195.736 133.092 195.73 133.095 195.724 133.1C195.718 133.104 195.714 133.11 195.71 133.116C193.376 136.602 190.778 143.826 195.11 155.412C196.55 159.276 197.792 163.212 199.07 167.118C200.382 171.146 201.64 175.184 202.844 179.232C205.244 187.266 207.44 195.354 209.444 203.496C211.448 211.638 213.194 219.834 214.748 228.066C216.302 236.298 216.926 239.118 218.252 247.416C218.426 248.496 218.564 249.582 218.708 250.668C218.708 250.728 218.81 250.728 218.804 250.668C217.742 242.442 217.352 239.754 215.936 231.6Z" fill="#263238"/>
<path d="M227.678 132.738L225.968 121.398C225.968 121.398 229.334 117.456 227.198 112.782C226.1 110.4 219.302 97.56 215.3 94.62C211.538 91.86 206.816 94.464 205.046 96.834C199.952 103.656 196.25 110.202 193.304 132.552L227.678 132.738Z" fill="#FA965B"/>
<path d="M220.166 119.592C218.437 119.749 216.722 120.036 215.036 120.45C214.202 120.666 213.38 120.924 212.564 121.194C212.156 121.332 211.742 121.452 211.334 121.572C210.904 121.709 210.459 121.794 210.008 121.824C209.972 121.824 209.972 121.884 210.008 121.89C210.432 121.907 210.857 121.897 211.28 121.86C211.685 121.809 212.086 121.731 212.48 121.626C213.332 121.416 214.166 121.164 215.018 120.942C216.722 120.498 218.432 120.054 220.166 119.742C220.268 119.718 220.244 119.58 220.166 119.592Z" fill="#263238"/>
<path d="M224.444 121.11C223.019 120.962 221.587 120.898 220.154 120.918C219.44 120.918 218.726 120.978 218.012 121.05C217.676 121.086 217.334 121.122 216.992 121.17C216.65 121.218 216.254 121.314 215.882 121.362C215.874 121.362 215.866 121.365 215.861 121.371C215.855 121.376 215.852 121.384 215.852 121.392C215.852 121.4 215.855 121.408 215.861 121.413C215.866 121.419 215.874 121.422 215.882 121.422C216.236 121.392 216.596 121.422 216.95 121.422H218.018L220.16 121.362C221.588 121.308 223.016 121.272 224.444 121.266C224.454 121.266 224.464 121.264 224.474 121.26C224.483 121.256 224.492 121.25 224.499 121.243C224.506 121.236 224.512 121.227 224.516 121.218C224.52 121.208 224.522 121.198 224.522 121.188C224.522 121.178 224.52 121.168 224.516 121.158C224.512 121.149 224.506 121.14 224.499 121.133C224.492 121.126 224.483 121.12 224.474 121.116C224.464 121.112 224.454 121.11 224.444 121.11Z" fill="#263238"/>
<path d="M204.812 96.6C194.078 106.722 184.136 123.438 184.844 132.216C185.546 140.886 188.486 139.77 189.338 139.638C194.54 138.822 204.68 113.604 207.542 103.44C210.404 93.276 207.464 94.098 204.812 96.6Z" fill="#D3766A"/>
<path d="M207.89 86.772C206.024 86.718 201.668 88.86 200.582 91.536C199.496 94.212 200.354 98.046 201.218 98.274C202.082 98.502 205.418 97.566 207.524 95.838C209.63 94.11 208.808 86.802 207.89 86.772Z" fill="#263238"/>
<path d="M207.896 86.784C207.95 86.784 207.938 86.658 207.896 86.67C206.324 86.922 204.746 87.768 203.336 88.47C202.157 88.9856 201.098 89.7417 200.228 90.69C199.832 91.1643 199.544 91.719 199.383 92.3158C199.223 92.9125 199.194 93.537 199.298 94.146C199.482 95.6348 200.044 97.0517 200.93 98.262C200.96 98.292 201.026 98.262 201.002 98.226C199.802 95.754 198.554 92.688 200.81 90.426C202.7 88.512 205.478 87.804 207.896 86.784Z" fill="#263238"/>
<path d="M201.35 97.548C199.826 98.046 196.322 101.79 196.208 104.892C196.094 107.994 199.328 111.93 200.156 112.092C200.984 112.254 203.9 108.762 204.626 106.452C205.118 104.916 204.212 103.398 203.564 101.838C202.61 99.552 201.584 97.47 201.35 97.548Z" fill="#263238"/>
<path d="M205.496 105.918C205.388 102.798 203.096 100.122 201.554 97.584H201.506C202.574 100.098 204.596 102.162 205.16 104.898C205.361 105.693 205.367 106.525 205.178 107.323C204.989 108.121 204.61 108.862 204.074 109.482C203.078 110.568 201.674 111.24 200.432 111.972C200.348 112.02 200.432 112.14 200.516 112.092C203.036 110.73 205.604 109.134 205.496 105.918Z" fill="#263238"/>
<path d="M201.062 97.89C201.134 97.836 201.062 97.722 200.99 97.776C198.962 99.246 196.58 101.292 195.812 103.776C194.984 106.458 196.76 108.768 198.326 110.748C198.326 110.748 198.386 110.748 198.368 110.748C196.814 108.726 195.092 106.176 196.106 103.548C196.982 101.214 199.16 99.318 201.062 97.89Z" fill="#263238"/>
<path d="M200.648 111.408C199.178 113.55 197.48 116.616 198.674 118.68C199.868 120.744 203.552 123.162 203.798 123.078C204.044 122.994 207.194 119.232 207.128 116.322C207.062 113.412 200.84 111.126 200.648 111.408Z" fill="#263238"/>
<path d="M204.044 123.192C201.896 122.316 199.292 121.002 198.404 118.686C197.516 116.37 199.214 113.55 200.432 111.756H200.402C198.998 113.49 197.402 116.346 198.176 118.644C198.95 120.942 201.776 122.742 204.02 123.306C204.068 123.288 204.086 123.21 204.044 123.192Z" fill="#263238"/>
<path d="M203.696 122.868C203.286 123.703 203.051 124.612 203.007 125.541C202.962 126.47 203.109 127.398 203.438 128.268C204.782 131.718 203.228 131.802 200.3 134.67C197.816 137.07 199.1 140.706 201.62 141.39C201.62 141.39 199.538 139.92 200.912 137.79C202.55 135.234 209.342 134.52 210.044 129.642C210.962 123.312 203.696 122.868 203.696 122.868Z" fill="#263238"/>
<path d="M203.3 125.052C203.3 124.986 203.198 124.962 203.186 125.052C203.024 125.68 202.977 126.333 203.048 126.978C203.15 127.812 203.564 128.544 203.72 129.378C204.116 131.466 202.004 132.642 200.558 133.644C198.626 134.982 197.732 137.184 198.872 139.386C198.872 139.416 198.938 139.386 198.92 139.386C198.576 138.703 198.425 137.939 198.483 137.177C198.541 136.415 198.807 135.683 199.25 135.06C200.138 133.86 201.65 133.332 202.676 132.312C203.396 131.61 204.02 130.758 203.924 129.708C203.824 129.14 203.663 128.585 203.444 128.052C203.138 127.081 203.088 126.048 203.3 125.052Z" fill="#263238"/>
<path d="M204.452 122.934C204.422 122.934 204.416 122.976 204.452 122.982C206.252 123.432 208.154 123.846 209.462 125.304C210.872 126.87 211.01 129.198 210.254 131.1C209.402 133.23 207.38 133.65 205.454 134.346C204.014 134.76 202.711 135.551 201.68 136.638C201.65 136.674 201.71 136.722 201.746 136.692C203.468 135.042 205.652 134.55 207.8 133.692C208.613 133.397 209.325 132.878 209.856 132.195C210.387 131.513 210.714 130.694 210.8 129.834C211.394 125.748 208.136 123.438 204.452 122.934Z" fill="#263238"/>
<path d="M205.412 84.18C205.269 84.1124 205.105 84.1008 204.953 84.1476C204.802 84.1944 204.673 84.2962 204.593 84.433C204.512 84.5698 204.486 84.7317 204.519 84.8869C204.551 85.0422 204.641 85.1795 204.77 85.272C204.914 85.3397 205.077 85.3513 205.229 85.3045C205.38 85.2577 205.509 85.1559 205.59 85.0191C205.67 84.8823 205.696 84.7204 205.663 84.5652C205.631 84.4099 205.541 84.2726 205.412 84.18Z" fill="#FA965B"/>
<path d="M206.252 85.014C206.108 84.9396 205.941 84.923 205.785 84.9678C205.629 85.0125 205.496 85.1151 205.413 85.2546C205.33 85.394 205.304 85.5599 205.34 85.7181C205.375 85.8764 205.47 86.0151 205.604 86.106C205.748 86.1804 205.915 86.1969 206.071 86.1522C206.227 86.1075 206.36 86.0049 206.443 85.8654C206.525 85.726 206.552 85.5601 206.516 85.4019C206.481 85.2436 206.386 85.1048 206.252 85.014Z" fill="#FA965B"/>
<path d="M207.224 85.698C207.081 85.6304 206.917 85.6188 206.765 85.6656C206.614 85.7124 206.485 85.8142 206.405 85.951C206.324 86.0878 206.298 86.2497 206.331 86.4049C206.363 86.5602 206.453 86.6975 206.582 86.79C206.726 86.8577 206.889 86.8693 207.041 86.8225C207.192 86.7757 207.321 86.6739 207.402 86.5371C207.482 86.4003 207.508 86.2384 207.476 86.0832C207.443 85.9279 207.353 85.7906 207.224 85.698Z" fill="#FA965B"/>
<path d="M208.256 86.232C208.112 86.1576 207.945 86.1411 207.789 86.1858C207.633 86.2305 207.5 86.3331 207.417 86.4726C207.335 86.6121 207.308 86.7779 207.344 86.9362C207.379 87.0944 207.474 87.2332 207.608 87.324C207.752 87.3984 207.919 87.415 208.075 87.3702C208.231 87.3255 208.364 87.2229 208.447 87.0835C208.53 86.944 208.556 86.7781 208.521 86.6199C208.485 86.4616 208.391 86.3229 208.256 86.232Z" fill="#FA965B"/>
<path d="M209.384 86.592C209.24 86.5244 209.077 86.5128 208.925 86.5596C208.774 86.6064 208.645 86.7082 208.565 86.845C208.484 86.9818 208.458 87.1437 208.491 87.2989C208.523 87.4541 208.613 87.5915 208.742 87.684C208.886 87.7517 209.049 87.7632 209.201 87.7164C209.352 87.6696 209.481 87.5679 209.561 87.4311C209.642 87.2943 209.668 87.1324 209.635 86.9771C209.603 86.8219 209.513 86.6845 209.384 86.592Z" fill="#FA965B"/>
<path d="M210.5 86.736C210.356 86.6616 210.189 86.6451 210.033 86.6898C209.877 86.7345 209.744 86.8371 209.661 86.9766C209.579 87.1161 209.552 87.2819 209.588 87.4402C209.623 87.5984 209.718 87.7372 209.852 87.828C209.996 87.9024 210.163 87.919 210.319 87.8743C210.475 87.8296 210.608 87.727 210.691 87.5875C210.774 87.448 210.8 87.2822 210.764 87.1239C210.729 86.9656 210.634 86.8269 210.5 86.736Z" fill="#FA965B"/>
<path d="M208.604 95.4C208.778 96.036 212.282 100.2 215.048 99C216.074 98.562 215.69 95.202 215.69 95.202L216.788 89.334L209.3 84.924C209.3 84.924 208.532 95.112 208.604 95.4Z" fill="#D3766A"/>
<path d="M209.042 88.728C209.681 90.1544 210.605 91.4342 211.759 92.4881C212.913 93.5419 214.272 94.3472 215.75 94.854L216.788 89.31L209.3 84.924C209.3 84.924 209.192 86.646 209.042 88.728Z" fill="#263238"/>
<path d="M222.2 79.938C223.964 89.538 218.402 91.704 216.326 92.082C214.442 92.424 207.98 93.354 205.232 83.97C202.484 74.586 206.402 70.716 210.668 69.702C214.934 68.688 220.436 70.314 222.2 79.938Z" fill="#D3766A"/>
<path d="M219.416 79.158C219.188 79.158 218.978 79.11 218.75 79.086C218.51 79.0934 218.274 79.0218 218.078 78.882C218.024 78.8264 217.99 78.7539 217.982 78.6764C217.974 78.599 217.993 78.5212 218.036 78.456C218.135 78.3396 218.264 78.252 218.408 78.2024C218.553 78.1527 218.708 78.143 218.858 78.174C219.174 78.1857 219.474 78.3164 219.698 78.54C219.746 78.5939 219.776 78.6604 219.787 78.7315C219.797 78.8025 219.787 78.8751 219.757 78.9405C219.728 79.0058 219.679 79.0612 219.619 79.0998C219.558 79.1384 219.488 79.1586 219.416 79.158Z" fill="#263238"/>
<path d="M212.828 79.908C213.046 79.8518 213.26 79.7837 213.47 79.704C213.701 79.6587 213.911 79.541 214.07 79.368C214.111 79.3034 214.129 79.2269 214.122 79.1508C214.114 79.0746 214.081 79.0032 214.028 78.948C213.907 78.8526 213.762 78.7913 213.609 78.7702C213.456 78.7491 213.301 78.7691 213.158 78.828C212.854 78.907 212.589 79.0949 212.414 79.356C212.376 79.4195 212.357 79.493 212.361 79.567C212.365 79.6411 212.39 79.7124 212.435 79.7717C212.479 79.8311 212.54 79.8757 212.611 79.9C212.681 79.9243 212.756 79.9271 212.828 79.908Z" fill="#263238"/>
<path d="M214.466 82.23C214.466 82.23 214.418 82.266 214.418 82.29C214.526 82.95 214.532 83.724 213.962 84.018C213.962 84.018 213.962 84.06 213.962 84.054C214.7 83.862 214.7 82.836 214.466 82.23Z" fill="#263238"/>
<path d="M213.788 81.6C212.714 81.648 212.894 83.79 213.89 83.748C214.886 83.706 214.7 81.6 213.788 81.6Z" fill="#263238"/>
<path d="M213.38 81.762C213.2 81.894 213.038 82.128 212.81 82.17C212.582 82.212 212.336 82.008 212.15 81.804C212.15 81.804 212.108 81.804 212.114 81.804C212.144 82.218 212.336 82.62 212.78 82.65C213.224 82.68 213.446 82.284 213.512 81.858C213.5 81.81 213.446 81.702 213.38 81.762Z" fill="#263238"/>
<path d="M218.378 81.714C218.378 81.714 218.432 81.714 218.432 81.768C218.432 82.434 218.612 83.19 219.23 83.364V83.406C218.486 83.358 218.3 82.35 218.378 81.714Z" fill="#263238"/>
<path d="M218.9 81C219.962 80.838 220.208 82.974 219.224 83.124C218.24 83.274 218.03 81.108 218.9 81Z" fill="#263238"/>
<path d="M219.38 81.06C219.56 81.156 219.752 81.342 219.98 81.33C220.208 81.318 220.364 81.072 220.484 80.832H220.52C220.58 81.24 220.52 81.678 220.112 81.804C219.704 81.93 219.458 81.6 219.314 81.204C219.26 81.15 219.308 81 219.38 81.06Z" fill="#263238"/>
<path d="M215.084 87.756C215.24 87.912 215.402 88.128 215.642 88.152C215.889 88.152 216.133 88.0966 216.356 87.99C216.356 87.99 216.398 87.99 216.386 88.026C216.289 88.155 216.16 88.2558 216.011 88.318C215.862 88.3802 215.7 88.4016 215.54 88.38C215.403 88.3431 215.281 88.2663 215.188 88.1595C215.095 88.0526 215.036 87.9205 215.018 87.78C215.017 87.7719 215.019 87.7637 215.023 87.7568C215.027 87.7498 215.034 87.7445 215.042 87.7417C215.049 87.7389 215.058 87.7388 215.065 87.7414C215.073 87.744 215.08 87.7492 215.084 87.756Z" fill="#263238"/>
<path d="M217.748 85.08C217.844 85.562 217.914 86.0487 217.958 86.538C217.958 86.58 217.85 86.61 217.694 86.622C217.295 86.7141 216.878 86.6952 216.489 86.5672C216.099 86.4392 215.753 86.2071 215.486 85.896C215.45 85.854 215.486 85.8 215.552 85.83C216.171 86.2065 216.894 86.3747 217.616 86.31C217.646 86.178 217.238 84.63 217.316 84.618C217.681 84.6339 218.042 84.6985 218.39 84.81C218.06 82.74 217.406 80.742 217.106 78.678C217.106 78.606 217.202 78.576 217.226 78.642C218.002 80.7665 218.563 82.9635 218.9 85.2C218.9 85.458 217.94 85.152 217.748 85.08Z" fill="#263238"/>
<path d="M217.556 86.4C217.335 86.7919 217.017 87.1204 216.632 87.354C216.416 87.4716 216.169 87.5197 215.924 87.492C215.39 87.432 215.324 86.964 215.324 86.55C215.346 86.3291 215.394 86.1116 215.468 85.902C216.092 86.2882 216.825 86.4629 217.556 86.4Z" fill="#263238"/>
<path d="M216.632 87.348C216.416 87.4656 216.169 87.5137 215.924 87.486C215.39 87.426 215.324 86.9581 215.324 86.5441C215.602 86.5041 215.884 86.5626 216.123 86.7095C216.362 86.8564 216.542 87.0823 216.632 87.348Z" fill="#FF9ABB"/>
<path d="M215.084 72.186C215.307 73.029 215.271 73.9194 214.982 74.742C213.956 76.956 211.304 76.392 210.41 77.274C209.516 78.156 209.882 79.788 209.12 80.61C208.07 81.75 206.618 81.318 206.45 82.086C206.282 82.854 206.414 84.486 205.454 84.78C204.494 85.074 199.52 69.666 212.462 69.414C213.805 69.3091 215.157 69.4556 216.446 69.846C220.136 70.89 221.51 77.112 221.51 77.112C221.042 77.1363 220.577 77.017 220.178 76.77C219.578 76.23 219.326 75.732 218.876 75.39C218.168 74.844 217.784 75.054 217.076 74.526C216.273 73.8765 215.597 73.083 215.084 72.186Z" fill="#263238"/>
<path d="M214.886 71.484C215.088 72.1131 215.217 72.7634 215.27 73.422C215.357 74.0632 215.27 74.7161 215.018 75.312C214.691 75.854 214.18 76.2606 213.578 76.458C212.978 76.68 212.318 76.752 211.67 77.016C211.338 77.152 211.048 77.3735 210.83 77.658C210.645 77.9562 210.522 78.289 210.47 78.636C210.403 79.2755 210.165 79.885 209.78 80.4C209.569 80.6371 209.309 80.825 209.018 80.9505C208.726 81.0759 208.411 81.1358 208.094 81.126C207.458 81.126 206.756 80.958 206.132 81.246C206.774 81.012 207.428 81.246 208.088 81.282C208.432 81.3073 208.778 81.2564 209.101 81.133C209.423 81.0096 209.715 80.8167 209.954 80.568C210.394 80.0365 210.67 79.3879 210.746 78.702C210.797 78.393 210.91 78.0973 211.076 77.832C211.263 77.5936 211.512 77.411 211.796 77.304C212.396 77.052 213.044 76.968 213.674 76.704C213.998 76.5838 214.302 76.4137 214.574 76.2C214.857 75.9935 215.084 75.7191 215.234 75.402C215.48 74.7598 215.544 74.0623 215.42 73.386C215.314 72.7341 215.134 72.0961 214.886 71.484Z" fill="#263238"/>
<path d="M215.132 72.06C215.255 72.6658 215.456 73.2528 215.732 73.806C216.013 74.3851 216.457 74.869 217.01 75.198C217.291 75.3363 217.584 75.4468 217.886 75.528C218.154 75.6123 218.393 75.7703 218.576 75.984C218.734 76.2503 218.919 76.4996 219.128 76.728C219.359 76.9426 219.636 77.1008 219.938 77.19C219.67 77.0514 219.433 76.8595 219.242 76.626C219.062 76.3811 218.905 76.12 218.774 75.846C218.581 75.5693 218.306 75.3596 217.988 75.246C217.705 75.1611 217.43 75.0506 217.166 74.916C216.666 74.6125 216.252 74.1847 215.966 73.674C215.653 73.1549 215.374 72.6157 215.132 72.06Z" fill="#263238"/>
<path d="M207.182 84C207.182 84 204.626 81.288 203.366 82.248C202.106 83.208 204.344 87.348 206.042 87.708C206.256 87.7693 206.481 87.7867 206.702 87.7591C206.923 87.7315 207.137 87.6595 207.329 87.5474C207.522 87.4354 207.69 87.2856 207.824 87.107C207.957 86.9284 208.053 86.7246 208.106 86.508L207.182 84Z" fill="#D3766A"/>
<path d="M204.038 83.436C204.008 83.436 204.038 83.472 204.038 83.478C205.238 83.772 205.988 84.726 206.564 85.752C206.481 85.6487 206.377 85.5646 206.259 85.5052C206.141 85.4459 206.011 85.4129 205.879 85.4083C205.747 85.4037 205.615 85.4278 205.493 85.4788C205.371 85.5299 205.262 85.6067 205.172 85.704C205.172 85.704 205.172 85.77 205.214 85.758C205.403 85.666 205.616 85.635 205.824 85.6694C206.031 85.7038 206.223 85.8019 206.372 85.95C206.624 86.1956 206.848 86.4694 207.038 86.766C207.104 86.856 207.278 86.766 207.224 86.664C207.02 85.2 205.604 83.352 204.038 83.436Z" fill="#263238"/>
<path d="M219.572 98.58L213.314 115.278C213.074 115.764 213.278 116.202 213.776 116.256L222.638 117.252C222.911 117.261 223.182 117.194 223.418 117.057C223.655 116.92 223.848 116.719 223.976 116.478L230.234 99.78C230.305 99.6922 230.35 99.5861 230.364 99.4739C230.377 99.3617 230.359 99.2479 230.311 99.1457C230.262 99.0435 230.186 98.957 230.091 98.8962C229.996 98.8354 229.885 98.8027 229.772 98.802L220.904 97.8C220.631 97.7909 220.361 97.8593 220.125 97.9974C219.89 98.1354 219.698 98.3374 219.572 98.58Z" fill="#37474F"/>
<path d="M220.622 98.694L214.364 115.386C214.293 115.474 214.248 115.58 214.234 115.692C214.221 115.804 214.239 115.918 214.287 116.02C214.336 116.123 214.412 116.209 214.507 116.27C214.602 116.331 214.713 116.363 214.826 116.364L223.7 117.36C223.972 117.37 224.242 117.302 224.478 117.165C224.713 117.028 224.906 116.827 225.032 116.586L231.29 99.888C231.53 99.402 231.326 98.964 230.828 98.91L221.96 97.914C221.686 97.9045 221.415 97.9727 221.178 98.1107C220.942 98.2488 220.749 98.451 220.622 98.694Z" fill="#455A64"/>
<path d="M222.968 99.75C222.949 99.8997 222.886 100.04 222.786 100.154C222.687 100.268 222.556 100.35 222.411 100.389C222.265 100.428 222.111 100.423 221.968 100.375C221.825 100.327 221.7 100.237 221.608 100.117C221.516 99.9974 221.462 99.8531 221.452 99.7025C221.442 99.5519 221.477 99.4018 221.553 99.2712C221.629 99.1406 221.741 99.0354 221.877 98.969C222.012 98.9025 222.164 98.8778 222.314 98.898C222.413 98.9106 222.509 98.9426 222.595 98.9924C222.682 99.0421 222.758 99.1085 222.819 99.1877C222.879 99.2669 222.924 99.3574 222.95 99.4539C222.975 99.5504 222.981 99.6511 222.968 99.75Z" fill="#263238"/>
<path d="M188.132 139.728C192.05 139.914 196.604 136.464 208.298 126.198C209.912 124.782 202.958 110.67 201.152 112.098C198.878 113.898 190.442 121.368 189.896 121.992C185.3 127.26 185.474 139.602 188.132 139.728Z" fill="#D3766A"/>
<path d="M197.084 116.922C197.084 116.922 200.198 111.6 202.694 109.308C205.356 106.995 208.539 105.36 211.97 104.544C215.672 103.656 225.236 104.058 225.602 106.836C225.932 109.344 216.176 108.438 216.176 108.438C216.176 108.438 226.274 107.724 226.112 110.838C225.95 113.952 214.7 112.2 214.7 112.2C214.7 112.2 225.092 111.696 224.42 114.864C223.916 117.264 213.62 116.298 213.62 116.298C213.62 116.298 222.554 115.926 222.14 118.41C221.684 121.158 212.132 120.864 212.132 120.864C210.014 127.002 206.498 129.06 203.816 130.224C203.168 130.524 197.084 116.922 197.084 116.922Z" fill="#D3766A"/>
<path d="M212.666 108.462C213.866 108.336 215.066 108.198 216.236 108.174C217.406 108.15 218.636 108.174 219.806 108.264C221.359 108.355 222.896 108.618 224.39 109.05C221.684 108.45 217.424 108.48 216.23 108.504C215.036 108.528 213.83 108.504 212.666 108.504V108.462Z" fill="#263238"/>
<path d="M212.666 112.764C214.184 112.668 215.666 112.512 217.208 112.482C218.75 112.452 220.166 112.56 221.678 112.632C221.792 112.632 221.756 112.698 221.636 112.698C220.124 112.698 218.72 112.788 217.202 112.794C215.684 112.8 214.172 112.74 212.666 112.794V112.764Z" fill="#263238"/>
<path d="M212 116.454C214.325 116.248 216.666 116.282 218.984 116.556C219.098 116.556 219.038 116.64 218.918 116.64C216.596 116.556 214.778 116.478 212.012 116.532C211.97 116.532 211.952 116.46 212 116.454Z" fill="#263238"/>
<path d="M186.41 131.286C186.55 128.476 187.354 125.739 188.756 123.3C191.414 119.832 195.638 116.664 198.884 113.73C199.866 111.992 201.131 110.431 202.628 109.11C204.122 107.757 205.876 106.722 207.782 106.068C205.94 106.831 204.255 107.93 202.814 109.308C201.36 110.691 200.122 112.285 199.142 114.036C195.95 116.988 191.756 120.138 189.032 123.498C187.606 125.879 186.712 128.539 186.41 131.298V131.286Z" fill="#263238"/>
<path d="M171.908 64.8C172.169 67.3012 173.12 69.6806 174.655 71.6726C176.189 73.6647 178.248 75.1909 180.6 76.0809C182.952 76.9709 185.505 77.1896 187.974 76.7127C190.443 76.2358 192.731 75.0819 194.582 73.38L201.368 74.4L197.972 68.532C198.823 66.4659 199.145 64.22 198.908 61.998C198.533 58.4176 196.752 55.1327 193.955 52.8659C191.158 50.5992 187.575 49.5363 183.995 49.911C180.415 50.2858 177.13 52.0675 174.863 54.8642C172.596 57.6609 171.533 61.2436 171.908 64.824V64.8Z" fill="white"/>
<path d="M175.97 53.586C178.226 51.3885 181.17 50.0351 184.307 49.7535C187.444 49.4719 190.582 50.2794 193.193 52.04C195.804 53.8006 197.73 56.4069 198.645 59.4204C199.56 62.4338 199.409 65.6706 198.218 68.586V68.352L201.596 74.232L201.848 74.67L201.356 74.592L194.57 73.548L194.732 73.5C192.846 75.2087 190.521 76.3578 188.018 76.818C187.398 76.933 186.77 76.9972 186.14 77.01C185.512 77.0431 184.882 77.031 184.256 76.974C183.004 76.8545 181.774 76.5617 180.602 76.104C179.431 75.6613 178.328 75.0553 177.326 74.304C176.823 73.9368 176.346 73.5359 175.898 73.104C175.458 72.6592 175.047 72.1862 174.668 71.688C172.634 69.0357 171.644 65.7287 171.887 62.3949C172.131 59.0611 173.59 55.9328 175.988 53.604L175.97 53.586ZM174.686 71.64C175.437 72.6387 176.337 73.5151 177.356 74.238C178.353 74.9834 179.455 75.5778 180.626 76.002C181.793 76.4345 183.015 76.7031 184.256 76.8C184.873 76.842 185.493 76.842 186.11 76.8C186.729 76.7721 187.345 76.6959 187.952 76.572C190.388 76.0838 192.639 74.9241 194.45 73.224L194.516 73.164H194.612L201.404 74.118L201.164 74.472L197.744 68.616L197.684 68.508L197.732 68.382C198.484 66.5071 198.81 64.4884 198.686 62.472C198.552 60.4527 197.963 58.4898 196.964 56.73C195.947 54.977 194.561 53.4661 192.902 52.302C191.228 51.1458 189.311 50.3885 187.298 50.088C184.64 49.6792 181.92 50.0789 179.491 51.2353C177.063 52.3916 175.038 54.2513 173.679 56.5728C172.321 58.8943 171.692 61.5705 171.874 64.2541C172.055 66.9377 173.039 69.5047 174.698 71.622L174.686 71.64Z" fill="#263238"/>
<path d="M183.914 71.118L178.112 65.25L180.062 63.33L183.446 66.756L190.484 55.728L192.788 57.198L183.914 71.118Z" fill="#FA965B"/>
<path d="M139.196 276.336H74.5281L83.9601 210.462H129.77L139.196 276.336Z" fill="#37474F"/>
<path d="M129.764 210.462L122.582 276.336H139.196L129.764 210.462Z" fill="#455A64"/>
<path d="M96.86 215.004L94.838 214.578C94.838 214.518 96.038 208.986 97.274 203.4C98.63 197.364 104.57 194.586 109.532 195.384C113.246 195.984 117.362 198.882 116.732 205.074C116.066 211.674 115.532 214.824 115.532 214.956L113.492 214.626C113.492 214.626 114.008 211.422 114.662 204.87C115.136 200.112 112.142 197.904 109.178 197.424C105.164 196.776 100.358 199.002 99.266 203.85C98.042 209.4 96.872 214.95 96.86 215.004Z" fill="#263238"/>
<path d="M123.458 275.832C124.784 274.884 126.164 274.032 127.538 273.15C128.912 272.268 130.316 271.47 131.738 270.666L131.93 270.552L132.11 270.684C133.202 271.506 134.294 272.328 135.356 273.192C136.418 274.056 137.486 274.908 138.506 275.826C137.306 275.118 136.19 274.362 135.062 273.588C133.934 272.814 132.812 272.034 131.708 271.23H132.074C130.676 272.052 129.254 272.844 127.826 273.63C126.398 274.416 124.94 275.154 123.458 275.832Z" fill="white"/>
<path d="M131.9 270.96C131.618 266.76 131.408 262.56 131.21 258.36C131.012 254.16 130.868 249.96 130.7 245.76C130.532 241.56 130.436 237.36 130.346 233.16L130.232 226.8C130.232 224.7 130.178 222.6 130.184 220.488C130.334 222.588 130.436 224.688 130.568 226.788L130.88 233.094C131.078 237.294 131.216 241.494 131.384 245.694C131.552 249.894 131.648 254.094 131.732 258.294C131.816 262.494 131.9 266.748 131.9 270.96Z" fill="white"/>
<path d="M98.594 214.8C98.5952 215.344 98.4349 215.876 98.1334 216.329C97.8319 216.782 97.4028 217.135 96.9004 217.344C96.398 217.552 95.845 217.607 95.3114 217.501C94.7778 217.396 94.2876 217.134 93.9029 216.749C93.5182 216.364 93.2564 215.874 93.1505 215.341C93.0447 214.807 93.0996 214.254 93.3084 213.752C93.5171 213.249 93.8702 212.82 94.3231 212.519C94.7759 212.217 95.308 212.057 95.852 212.058C96.5788 212.06 97.2753 212.349 97.7892 212.863C98.303 213.377 98.5924 214.073 98.594 214.8Z" fill="#263238"/>
<path d="M117.068 214.8C117.069 215.344 116.909 215.876 116.607 216.329C116.306 216.782 115.877 217.135 115.374 217.344C114.872 217.552 114.319 217.607 113.785 217.501C113.252 217.396 112.762 217.134 112.377 216.749C111.992 216.364 111.73 215.874 111.625 215.341C111.519 214.807 111.574 214.254 111.782 213.752C111.991 213.249 112.344 212.82 112.797 212.519C113.25 212.217 113.782 212.057 114.326 212.058C115.053 212.06 115.749 212.349 116.263 212.863C116.777 213.377 117.066 214.073 117.068 214.8Z" fill="#263238"/>
<path d="M106.076 276.336H49.826L58.028 219.036H97.874L106.076 276.336Z" fill="#FA965B"/>
<path d="M97.8741 219.036L91.6221 276.336H106.076L97.8741 219.036Z" fill="#FA965B"/>
<path opacity="0.1" d="M97.8741 219.036L91.6221 276.336H106.076L97.8741 219.036Z" fill="black"/>
<path d="M69.254 222.99L67.49 222.618C67.49 222.57 68.522 217.752 69.614 212.898C70.814 207.642 75.956 205.23 80.27 205.926C83.504 206.448 87.086 208.968 86.546 214.326C85.946 220.092 85.526 222.81 85.508 222.924L83.708 222.636C83.708 222.606 84.152 219.852 84.728 214.152C85.142 210.012 82.532 208.092 79.928 207.672C76.442 207.108 72.26 209.046 71.312 213.264C70.28 218.136 69.26 222.942 69.254 222.99Z" fill="#263238"/>
<path d="M92.384 275.898C93.542 275.076 94.736 274.32 95.936 273.57C97.136 272.82 98.336 272.1 99.584 271.404L99.752 271.308L99.902 271.422C100.856 272.136 101.804 272.85 102.728 273.6C103.652 274.35 104.582 275.094 105.47 275.892C104.45 275.292 103.454 274.62 102.47 273.948C101.486 273.276 100.514 272.592 99.554 271.896H99.878C98.678 272.61 97.424 273.3 96.176 273.972C94.928 274.644 93.674 275.31 92.384 275.898Z" fill="white"/>
<path d="M99.728 271.656C99.482 268.002 99.296 264.348 99.128 260.694C98.96 257.04 98.834 253.38 98.684 249.72C98.534 246.06 98.456 242.406 98.378 238.746L98.276 233.256C98.276 231.426 98.228 229.596 98.234 227.766C98.366 229.566 98.456 231.42 98.57 233.244L98.84 238.728C99.014 242.388 99.134 246.042 99.284 249.702C99.434 253.362 99.512 257.016 99.584 260.676C99.656 264.336 99.728 267.996 99.728 271.656Z" fill="white"/>
<path d="M70.7601 222.804C70.7601 223.279 70.6193 223.743 70.3556 224.137C70.0919 224.532 69.7171 224.84 69.2785 225.021C68.84 225.203 68.3574 225.25 67.8919 225.158C67.4263 225.065 66.9987 224.837 66.663 224.501C66.3274 224.165 66.0988 223.738 66.0062 223.272C65.9136 222.807 65.9611 222.324 66.1428 221.886C66.3244 221.447 66.632 221.072 67.0267 220.808C67.4214 220.545 67.8854 220.404 68.3601 220.404C68.9966 220.404 69.6071 220.657 70.0571 221.107C70.5072 221.557 70.7601 222.167 70.7601 222.804Z" fill="#263238"/>
<path d="M86.8281 222.804C86.8281 223.279 86.6873 223.743 86.4236 224.137C86.1599 224.532 85.7851 224.84 85.3465 225.021C84.908 225.203 84.4254 225.25 83.9599 225.158C83.4943 225.065 83.0667 224.837 82.731 224.501C82.3954 224.165 82.1668 223.738 82.0742 223.272C81.9816 222.807 82.0291 222.324 82.2108 221.886C82.3924 221.447 82.7 221.072 83.0947 220.808C83.4894 220.545 83.9534 220.404 84.4281 220.404C85.0646 220.404 85.675 220.657 86.1251 221.107C86.5752 221.557 86.8281 222.167 86.8281 222.804Z" fill="#263238"/>
</svg>
