<svg width="28" height="28" viewBox="0 0 28 28" fill="none" xmlns="http://www.w3.org/2000/svg">
<path fill-rule="evenodd" clip-rule="evenodd" d="M13.3544 3.17936C12.5787 2.7915 11.666 3.35558 11.666 4.22286V7.00182C11.666 7.64615 12.1884 8.16849 12.8327 8.16849H15.166C15.8104 8.16849 16.3327 7.64615 16.3327 7.00182V5.38953C16.3327 4.94763 16.083 4.54365 15.6878 4.34603L13.3544 3.17936ZM10.9955 11.0852H17.0032C17.8284 11.0852 18.5415 11.6617 18.7144 12.4685L20.7144 21.8019C20.9478 22.8913 20.1174 23.9185 19.0032 23.9185H8.99548C7.88135 23.9185 7.05088 22.8913 7.28432 21.8019L9.28432 12.4685C9.45722 11.6617 10.1703 11.0852 10.9955 11.0852ZM7.57317 12.1019C7.91897 10.4881 9.34509 9.33521 10.9955 9.33521H17.0032C18.6536 9.33521 20.0797 10.4881 20.4255 12.1019L22.4255 21.4352C22.8924 23.614 21.2315 25.6685 19.0032 25.6685H8.99548C6.76722 25.6685 5.10628 23.614 5.57317 21.4352L7.57317 12.1019Z" fill="#DFDC27"/>
</svg>
