<svg width="53" height="51" viewBox="0 0 53 51" fill="none" xmlns="http://www.w3.org/2000/svg">
<path d="M31.0287 0.254395C31.0764 0.256396 31.1245 0.255319 31.1719 0.2604C31.6582 0.313365 32.1404 0.63101 32.558 0.872897C34.6638 2.09265 52.4314 13.3827 52.8236 13.969C52.9179 14.1097 52.854 14.1677 52.8115 14.3156C52.6982 14.3888 52.7005 14.3949 52.5505 14.4477C52.0549 14.6227 50.9983 14.5591 50.5043 14.3821C48.6556 13.7194 46.8194 12.2721 45.1597 11.2226L36.6001 5.78269C34.8335 4.63746 33.1019 3.39908 31.2773 2.34993C28.8039 3.54905 26.4389 5.32432 24.1251 6.82368L12.5217 14.2075L13.5546 17.862C16.895 17.9491 20.2476 17.8914 23.5892 17.8928L39.5369 17.8983L46.5015 17.8701C47.8249 17.8653 49.1935 17.7965 50.5126 17.9031C51.168 17.9559 51.9845 18.1286 52.5084 18.5513C52.8344 18.8146 52.9269 19.0155 52.9691 19.4294C53.0287 20.0145 52.9927 20.6263 52.9162 21.208C52.6414 23.2953 49.5939 39.7631 48.9778 40.5036C48.6151 40.9396 48.1633 41.0953 47.6299 41.2345C46.2048 41.6066 44.5812 41.6577 43.1147 41.8374L33.3186 43.003L23.017 44.2569C21.8092 44.3999 19.8556 44.3576 18.811 44.7921C18.6633 44.9976 18.6196 45.2218 18.5837 45.4686C18.5288 45.8471 18.5902 46.23 18.8578 46.5198C19.2289 46.9216 19.8749 47.0136 20.3898 47.0448C22.2759 47.1595 24.3243 46.7937 26.2092 46.6379C30.955 46.2457 35.7115 45.933 40.4696 45.7369C42.4149 45.6566 44.5079 45.402 46.4367 45.6902C47.106 45.7903 48.1117 46.0339 48.493 46.6602C48.702 47.0034 48.7241 47.4042 48.643 47.7934C48.5086 48.4392 48.0015 48.724 47.496 49.0662C42.2358 49.1612 37.0194 49.3022 31.768 49.6729C28.174 49.9267 24.2393 50.5609 20.6641 50.4235C19.3916 50.3746 18.0339 50.1697 16.9261 49.5011C16.0317 48.9613 15.412 48.1399 15.1848 47.1155C14.7832 45.3033 15.402 43.6051 16.3342 42.0784C15.6981 40.3545 15.2161 38.5629 14.6894 36.8027L12.1911 28.4757C10.8808 24.0988 9.191 19.2195 8.21361 14.8089C6.7476 14.7547 5.27605 14.8625 3.81343 14.7941C2.96782 14.7545 1.92792 14.6058 1.35202 13.914C0.932831 13.4102 0.925905 12.7535 1.00919 12.1326C1.11572 11.3382 1.68455 10.9338 2.26461 10.4669C4.62888 10.3214 7.20174 10.3059 9.56663 10.4555C11.5757 10.5829 10.9983 11.0345 12.0727 12.2561C13.8724 11.4705 16.0369 9.80285 17.7435 8.69688C22.1289 5.85444 26.5114 2.87681 31.0287 0.254395Z" fill="black"/>
</svg>
