<svg width="23" height="18" viewBox="0 0 23 18" fill="none" xmlns="http://www.w3.org/2000/svg">
<path d="M22.7524 9.00854C22.7571 10.7946 22.1776 12.5333 21.1024 13.9595C21.0431 14.0383 20.969 14.1046 20.8841 14.1548C20.7993 14.2049 20.7053 14.2378 20.6078 14.2517C20.5102 14.2655 20.4108 14.26 20.3154 14.2354C20.2199 14.2109 20.1302 14.1678 20.0514 14.1085C19.9726 14.0493 19.9063 13.9752 19.8561 13.8903C19.806 13.8054 19.7731 13.7115 19.7592 13.6139C19.7454 13.5164 19.7509 13.417 19.7755 13.3215C19.8 13.2261 19.8431 13.1364 19.9024 13.0576C20.7825 11.8916 21.2567 10.4694 21.2524 9.00854C21.2524 7.21833 20.5412 5.50144 19.2753 4.23557C18.0095 2.9697 16.2926 2.25854 14.5024 2.25854C12.7121 2.25854 10.9953 2.9697 9.72938 4.23557C8.46351 5.50144 7.75235 7.21833 7.75235 9.00854C7.75235 9.20745 7.67334 9.39822 7.53268 9.53887C7.39203 9.67952 7.20127 9.75854 7.00235 9.75854C6.80344 9.75854 6.61268 9.67952 6.47202 9.53887C6.33137 9.39822 6.25235 9.20745 6.25235 9.00854C6.25199 8.25168 6.35577 7.49836 6.56079 6.76979C6.4586 6.75854 6.35548 6.75854 6.25235 6.75854C5.05888 6.75854 3.91429 7.23265 3.07037 8.07656C2.22646 8.92047 1.75236 10.0651 1.75236 11.2585C1.75236 12.452 2.22646 13.5966 3.07037 14.4405C3.91429 15.2844 5.05888 15.7585 6.25235 15.7585H8.50235C8.70127 15.7585 8.89203 15.8376 9.03268 15.9782C9.17334 16.1189 9.25235 16.3096 9.25235 16.5085C9.25235 16.7075 9.17334 16.8982 9.03268 17.0389C8.89203 17.1795 8.70127 17.2585 8.50235 17.2585H6.25235C5.42752 17.2587 4.6115 17.0888 3.85527 16.7595C3.09904 16.4302 2.41884 15.9484 1.85714 15.3444C1.29545 14.7404 0.864332 14.027 0.590715 13.2489C0.317099 12.4707 0.20686 11.6446 0.266886 10.8219C0.326911 9.99926 0.55591 9.19782 0.939581 8.46765C1.32325 7.73748 1.85335 7.09426 2.49678 6.57816C3.1402 6.06206 3.88313 5.68417 4.67916 5.46809C5.47519 5.252 6.30722 5.20237 7.12329 5.32229C7.95429 3.66025 9.32205 2.32742 11.005 1.5397C12.688 0.751968 14.5876 0.555476 16.3962 0.982046C18.2048 1.40862 19.8164 2.43327 20.97 3.89002C22.1236 5.34678 22.7516 7.15033 22.7524 9.00854ZM14.283 8.47792C14.2133 8.40818 14.1306 8.35286 14.0396 8.31512C13.9485 8.27738 13.8509 8.25795 13.7524 8.25795C13.6538 8.25795 13.5562 8.27738 13.4652 8.31512C13.3741 8.35286 13.2914 8.40818 13.2217 8.47792L10.2217 11.4779C10.152 11.5476 10.0968 11.6303 10.0591 11.7214C10.0213 11.8124 10.0019 11.91 10.0019 12.0085C10.0019 12.1071 10.0213 12.2047 10.0591 12.2957C10.0968 12.3868 10.152 12.4695 10.2217 12.5392C10.3625 12.6799 10.5533 12.759 10.7524 12.759C10.8509 12.759 10.9485 12.7395 11.0395 12.7018C11.1306 12.6641 11.2133 12.6088 11.283 12.5392L13.0024 10.8189V16.5085C13.0024 16.7075 13.0814 16.8982 13.222 17.0389C13.3627 17.1795 13.5534 17.2585 13.7524 17.2585C13.9513 17.2585 14.142 17.1795 14.2827 17.0389C14.4233 16.8982 14.5024 16.7075 14.5024 16.5085V10.8189L16.2217 12.5392C16.2914 12.6088 16.3741 12.6641 16.4652 12.7018C16.5562 12.7395 16.6538 12.759 16.7524 12.759C16.8509 12.759 16.9485 12.7395 17.0395 12.7018C17.1306 12.6641 17.2133 12.6088 17.283 12.5392C17.3527 12.4695 17.4079 12.3868 17.4457 12.2957C17.4834 12.2047 17.5028 12.1071 17.5028 12.0085C17.5028 11.91 17.4834 11.8124 17.4457 11.7214C17.4079 11.6303 17.3527 11.5476 17.283 11.4779L14.283 8.47792Z" fill="#C4C4C4"/>
</svg>
