<svg width="24" height="25" viewBox="0 0 24 25" fill="none" xmlns="http://www.w3.org/2000/svg">
<path d="M10.5507 5.84986C10.3317 6.06876 10.158 6.32866 10.0395 6.61471C9.92094 6.90076 9.85994 7.20737 9.85994 7.51701C9.85994 7.82664 9.92094 8.13325 10.0395 8.4193C10.158 8.70535 10.3317 8.96525 10.5507 9.18415L15.7021 14.3356C15.921 14.5546 16.1809 14.7283 16.467 14.8468C16.753 14.9654 17.0597 15.0264 17.3693 15.0264C17.6789 15.0264 17.9855 14.9654 18.2716 14.8468C18.5576 14.7283 18.8175 14.5546 19.0364 14.3356L19.6733 13.6979C20.7201 12.6513 21.3432 11.2547 21.4226 9.77659C21.502 8.29846 21.0322 6.84315 20.1036 5.69043L22.0973 3.69501C22.1569 3.63524 22.2042 3.5643 22.2365 3.48625C22.2687 3.4082 22.2853 3.32456 22.2852 3.24011C22.2851 3.15567 22.2684 3.07206 22.236 2.99407C22.2036 2.91608 22.1562 2.84523 22.0964 2.78558C22.0367 2.72592 21.9657 2.67862 21.8877 2.64637C21.8096 2.61413 21.726 2.59758 21.6415 2.59766C21.5571 2.59774 21.4735 2.61445 21.3955 2.64684C21.3175 2.67923 21.2467 2.72666 21.187 2.78643L19.195 4.78186C18.0424 3.85344 16.5872 3.38381 15.1093 3.46323C13.6314 3.54266 12.2349 4.16554 11.1884 5.21215L10.5507 5.84986ZM13.4513 16.583C13.8933 17.0251 14.1416 17.6246 14.1416 18.2497C14.1416 18.8749 13.8933 19.4744 13.4513 19.9164L12.8136 20.5541C11.7672 21.6006 10.371 22.2235 8.8933 22.3031C7.41557 22.3827 5.96055 21.9134 4.80786 20.9853L2.815 22.9799C2.75535 23.0396 2.6845 23.0871 2.60651 23.1195C2.52852 23.1518 2.44491 23.1686 2.36047 23.1686C2.27602 23.1687 2.19238 23.1522 2.11433 23.1199C2.03628 23.0877 1.96534 23.0404 1.90557 22.9807C1.8458 22.9211 1.79837 22.8502 1.76598 22.7722C1.73359 22.6942 1.71688 22.6106 1.7168 22.5262C1.71672 22.4417 1.73327 22.3581 1.76552 22.28C1.79776 22.202 1.84506 22.1311 1.90472 22.0713L3.89843 20.0759C2.97001 18.9232 2.50038 17.4681 2.5798 15.9901C2.65923 14.5122 3.28211 13.1158 4.32872 12.0693L4.96643 11.4307C5.40848 10.9887 6.00801 10.7404 6.63315 10.7404C7.25828 10.7404 7.85781 10.9887 8.29986 11.4307L13.4513 16.583Z" fill="#F47123"/>
</svg>
