<svg width="12" height="14" viewBox="0 0 12 14" fill="none" xmlns="http://www.w3.org/2000/svg">
<path fill-rule="evenodd" clip-rule="evenodd" d="M11.5247 2.49401C11.7841 2.49401 12 2.70934 12 2.98334V3.23667C12 3.504 11.7841 3.726 11.5247 3.726H0.475902C0.215907 3.726 0 3.504 0 3.23667V2.98334C0 2.70934 0.215907 2.49401 0.475902 2.49401H2.41971C2.81457 2.49401 3.1582 2.21335 3.24703 1.81735L3.34882 1.36269C3.50702 0.74336 4.02766 0.332031 4.62351 0.332031H7.37649C7.96585 0.332031 8.49233 0.74336 8.64469 1.33002L8.75362 1.81668C8.8418 2.21335 9.18543 2.49401 9.58094 2.49401H11.5247ZM10.5372 11.7547C10.7402 9.8634 11.0955 5.37011 11.0955 5.32478C11.1084 5.18745 11.0637 5.05745 10.9749 4.95278C10.8796 4.85479 10.759 4.79679 10.626 4.79679H1.37901C1.24545 4.79679 1.11837 4.85479 1.03019 4.95278C0.940717 5.05745 0.896628 5.18745 0.903112 5.32478C0.904303 5.33311 0.917053 5.49139 0.938368 5.756C1.03306 6.9315 1.29678 10.2055 1.46719 11.7547C1.58779 12.896 2.33665 13.6134 3.42137 13.6394C4.25842 13.6587 5.12075 13.6654 6.00253 13.6654C6.83309 13.6654 7.67662 13.6587 8.53959 13.6394C9.66192 13.62 10.4101 12.9154 10.5372 11.7547Z" fill="#F47123"/>
</svg>
