<svg width="12" height="12" viewBox="0 0 12 12" fill="none" xmlns="http://www.w3.org/2000/svg">
<path fill-rule="evenodd" clip-rule="evenodd" d="M6.00045 8.512C5.93147 8.512 5.86643 8.49489 5.80926 8.46466C5.79078 8.4549 5.773 8.4437 5.75612 8.43112C5.73576 8.41599 5.71682 8.39901 5.69955 8.38044L4.1046 6.7656C3.94401 6.6025 3.94456 6.339 4.10571 6.177C4.26741 6.015 4.52811 6.015 4.6887 6.1781L5.58795 7.08893V1.41607C5.58795 1.1864 5.77275 1 6.00045 1C6.22815 1 6.41295 1.1864 6.41295 1.41607V7.08894L7.3122 6.1781C7.4728 6.015 7.7335 6.015 7.8952 6.177C8.05635 6.339 8.0569 6.6025 7.8963 6.7656L6.30136 8.38043C6.28409 8.39901 6.26515 8.41599 6.24478 8.43112C6.17637 8.48195 6.09187 8.512 6.00045 8.512ZM2.93925 11.25H9.06625C10.4077 11.25 11.5 10.1488 11.5 8.7952V6.08575C11.5 4.72937 10.4061 3.6254 9.0613 3.6254H8.5487C8.321 3.6254 8.1362 3.81179 8.1362 4.04147C8.1362 4.27114 8.321 4.45754 8.5487 4.45754H9.0613C9.95065 4.45754 10.675 5.1876 10.675 6.08575V8.7952C10.675 9.68945 9.95285 10.4179 9.06625 10.4179H2.93925C2.0488 10.4179 1.325 9.6878 1.325 8.78965V6.07965C1.325 5.18482 2.0466 4.45754 2.9343 4.45754H3.45185C3.67955 4.45754 3.86435 4.27114 3.86435 4.04147C3.86435 3.81179 3.67955 3.6254 3.45185 3.6254H2.9343C1.59175 3.6254 0.5 4.72604 0.5 6.07965V8.78965C0.5 10.1466 1.5945 11.25 2.93925 11.25Z" fill="#004EF1"/>
</svg>
