<svg width="16" height="16" viewBox="0 0 16 16" fill="none" xmlns="http://www.w3.org/2000/svg">
<path d="M14 14.668H2C1.72667 14.668 1.5 14.4413 1.5 14.168C1.5 13.8946 1.72667 13.668 2 13.668H14C14.2733 13.668 14.5 13.8946 14.5 14.168C14.5 14.4413 14.2733 14.668 14 14.668Z" fill="#F47123"/>
<path d="M12.68 2.31848C11.3867 1.02514 10.12 0.991811 8.79334 2.31848L7.98668 3.12514C7.92001 3.19181 7.89334 3.29848 7.92001 3.39181C8.42668 5.15848 9.84001 6.57181 11.6067 7.07848C11.6333 7.08514 11.66 7.09181 11.6867 7.09181C11.76 7.09181 11.8267 7.06514 11.88 7.01181L12.68 6.20514C13.34 5.55181 13.66 4.91848 13.66 4.27848C13.6667 3.61848 13.3467 2.97848 12.68 2.31848Z" fill="#F47123"/>
<path d="M10.4067 7.68849C10.2133 7.59516 10.0267 7.50182 9.84668 7.39516C9.70001 7.30849 9.56001 7.21516 9.42001 7.11516C9.30668 7.04182 9.17334 6.93516 9.04668 6.82849C9.03334 6.82182 8.98668 6.78182 8.93334 6.72849C8.71334 6.54182 8.46668 6.30182 8.24668 6.03516C8.22668 6.02182 8.19334 5.97516 8.14668 5.91516C8.08001 5.83516 7.96668 5.70182 7.86668 5.54849C7.78668 5.44849 7.69334 5.30182 7.60668 5.15516C7.50001 4.97516 7.40668 4.79516 7.31334 4.60849C7.19097 4.34626 6.8468 4.26836 6.64218 4.47298L2.89334 8.22182C2.80668 8.30849 2.72668 8.47516 2.70668 8.58849L2.34668 11.1418C2.28001 11.5952 2.40668 12.0218 2.68668 12.3085C2.92668 12.5418 3.26001 12.6685 3.62001 12.6685C3.70001 12.6685 3.78001 12.6618 3.86001 12.6485L6.42001 12.2885C6.54001 12.2685 6.70668 12.1885 6.78668 12.1018L10.5417 8.3468C10.7422 8.14627 10.6669 7.80125 10.4067 7.68849Z" fill="#F47123"/>
</svg>
