<svg width="28" height="28" viewBox="0 0 28 28" fill="none" xmlns="http://www.w3.org/2000/svg">
<path fill-rule="evenodd" clip-rule="evenodd" d="M5.83268 6.41797H22.166C22.4882 6.41797 22.7493 6.67914 22.7493 7.0013V17.5013C22.7493 17.8235 22.4882 18.0846 22.166 18.0846H5.83268C5.51052 18.0846 5.24935 17.8235 5.24935 17.5013V7.0013C5.24935 6.67914 5.51052 6.41797 5.83268 6.41797ZM3.49935 7.0013C3.49935 5.71264 4.54402 4.66797 5.83268 4.66797H22.166C23.4547 4.66797 24.4994 5.71264 24.4994 7.0013V17.5013C24.4994 18.79 23.4547 19.8346 22.166 19.8346H5.83268C4.54402 19.8346 3.49935 18.79 3.49935 17.5013V7.0013ZM2.04102 21.0013C1.55777 21.0013 1.16602 21.3931 1.16602 21.8763C1.16602 22.3596 1.55777 22.7513 2.04102 22.7513H25.9577C26.4409 22.7513 26.8327 22.3596 26.8327 21.8763C26.8327 21.3931 26.4409 21.0013 25.9577 21.0013H2.04102Z" fill="#004EF1"/>
</svg>
