<svg width="24" height="20" viewBox="0 0 24 20" fill="none" xmlns="http://www.w3.org/2000/svg">
<path fill-rule="evenodd" clip-rule="evenodd" d="M12.0007 1.83203C6.33156 1.83203 3.79451 6.20336 3.56029 11.7592C3.65061 11.7523 3.74188 11.7487 3.83398 11.7487C4.47832 11.7487 5.00065 12.271 5.00065 12.9154V18.7487C5.00065 19.393 4.47832 19.9154 3.83398 19.9154C1.90099 19.9154 0.333984 18.3484 0.333984 16.4154V15.2487C0.333984 14.0772 0.909587 13.0401 1.79342 12.4048C1.86201 5.5792 5.1472 0.0820312 12.0007 0.0820312C18.8541 0.0820312 22.1393 5.5792 22.2079 12.4048C23.0917 13.0401 23.6673 14.0772 23.6673 15.2487V16.4154C23.6673 18.3484 22.1003 19.9154 20.1673 19.9154C19.523 19.9154 19.0007 19.393 19.0007 18.7487V12.9154C19.0007 12.271 19.523 11.7487 20.1673 11.7487C20.2594 11.7487 20.3507 11.7523 20.441 11.7592C20.2068 6.20336 17.6697 1.83203 12.0007 1.83203Z" fill="#01C0F6"/>
</svg>
