<svg width="28" height="28" viewBox="0 0 28 28" fill="none" xmlns="http://www.w3.org/2000/svg">
<path d="M3.08398 9.33203C3.08398 6.01333 5.6706 3.29877 8.93778 3.09439C9.715 5.13293 11.6877 6.58203 14.0007 6.58203C16.3136 6.58203 18.2863 5.13292 19.0635 3.09439C22.3307 3.29877 24.9173 6.01333 24.9173 9.33203V10.8321C24.9173 11.5225 24.3577 12.0821 23.6673 12.0821H23.0007C21.4819 12.0821 20.2507 13.3133 20.2507 14.8321V23.6654C20.2507 24.3557 19.691 24.9154 19.0007 24.9154H9.00065C8.31029 24.9154 7.75065 24.3557 7.75065 23.6654V14.8321C7.75065 13.3133 6.51943 12.0821 5.00065 12.0821H4.33398C3.64363 12.0821 3.08398 11.5225 3.08398 10.8321V9.33203ZM19.2014 2.68382C19.2011 2.68469 19.2009 2.68556 19.2006 2.68643C19.2009 2.68556 19.2011 2.68469 19.2014 2.68383L19.2014 2.68382Z" stroke="#033270" stroke-width="1.5"/>
</svg>
