<svg width="28" height="28" viewBox="0 0 28 28" fill="none" xmlns="http://www.w3.org/2000/svg">
<path fill-rule="evenodd" clip-rule="evenodd" d="M14.0007 7.0013C14.645 7.0013 15.1673 6.47897 15.1673 5.83464C15.1673 5.1903 14.645 4.66797 14.0007 4.66797C13.3563 4.66797 12.834 5.1903 12.834 5.83464C12.834 6.47897 13.3563 7.0013 14.0007 7.0013ZM5.62212 17.5013C6.19043 13.382 9.72507 10.2096 14.0007 10.2096C18.2762 10.2096 21.8109 13.382 22.3792 17.5013H5.62212ZM3.85826 17.5013C4.43718 12.4128 8.75726 8.45964 14.0007 8.45964C19.244 8.45964 23.5641 12.4128 24.143 17.5013H24.7923C25.2756 17.5013 25.6673 17.8931 25.6673 18.3763C25.6673 18.8596 25.2756 19.2513 24.7923 19.2513H3.20898C2.72574 19.2513 2.33398 18.8596 2.33398 18.3763C2.33398 17.8931 2.72574 17.5013 3.20898 17.5013H3.85826ZM5.83398 22.4596C5.83398 22.9429 6.22573 23.3346 6.70898 23.3346H21.2923C21.7756 23.3346 22.1673 22.9429 22.1673 22.4596C22.1673 21.9764 21.7756 21.5846 21.2923 21.5846H6.70898C6.22574 21.5846 5.83398 21.9764 5.83398 22.4596Z" fill="#D4A276"/>
</svg>
