<svg width="28" height="28" viewBox="0 0 28 28" fill="none" xmlns="http://www.w3.org/2000/svg">
<path fill-rule="evenodd" clip-rule="evenodd" d="M13.9979 3.57535C15.9393 2.34533 18.5183 2.00552 20.7463 2.72104C25.5928 4.28727 27.0972 9.58184 25.7516 13.7948C23.6752 20.4115 14.8074 25.3471 14.4313 25.5541C14.2976 25.6283 14.1495 25.6654 14.0014 25.6654C13.8534 25.6654 13.7065 25.6295 13.5728 25.5565C13.1991 25.3519 4.39573 20.4893 2.25012 13.796C2.24892 13.796 2.24892 13.7948 2.24892 13.7948C0.902091 9.58065 2.40175 4.28488 7.24341 2.72104C9.51679 1.98399 11.9943 2.30824 13.9979 3.57535ZM7.79265 4.42958C3.87514 5.69549 2.89129 9.91798 3.95514 13.2479C5.62912 18.4671 12.2427 22.6872 14.0002 23.7317C15.7638 22.6764 22.4251 18.4096 24.0453 13.2527C25.1092 9.91918 24.1218 5.69668 20.1983 4.42958C18.2974 3.81816 16.0802 4.19027 14.5495 5.37721C14.2295 5.6237 13.7853 5.62848 13.4629 5.38439C11.8415 4.16275 9.72334 3.805 7.79265 4.42958Z" fill="#FF8000"/>
</svg>
