<svg width="26" height="24" viewBox="0 0 26 24" fill="none" xmlns="http://www.w3.org/2000/svg">
<path fill-rule="evenodd" clip-rule="evenodd" d="M20.7349 15.177L22.0301 14.8285C23.1646 14.5232 24.0827 13.4097 24.0827 11.9987C24.0827 10.5877 23.1646 9.4742 22.0301 9.16894L20.7349 8.82041V7.33203C20.7349 4.35841 18.4481 2.08203 15.7892 2.08203H6.86167C4.28178 2.08203 2.05226 4.22512 1.92202 7.06881C1.92398 7.06958 1.92594 7.07034 1.92792 7.07109C3.90903 7.82222 5.26384 9.77299 5.26384 11.9987C5.26384 14.2244 3.90903 16.1752 1.92792 16.9263C1.92595 16.9271 1.92398 16.9278 1.92202 16.9286C2.04652 19.6468 4.08912 21.7249 6.52237 21.903C7.21195 19.9114 9.06705 18.4154 11.3254 18.4154C13.5838 18.4154 15.4389 19.9114 16.1285 21.903C18.6397 21.7192 20.7349 19.5117 20.7349 16.6654V15.177ZM0.166016 7.33203C0.166016 3.46604 3.16376 0.332031 6.86167 0.332031H15.7892C19.4871 0.332031 22.4849 3.46604 22.4849 7.33203V7.47905C24.4101 7.9971 25.8327 9.82422 25.8327 11.9987C25.8327 14.1732 24.4101 16.0003 22.4849 16.5183V16.6654C22.4849 20.5314 19.4871 23.6654 15.7892 23.6654C15.1729 23.6654 14.6906 23.154 14.5049 22.5664C14.0641 21.1717 12.8072 20.1654 11.3254 20.1654C9.8437 20.1654 8.58679 21.1717 8.14598 22.5664C7.96023 23.154 7.47799 23.6654 6.86167 23.6654C3.16376 23.6654 0.166016 20.5314 0.166016 16.6654C0.166016 16.021 0.705027 15.5184 1.30751 15.29C2.59443 14.802 3.51384 13.5126 3.51384 11.9987C3.51384 10.4848 2.59443 9.19535 1.30751 8.70742C0.705027 8.47899 0.166016 7.97636 0.166016 7.33203Z" fill="#5BC0BE"/>
</svg>
