<svg width="22" height="12" viewBox="0 0 22 12" fill="none" xmlns="http://www.w3.org/2000/svg">
<path d="M20.9772 7.18568C21.051 7.31396 21.0989 7.45554 21.1181 7.60233C21.1372 7.74912 21.1273 7.89824 21.0888 8.04119C21.0503 8.18413 20.9841 8.31809 20.8938 8.43543C20.8036 8.55277 20.6911 8.65118 20.5628 8.72505C20.4345 8.79892 20.2929 8.8468 20.1461 8.86595C19.9994 8.88511 19.8502 8.87516 19.7073 8.83668C19.5643 8.7982 19.4304 8.73195 19.313 8.64169C19.1957 8.55144 19.0973 8.43896 19.0234 8.31068L17.4428 5.54505C16.5608 6.0999 15.6099 6.53675 14.6144 6.84443L15.1103 9.81068C15.1591 10.1049 15.089 10.4065 14.9155 10.6491C14.742 10.8917 14.4792 11.0555 14.185 11.1044C14.1231 11.1153 14.0603 11.1207 13.9975 11.1204C13.7318 11.1201 13.4748 11.0258 13.272 10.8542C13.0692 10.6826 12.9336 10.4448 12.8894 10.1829L12.4065 7.29537C11.47 7.39912 10.5249 7.39912 9.58842 7.29537L9.1103 10.1857C9.06597 10.4479 8.93015 10.686 8.72694 10.8576C8.52373 11.0293 8.26629 11.1234 8.0003 11.1232C7.93745 11.1235 7.8747 11.1181 7.8128 11.1072C7.66708 11.0827 7.52763 11.0297 7.4024 10.9513C7.27717 10.8728 7.16863 10.7705 7.08296 10.6501C6.99729 10.5297 6.93619 10.3936 6.90313 10.2495C6.87007 10.1055 6.86571 9.95639 6.8903 9.81068L7.38624 6.83693C6.3907 6.52925 5.43979 6.0924 4.5578 5.53755L2.97717 8.31068C2.82799 8.56976 2.582 8.75897 2.29331 8.83668C2.00462 8.91439 1.69688 8.87424 1.4378 8.72505C1.17872 8.57587 0.989507 8.32987 0.911797 8.04119C0.834086 7.7525 0.87424 7.44476 1.02342 7.18568L2.7503 4.17162C2.165 3.64305 1.62238 3.06908 1.12749 2.45505C0.952776 2.22203 0.875241 1.93034 0.911189 1.64133C0.947137 1.35231 1.09377 1.0885 1.32024 0.905382C1.54671 0.722263 1.83537 0.634106 2.12551 0.659456C2.41564 0.684805 2.68464 0.821684 2.87592 1.0413C4.37967 2.90318 7.0103 5.12318 11.0003 5.12318C14.9903 5.12318 17.6209 2.90318 19.1247 1.0413C19.3129 0.811413 19.5843 0.665294 19.8799 0.634837C20.1754 0.60438 20.471 0.692057 20.7021 0.878734C20.9332 1.06541 21.0811 1.33593 21.1135 1.63125C21.1459 1.92657 21.0601 2.22272 20.875 2.45505C20.3795 3.06915 19.8362 3.64313 19.2503 4.17162L20.9772 7.18568Z" fill="#CACED3"/>
</svg>
