<svg width="25" height="24" viewBox="0 0 25 24" fill="none" xmlns="http://www.w3.org/2000/svg">
<path d="M8.00098 11.2383H17.001C17.1999 11.2383 17.3907 11.3173 17.5313 11.458C17.672 11.5986 17.751 11.7894 17.751 11.9883C17.751 12.1872 17.672 12.378 17.5313 12.5186C17.3907 12.6593 17.1999 12.7383 17.001 12.7383H8.00098C7.80206 12.7383 7.6113 12.6593 7.47065 12.5186C7.32999 12.378 7.25098 12.1872 7.25098 11.9883C7.25098 11.7894 7.32999 11.5986 7.47065 11.458C7.6113 11.3173 7.80206 11.2383 8.00098 11.2383ZM10.251 15.7383H6.50098C5.50641 15.7383 4.55259 15.3432 3.84933 14.6399C3.14606 13.9367 2.75098 12.9828 2.75098 11.9883C2.75098 10.9937 3.14606 10.0399 3.84933 9.33663C4.55259 8.63337 5.50641 8.23828 6.50098 8.23828H10.251C10.4499 8.23828 10.6407 8.15926 10.7813 8.01861C10.922 7.87796 11.001 7.68719 11.001 7.48828C11.001 7.28937 10.922 7.0986 10.7813 6.95795C10.6407 6.8173 10.4499 6.73828 10.251 6.73828H6.50098C5.10859 6.73828 3.77323 7.2914 2.78867 8.27597C1.8041 9.26054 1.25098 10.5959 1.25098 11.9883C1.25098 13.3807 1.8041 14.716 2.78867 15.7006C3.77323 16.6852 5.10859 17.2383 6.50098 17.2383H10.251C10.4499 17.2383 10.6407 17.1593 10.7813 17.0186C10.922 16.878 11.001 16.6872 11.001 16.4883C11.001 16.2894 10.922 16.0986 10.7813 15.958C10.6407 15.8173 10.4499 15.7383 10.251 15.7383ZM18.501 6.73828H14.751C14.5521 6.73828 14.3613 6.8173 14.2206 6.95795C14.08 7.0986 14.001 7.28937 14.001 7.48828C14.001 7.68719 14.08 7.87796 14.2206 8.01861C14.3613 8.15926 14.5521 8.23828 14.751 8.23828H18.501C19.4955 8.23828 20.4494 8.63337 21.1526 9.33663C21.8559 10.0399 22.251 10.9937 22.251 11.9883C22.251 12.9828 21.8559 13.9367 21.1526 14.6399C20.4494 15.3432 19.4955 15.7383 18.501 15.7383H14.751C14.5521 15.7383 14.3613 15.8173 14.2206 15.958C14.08 16.0986 14.001 16.2894 14.001 16.4883C14.001 16.6872 14.08 16.878 14.2206 17.0186C14.3613 17.1593 14.5521 17.2383 14.751 17.2383H18.501C19.8934 17.2383 21.2287 16.6852 22.2133 15.7006C23.1979 14.716 23.751 13.3807 23.751 11.9883C23.751 10.5959 23.1979 9.26054 22.2133 8.27597C21.2287 7.2914 19.8934 6.73828 18.501 6.73828Z" fill="#C4C4C4"/>
</svg>
