<svg width="20" height="17" viewBox="0 0 20 17" fill="none" xmlns="http://www.w3.org/2000/svg">
<path fill-rule="evenodd" clip-rule="evenodd" d="M15 16.8828V7.88281H13V0.882812H20L18 5.88281H20L15 16.8828ZM13 9.88281V16.8828H2C0.9 16.8828 0 15.9828 0 14.8828V11.8828C0 10.7828 0.9 9.88281 2 9.88281H13ZM4.25 12.6328H2.75V14.1328H4.25V12.6328ZM11 0.882812V7.88281H2C0.9 7.88281 0 6.98281 0 5.88281V2.88281C0 1.78281 0.9 0.882812 2 0.882812H11ZM4.25 3.63281H2.75V5.13281H4.25V3.63281Z" fill="#F47123"/>
</svg>
