<svg width="14" height="14" viewBox="0 0 14 14" fill="none" xmlns="http://www.w3.org/2000/svg">
<path d="M10.7493 11.9974H8.17331C8.60604 11.611 9.01414 11.1979 9.39518 10.7604C10.8249 9.11615 11.5827 7.38281 11.5827 5.7474C11.5827 4.53182 11.0998 3.36603 10.2403 2.50649C9.38071 1.64695 8.21492 1.16406 6.99935 1.16406C5.78377 1.16406 4.61798 1.64695 3.75844 2.50649C2.8989 3.36603 2.41602 4.53182 2.41602 5.7474C2.41602 7.38281 3.17174 9.11615 4.60352 10.7604C4.98456 11.1979 5.39265 11.611 5.82539 11.9974H3.24935C3.13884 11.9974 3.03286 12.0413 2.95472 12.1194C2.87658 12.1976 2.83268 12.3036 2.83268 12.4141C2.83268 12.5246 2.87658 12.6306 2.95472 12.7087C3.03286 12.7868 3.13884 12.8307 3.24935 12.8307H10.7493C10.8599 12.8307 10.9658 12.7868 11.044 12.7087C11.1221 12.6306 11.166 12.5246 11.166 12.4141C11.166 12.3036 11.1221 12.1976 11.044 12.1194C10.9658 12.0413 10.8599 11.9974 10.7493 11.9974ZM6.99935 4.08073C7.32898 4.08073 7.65122 4.17848 7.9253 4.36161C8.19938 4.54475 8.413 4.80505 8.53915 5.10959C8.66529 5.41413 8.6983 5.74924 8.63399 6.07255C8.56968 6.39585 8.41095 6.69282 8.17786 6.92591C7.94477 7.159 7.6478 7.31773 7.3245 7.38204C7.0012 7.44635 6.66609 7.41334 6.36154 7.2872C6.057 7.16105 5.7967 6.94743 5.61357 6.67335C5.43043 6.39926 5.33268 6.07703 5.33268 5.7474C5.33268 5.30537 5.50828 4.88145 5.82084 4.56888C6.1334 4.25632 6.55732 4.08073 6.99935 4.08073Z" fill="#FF6B00"/>
</svg>
