<svg width="24" height="24" viewBox="0 0 24 24" fill="none" xmlns="http://www.w3.org/2000/svg">
<path d="M12.7501 11.2519V16.5019C12.7501 16.7008 12.671 16.8916 12.5304 17.0322C12.3897 17.1729 12.199 17.2519 12.0001 17.2519C11.8011 17.2519 11.6104 17.1729 11.4697 17.0322C11.3291 16.8916 11.2501 16.7008 11.2501 16.5019V11.2519C11.2501 11.053 11.3291 10.8622 11.4697 10.7216C11.6104 10.5809 11.8011 10.5019 12.0001 10.5019C12.199 10.5019 12.3897 10.5809 12.5304 10.7216C12.671 10.8622 12.7501 11.053 12.7501 11.2519ZM22.4869 9.1997L21.1876 18.9506C21.1394 19.311 20.962 19.6416 20.6883 19.881C20.4146 20.1203 20.0633 20.2521 19.6997 20.2519H4.30037C3.9368 20.2521 3.5855 20.1203 3.31183 19.881C3.03816 19.6416 2.86074 19.311 2.81256 18.9506L1.51225 9.20064C1.48391 8.98867 1.50123 8.77309 1.56304 8.56836C1.62485 8.36363 1.72972 8.17448 1.87062 8.0136C2.01152 7.85273 2.1852 7.72384 2.37999 7.63558C2.57479 7.54732 2.7862 7.50174 3.00006 7.50189H6.40975L11.4376 1.75783C11.5079 1.67802 11.5945 1.61411 11.6915 1.57033C11.7885 1.52655 11.8937 1.50391 12.0001 1.50391C12.1065 1.50391 12.2117 1.52655 12.3086 1.57033C12.4056 1.61411 12.4922 1.67802 12.5626 1.75783L17.5904 7.50189H21.0001C21.2137 7.50203 21.4248 7.54779 21.6193 7.6361C21.8138 7.72442 21.9872 7.85326 22.1278 8.014C22.2685 8.17474 22.3733 8.36367 22.435 8.56816C22.4968 8.77264 22.5142 8.98796 22.486 9.1997H22.4869ZM8.40287 7.50189H15.5972L12.0001 3.39095L8.40287 7.50189ZM21.0001 9.00189H3.00006L4.30037 18.7519H19.6997L21.0001 9.00189ZM16.2038 11.1769L15.6788 16.4269C15.6684 16.5252 15.6776 16.6246 15.7058 16.7193C15.7339 16.814 15.7805 16.9023 15.8429 16.979C15.9053 17.0556 15.9822 17.1192 16.0692 17.166C16.1563 17.2129 16.2517 17.2421 16.3501 17.2519C16.3754 17.2533 16.4007 17.2533 16.426 17.2519C16.6118 17.2517 16.7908 17.1825 16.9285 17.0578C17.0662 16.9331 17.1527 16.7617 17.1713 16.5769L17.6963 11.3269C17.7162 11.129 17.6567 10.9313 17.5308 10.7772C17.4049 10.6232 17.223 10.5255 17.0251 10.5056C16.8271 10.4857 16.6294 10.5453 16.4754 10.6712C16.3214 10.7971 16.2237 10.979 16.2038 11.1769ZM7.79631 11.1769C7.77642 10.979 7.67872 10.7971 7.52471 10.6712C7.37069 10.5453 7.17298 10.4857 6.97506 10.5056C6.77714 10.5255 6.59523 10.6232 6.46935 10.7772C6.34347 10.9313 6.28392 11.129 6.30381 11.3269L6.82881 16.5769C6.84747 16.7625 6.93465 16.9346 7.07333 17.0594C7.21201 17.1842 7.39224 17.2528 7.57881 17.2519C7.6041 17.2533 7.62946 17.2533 7.65475 17.2519C7.75275 17.242 7.84785 17.213 7.93462 17.1664C8.02139 17.1198 8.09813 17.0565 8.16046 16.9803C8.2228 16.904 8.2695 16.8162 8.2979 16.7219C8.3263 16.6276 8.33585 16.5286 8.326 16.4306L7.79631 11.1769Z" fill="#FF6B00"/>
</svg>
