<svg width="17" height="18" viewBox="0 0 17 18" fill="none" xmlns="http://www.w3.org/2000/svg">
<path d="M15.2778 6.96079V12.0534C15.2778 12.1884 15.2242 12.318 15.1287 12.4135C15.0332 12.509 14.9036 12.5626 14.7686 12.5626H12.7315V14.5997C12.7315 14.7347 12.6779 14.8643 12.5824 14.9598C12.4869 15.0553 12.3573 15.1089 12.2223 15.1089H4.07411C3.93905 15.1089 3.80951 15.0553 3.71401 14.9598C3.61851 14.8643 3.56485 14.7347 3.56485 14.5997V12.5626H1.52781C1.39275 12.5626 1.26322 12.509 1.16771 12.4135C1.07221 12.318 1.01855 12.1884 1.01855 12.0534V6.96079C1.01855 6.11861 1.7417 5.43302 2.631 5.43302H3.56485V3.39598C3.56485 3.26091 3.61851 3.13138 3.71401 3.03588C3.80951 2.94037 3.93905 2.88672 4.07411 2.88672H12.2223C12.3573 2.88672 12.4869 2.94037 12.5824 3.03588C12.6779 3.13138 12.7315 3.26091 12.7315 3.39598V5.43302H13.6654C14.5547 5.43302 15.2778 6.11861 15.2778 6.96079ZM4.58337 5.43302H11.713V3.90524H4.58337V5.43302ZM11.713 11.0349H4.58337V14.0904H11.713V11.0349ZM12.7315 8.23394C12.7315 8.08286 12.6867 7.93517 12.6028 7.80955C12.5188 7.68393 12.3995 7.58602 12.26 7.5282C12.1204 7.47038 11.9668 7.45526 11.8186 7.48473C11.6704 7.5142 11.5343 7.58696 11.4275 7.69379C11.3206 7.80062 11.2479 7.93673 11.2184 8.08491C11.1889 8.23309 11.2041 8.38669 11.2619 8.52627C11.3197 8.66585 11.4176 8.78515 11.5432 8.86909C11.6689 8.95303 11.8165 8.99783 11.9676 8.99783C12.1702 8.99783 12.3645 8.91735 12.5078 8.77409C12.651 8.63084 12.7315 8.43654 12.7315 8.23394Z" fill="#FF6B00"/>
</svg>
