<svg width="200" height="200" viewBox="0 0 200 200" fill="none" xmlns="http://www.w3.org/2000/svg">
<g clip-path="url(#clip0_144_93089)">
<path fill-rule="evenodd" clip-rule="evenodd" d="M178.658 123.35C180.801 120.324 185.553 121.597 185.896 125.289L186.371 130.409C186.425 130.989 186.729 131.516 187.204 131.852L191.4 134.824C194.427 136.967 193.154 141.719 189.461 142.062L184.342 142.537L184.157 140.546L189.276 140.07C191.12 139.899 191.756 137.526 190.245 136.456L186.049 133.485C185.097 132.811 184.488 131.755 184.38 130.594L183.904 125.474C183.733 123.631 181.36 122.995 180.29 124.506L177.319 128.702C176.645 129.653 175.589 130.263 174.428 130.371L169.308 130.846C167.465 131.018 166.829 133.39 168.34 134.46L172.536 137.432C173.488 138.106 174.097 139.162 174.205 140.323L174.68 145.442C174.852 147.286 177.224 147.922 178.294 146.411L179.927 147.566C177.783 150.593 173.032 149.32 172.689 145.627L172.213 140.508C172.16 139.928 171.855 139.401 171.38 139.064L167.184 136.093C164.158 133.949 165.431 129.198 169.123 128.855L174.243 128.379C174.823 128.326 175.35 128.021 175.686 127.546L178.658 123.35Z" fill="#667085"/>
<path fill-rule="evenodd" clip-rule="evenodd" d="M20.0991 40.2823C19.3901 36.1316 24.2274 33.3388 27.4675 36.0282L32.139 39.9057C32.7085 40.3784 33.4561 40.5787 34.1857 40.4541L40.1701 39.4318C44.3208 38.7228 47.1136 43.5601 44.4242 46.8002L40.5467 51.4717C40.074 52.0412 39.8736 52.7888 39.9983 53.5184L41.0205 59.5028C41.7296 63.6535 36.8923 66.4463 33.6522 63.7569L28.9807 59.8794C28.4112 59.4067 27.6635 59.2064 26.934 59.331L20.9496 60.3533C16.7988 61.0623 14.0061 56.225 16.6955 52.9849L20.573 48.3134L22.1119 49.5908L18.2344 54.2623C16.7308 56.0738 18.2922 58.7782 20.6128 58.3818L26.5972 57.3595C27.9022 57.1366 29.2394 57.4949 30.2581 58.3405L34.9296 62.218C36.7411 63.7216 39.4455 62.1602 39.0491 59.8396L38.0268 53.8552C37.8039 52.5502 38.1622 51.213 39.0078 50.1943L42.8853 45.5228C44.3889 43.7113 42.8275 41.0069 40.5069 41.4033L34.5225 42.4255C33.2175 42.6485 31.8803 42.2902 30.8616 41.4446L26.1901 37.5671C24.3786 36.0635 21.6741 37.6249 22.0706 39.9455L20.0991 40.2823Z" fill="#667085"/>
<path d="M19.1808 41.2104C18.8682 39.3803 21.001 38.1489 22.4296 39.3347L30.1972 45.7821C30.6464 46.1549 31.236 46.3129 31.8114 46.2146L41.762 44.5148C43.5921 44.2022 44.8235 46.335 43.6377 47.7637L37.1903 55.5313C36.8175 55.9804 36.6595 56.57 36.7578 57.1454L38.4576 67.0961C38.7702 68.9262 36.6374 70.1576 35.2088 68.9718L27.4412 62.5244C26.992 62.1516 26.4024 61.9936 25.8271 62.0919L15.8764 63.7917C14.0463 64.1043 12.8149 61.9715 14.0007 60.5428L20.4481 52.7752C20.8209 52.3261 20.9789 51.7365 20.8806 51.1611L19.1808 41.2104Z" fill="#F29D38"/>
<path d="M176.266 127.827C177.828 125.906 180.936 126.965 181.001 129.439L181.132 134.443C181.152 135.221 181.511 135.952 182.115 136.443L185.999 139.601C187.92 141.163 186.861 144.271 184.386 144.336L179.382 144.466C178.604 144.487 177.874 144.846 177.383 145.45L174.225 149.334C172.663 151.254 169.555 150.196 169.49 147.721L169.359 142.717C169.339 141.939 168.98 141.209 168.376 140.717L164.492 137.559C162.571 135.998 163.63 132.889 166.105 132.825L171.109 132.694C171.887 132.674 172.617 132.314 173.108 131.71L176.266 127.827Z" fill="#F29D38"/>
<rect x="20.3662" y="170.867" width="160" height="1.66667" rx="0.833333" fill="#667085"/>
<path fill-rule="evenodd" clip-rule="evenodd" d="M73.8214 71.0997C76.4161 68.8848 79.7158 67.668 83.1273 67.668H116.872C120.284 67.668 123.584 68.8848 126.178 71.0997L146.649 88.5741L145.351 90.0952L124.88 72.6208C122.647 70.715 119.808 69.668 116.872 69.668H83.1273C80.1918 69.668 77.3526 70.715 75.1199 72.6208L54.6491 90.0952L53.3506 88.5741L73.8214 71.0997Z" fill="#667085"/>
<path fill-rule="evenodd" clip-rule="evenodd" d="M97.6175 26.2137C98.0518 26.5549 98.1272 27.1836 97.786 27.6179C97.2726 28.2712 96.7626 29.0568 96.3371 29.9551C96.1006 30.4542 95.5043 30.6671 95.0052 30.4307C94.5061 30.1943 94.2932 29.598 94.5296 29.0989C95.0258 28.0514 95.6182 27.1397 96.2134 26.3822C96.5546 25.9479 97.1832 25.8725 97.6175 26.2137ZM94.2245 34.3137C94.7758 34.2809 95.2493 34.7013 95.2821 35.2526C95.3764 36.8398 95.8368 38.5973 96.8698 40.4911C97.1343 40.976 96.9556 41.5834 96.4708 41.8479C95.9859 42.1124 95.3785 41.9337 95.114 41.4489C93.9471 39.3096 93.3983 37.267 93.2856 35.3712C93.2528 34.8199 93.6732 34.3464 94.2245 34.3137ZM98.8812 44.9946C99.2772 44.6096 99.9103 44.6185 100.295 45.0145C101.486 46.2394 102.931 47.5016 104.673 48.7916C105.117 49.1203 105.211 49.7465 104.882 50.1904C104.553 50.6342 103.927 50.7276 103.483 50.3989C101.666 49.0529 100.137 47.7205 98.8614 46.4087C98.4764 46.0127 98.4853 45.3796 98.8812 44.9946ZM108.194 52.3593C108.475 51.8834 109.088 51.7249 109.564 52.0052C110.379 52.4854 111.236 52.9678 112.139 53.4522C113.249 54.0475 114.297 54.6599 115.284 55.2874C115.75 55.5835 115.888 56.2015 115.592 56.6677C115.296 57.1338 114.678 57.2716 114.212 56.9755C113.268 56.3756 112.262 55.7878 111.194 55.2145C110.268 54.7182 109.387 54.2227 108.548 53.7284C108.073 53.4481 107.914 52.8351 108.194 52.3593ZM84.8227 55.545C87.2276 55.3729 89.7822 55.7536 92.4144 56.8067C92.9271 57.0118 93.1765 57.5938 92.9714 58.1066C92.7662 58.6193 92.1842 58.8687 91.6715 58.6636C89.3051 57.7169 87.0525 57.3906 84.9654 57.5399C84.4145 57.5793 83.936 57.1646 83.8966 56.6138C83.8572 56.0629 84.2718 55.5844 84.8227 55.545ZM78.8591 58.3049C79.1545 58.7715 79.0156 59.3893 78.5489 59.6846C76.6267 60.9012 74.9642 62.5634 73.6538 64.4991C73.3442 64.9565 72.7225 65.0763 72.2651 64.7667C71.8078 64.4571 71.688 63.8353 71.9976 63.378C73.4479 61.2355 75.3038 59.3715 77.4793 57.9947C77.946 57.6993 78.5637 57.8382 78.8591 58.3049ZM119.634 59.7706C120.016 59.371 120.649 59.3562 121.048 59.7375C123.008 61.6074 124.529 63.5586 125.614 65.5465C125.879 66.0313 125.7 66.6388 125.216 66.9033C124.731 67.1679 124.123 66.9894 123.859 66.5047C122.886 64.7232 121.5 62.9329 119.667 61.1844C119.268 60.8031 119.253 60.1701 119.634 59.7706ZM97.5129 60.8872C97.8624 60.4596 98.4924 60.3964 98.92 60.746C99.8489 61.5054 100.78 62.3544 101.711 63.2976C102.48 64.0761 103.192 64.8687 103.85 65.6743C104.2 66.102 104.136 66.732 103.708 67.0814C103.281 67.4307 102.651 67.3672 102.301 66.9395C101.684 66.1838 101.014 65.4378 100.288 64.7028C99.4036 63.8068 98.5247 63.0061 97.6541 62.2944C97.2265 61.9448 97.1633 61.3148 97.5129 60.8872ZM70.1471 69.6462C70.6858 69.7681 71.0237 70.3035 70.9018 70.8422C70.3869 73.118 70.3189 75.4619 70.7697 77.6943C70.879 78.2356 70.5288 78.7631 69.9874 78.8724C69.4461 78.9818 68.9186 78.6315 68.8093 78.0902C68.2973 75.5547 68.3802 72.9243 68.9511 70.4008C69.073 69.8622 69.6085 69.5243 70.1471 69.6462ZM106.013 70.5876C106.505 70.3372 107.107 70.5332 107.358 71.0255C108.355 72.9856 109.088 74.9933 109.586 77.0309C109.717 77.5673 109.389 78.1086 108.852 78.2399C108.316 78.3711 107.775 78.0426 107.643 77.5062C107.181 75.6148 106.501 73.7523 105.575 71.9323C105.325 71.44 105.521 70.838 106.013 70.5876ZM126.614 71.7952C127.166 71.7862 127.621 72.2266 127.63 72.7788C127.671 75.3307 126.997 77.7995 125.66 80.0698C125.379 80.5456 124.766 80.7042 124.291 80.424C123.815 80.1437 123.656 79.5307 123.936 79.0548C125.096 77.0857 125.665 74.9772 125.63 72.8113C125.621 72.2591 126.061 71.8042 126.614 71.7952ZM109.389 82.3979C109.941 82.3849 110.399 82.8218 110.412 83.374C110.463 85.488 110.302 87.6105 109.966 89.7233C109.879 90.2687 109.367 90.6405 108.821 90.5537C108.276 90.4669 107.904 89.9544 107.991 89.409C108.31 87.4038 108.46 85.4028 108.413 83.4213C108.4 82.8692 108.837 82.411 109.389 82.3979ZM72.2632 83.6665C72.6879 83.3134 73.3184 83.3714 73.6715 83.796C75.0023 85.3963 76.7908 86.8135 79.1103 87.9228C79.6086 88.161 79.8193 88.7581 79.581 89.2563C79.3428 89.7546 78.7457 89.9653 78.2474 89.7271C75.6858 88.502 73.6614 86.9119 72.1337 85.0748C71.7806 84.6501 71.8386 84.0196 72.2632 83.6665ZM120.809 84.1473C121.14 84.5901 121.048 85.2166 120.606 85.5468C118.79 86.9006 116.644 88.0949 114.188 89.0941C113.677 89.3023 113.093 89.0563 112.885 88.5448C112.677 88.0332 112.923 87.4498 113.434 87.2416C115.753 86.2981 117.747 85.1834 119.41 83.9434C119.853 83.6133 120.479 83.7046 120.809 84.1473ZM107.998 90.0175C108.114 90.5573 107.771 91.0894 107.231 91.2058C105.011 91.6846 102.624 92.0385 100.077 92.2518C99.5262 92.2979 99.0427 91.8891 98.9966 91.3387C98.9505 90.7884 99.3593 90.3049 99.9097 90.2588C102.378 90.0522 104.68 89.7102 106.81 89.2508C107.349 89.1343 107.882 89.4776 107.998 90.0175ZM84.6958 90.7725C84.7844 90.2274 85.2981 89.8572 85.8432 89.9458C86.956 90.1266 88.1389 90.2583 89.3945 90.3354C90.5907 90.4089 91.76 90.4552 92.9017 90.4757C93.4539 90.4855 93.8935 90.9412 93.8836 91.4934C93.8737 92.0456 93.418 92.4852 92.8658 92.4753C91.6945 92.4543 90.4964 92.4068 89.2719 92.3316C87.9541 92.2507 86.7049 92.112 85.5225 91.9199C84.9773 91.8313 84.6072 91.3176 84.6958 90.7725ZM107.848 94.6332C108.375 94.7977 108.669 95.3584 108.504 95.8857C107.883 97.8782 107.129 99.8491 106.272 101.784C106.048 102.289 105.458 102.517 104.953 102.293C104.448 102.069 104.22 101.479 104.444 100.974C105.273 99.1015 105.999 97.2022 106.595 95.29C106.76 94.7628 107.32 94.4687 107.848 94.6332ZM103.07 106.041C103.552 106.311 103.724 106.92 103.455 107.402C102.429 109.236 101.329 111.023 100.18 112.748C99.8739 113.208 99.2531 113.333 98.7934 113.026C98.3337 112.72 98.2092 112.099 98.5153 111.64C99.6377 109.954 100.711 108.212 101.709 106.426C101.978 105.944 102.588 105.772 103.07 106.041ZM96.3454 116.437C96.783 116.774 96.8648 117.402 96.5279 117.839C95.2164 119.543 93.8801 121.16 92.552 122.674C92.1876 123.089 91.5558 123.13 91.1407 122.765C90.7257 122.401 90.6845 121.769 91.0489 121.354C92.3499 119.872 93.6588 118.288 94.943 116.619C95.2799 116.182 95.9077 116.1 96.3454 116.437ZM88.2707 125.827C88.6602 126.218 88.6586 126.852 88.2671 127.241C87.4967 128.008 86.742 128.73 86.0102 129.403C85.6038 129.777 84.9712 129.75 84.5972 129.344C84.2233 128.937 84.2497 128.305 84.6561 127.931C85.368 127.276 86.1039 126.572 86.8564 125.823C87.2479 125.434 87.8811 125.435 88.2707 125.827Z" fill="#F4BD50"/>
<path d="M53.333 88.668H146.666V146.668C146.666 154.032 140.697 160.001 133.333 160.001H66.6663C59.3025 160.001 53.333 154.032 53.333 146.668V88.668Z" fill="white"/>
<path d="M144.666 90.668H55.333V119.668C55.333 120.22 54.8853 120.668 54.333 120.668C53.7807 120.668 53.333 120.22 53.333 119.668V88.668H146.666V146.668C146.666 154.032 140.697 160.001 133.333 160.001H66.6663C59.6389 160.001 53.8813 154.565 53.3699 147.668C53.3291 147.117 53.7807 146.668 54.333 146.668C54.8853 146.668 55.3284 147.117 55.3765 147.667C55.8825 153.459 60.7439 158.001 66.6663 158.001H133.333C139.592 158.001 144.666 152.927 144.666 146.668V90.668Z" fill="#667085"/>
<path fill-rule="evenodd" clip-rule="evenodd" d="M53.3331 88.668H55.3331V112.668H44.5318C42.4985 112.668 41.2133 110.484 42.2007 108.706L53.3331 88.668ZM53.3331 92.7862L43.9491 109.678C43.7022 110.122 44.0235 110.668 44.5318 110.668H53.3331V92.7862Z" fill="#667085"/>
<path fill-rule="evenodd" clip-rule="evenodd" d="M146.667 88.668H144.667V112.668H155.468C157.501 112.668 158.787 110.484 157.799 108.706L146.667 88.668ZM146.667 92.7862L156.051 109.678C156.298 110.122 155.976 110.668 155.468 110.668H146.667V92.7862Z" fill="#667085"/>
<path d="M79.333 100.668H120.666V101.335C120.666 108.698 114.697 114.668 107.333 114.668H92.6663C85.3025 114.668 79.333 108.698 79.333 101.335V100.668Z" fill="white"/>
<path fill-rule="evenodd" clip-rule="evenodd" d="M79.3988 102.668C79.3553 102.229 79.333 101.785 79.333 101.335V100.668H120.666V101.335C120.666 101.785 120.644 102.229 120.601 102.668C119.932 109.406 114.247 114.668 107.333 114.668H92.6663C85.7525 114.668 80.0678 109.406 79.3988 102.668ZM118.589 102.668H81.4106C82.0705 108.299 86.8582 112.668 92.6663 112.668H107.333C113.141 112.668 117.929 108.299 118.589 102.668Z" fill="#667085"/>
<path d="M109.664 17.0108C111.945 18.3278 115.399 22.7876 114.082 25.0686C112.765 27.3497 107.176 26.5883 104.895 25.2713C102.614 23.9543 101.832 21.0375 103.149 18.7565C104.466 16.4754 107.383 15.6938 109.664 17.0108Z" fill="url(#paint0_linear_144_93089)"/>
<path d="M94.206 19.1025C91.9249 17.7855 88.4709 13.3257 89.7878 11.0446C91.1048 8.76356 96.6941 9.52498 98.9752 10.842C101.256 12.1589 102.038 15.0757 100.721 17.3568C99.4039 19.6379 96.4871 20.4194 94.206 19.1025Z" fill="url(#paint1_linear_144_93089)"/>
<mask id="mask0_144_93089" style="mask-type:alpha" maskUnits="userSpaceOnUse" x="96" y="13" width="11" height="12">
<path d="M106.207 20.1963C104.89 22.4774 100.43 25.9315 98.1491 24.6145C95.868 23.2975 96.6295 17.7082 97.9465 15.4271C99.2634 13.1461 102.18 12.3645 104.461 13.6815C106.742 14.9985 107.524 17.9153 106.207 20.1963Z" fill="#C4C4C4"/>
</mask>
<g mask="url(#mask0_144_93089)">
<path d="M106.207 20.1963C104.89 22.4774 100.43 25.9315 98.1491 24.6145C95.868 23.2975 96.6295 17.7082 97.9465 15.4271C99.2634 13.1461 102.18 12.3645 104.461 13.6815C106.742 14.9985 107.524 17.9153 106.207 20.1963Z" fill="#F29D38"/>
</g>
<path fill-rule="evenodd" clip-rule="evenodd" d="M105.926 5.70303C105.693 5.70303 105.505 5.89144 105.505 6.12385L105.505 6.96301C104.538 7.17476 103.659 7.77733 103.125 8.70241C102.118 10.4468 102.716 12.6773 104.46 13.6844C106.205 14.6915 108.435 14.0938 109.442 12.3495C109.952 11.466 110.051 10.4579 109.797 9.54715C109.833 9.53783 109.868 9.52357 109.902 9.50411L110.631 9.0833C110.832 8.9671 110.901 8.70973 110.785 8.50846C110.668 8.30719 110.411 8.23823 110.21 8.35443L109.483 8.77407C109.173 8.20662 108.708 7.71446 108.107 7.36751C107.551 7.0465 106.946 6.88854 106.346 6.87877L106.346 6.12385C106.346 5.89144 106.158 5.70303 105.926 5.70303Z" fill="#F29D38"/>
</g>
<defs>
<linearGradient id="paint0_linear_144_93089" x1="103.149" y1="18.7565" x2="114.082" y2="25.0686" gradientUnits="userSpaceOnUse">
<stop stop-color="#875500"/>
<stop offset="1" stop-color="#A67100"/>
</linearGradient>
<linearGradient id="paint1_linear_144_93089" x1="100.721" y1="17.3568" x2="89.7878" y2="11.0446" gradientUnits="userSpaceOnUse">
<stop stop-color="#A66100"/>
<stop offset="1" stop-color="#A66400"/>
</linearGradient>
<clipPath id="clip0_144_93089">
<rect width="200" height="200" fill="white"/>
</clipPath>
</defs>
</svg>
