<svg width="14" height="12" viewBox="0 0 14 12" fill="none" xmlns="http://www.w3.org/2000/svg">
<path d="M12.7501 0.398438H1.54635C1.27622 0.398438 1.01716 0.505745 0.826149 0.696755C0.63514 0.887764 0.527832 1.14683 0.527832 1.41696V11.0929C0.527878 11.1797 0.550109 11.265 0.592412 11.3408C0.634716 11.4166 0.695689 11.4803 0.769543 11.5259C0.843397 11.5715 0.92768 11.5975 1.01439 11.6014C1.1011 11.6052 1.18736 11.5869 1.26498 11.548L3.07413 10.6435L4.88327 11.548C4.95402 11.5834 5.03205 11.6019 5.11117 11.6019C5.19028 11.6019 5.26831 11.5834 5.33906 11.548L7.1482 10.6435L8.95735 11.548C9.0281 11.5834 9.10612 11.6019 9.18524 11.6019C9.26435 11.6019 9.34238 11.5834 9.41313 11.548L11.2223 10.6435L13.0314 11.548C13.109 11.5869 13.1953 11.6052 13.282 11.6014C13.3687 11.5975 13.453 11.5715 13.5269 11.5259C13.6007 11.4803 13.6617 11.4166 13.704 11.3408C13.7463 11.265 13.7685 11.1797 13.7686 11.0929V1.41696C13.7686 1.14683 13.6613 0.887764 13.4703 0.696755C13.2792 0.505745 13.0202 0.398438 12.7501 0.398438ZM10.2038 7.01881H4.09265C3.95758 7.01881 3.82805 6.96516 3.73255 6.86965C3.63704 6.77415 3.58339 6.64461 3.58339 6.50955C3.58339 6.37449 3.63704 6.24495 3.73255 6.14945C3.82805 6.05394 3.95758 6.00029 4.09265 6.00029H10.2038C10.3388 6.00029 10.4684 6.05394 10.5639 6.14945C10.6594 6.24495 10.713 6.37449 10.713 6.50955C10.713 6.64461 10.6594 6.77415 10.5639 6.86965C10.4684 6.96516 10.3388 7.01881 10.2038 7.01881ZM10.2038 4.98177H4.09265C3.95758 4.98177 3.82805 4.92812 3.73255 4.83261C3.63704 4.73711 3.58339 4.60758 3.58339 4.47251C3.58339 4.33745 3.63704 4.20792 3.73255 4.11241C3.82805 4.01691 3.95758 3.96325 4.09265 3.96325H10.2038C10.3388 3.96325 10.4684 4.01691 10.5639 4.11241C10.6594 4.20792 10.713 4.33745 10.713 4.47251C10.713 4.60758 10.6594 4.73711 10.5639 4.83261C10.4684 4.92812 10.3388 4.98177 10.2038 4.98177Z" fill="#FF6B00"/>
</svg>
