<svg width="18" height="18" viewBox="0 0 18 18" fill="none" xmlns="http://www.w3.org/2000/svg">
<path fill-rule="evenodd" clip-rule="evenodd" d="M5.78033 3.96967C5.48744 3.67678 5.01256 3.67678 4.71967 3.96967C4.42678 4.26256 4.42678 4.73744 4.71967 5.03033L8.46967 8.78033C8.76256 9.07322 9.23744 9.07322 9.53033 8.78033L13.2803 5.03033C13.5732 4.73744 13.5732 4.26256 13.2803 3.96967C12.9874 3.67678 12.5126 3.67678 12.2197 3.96967L9 7.18934L5.78033 3.96967ZM5.78033 9.21967C5.48744 8.92678 5.01256 8.92678 4.71967 9.21967C4.42678 9.51256 4.42678 9.98744 4.71967 10.2803L8.46967 14.0303C8.76256 14.3232 9.23744 14.3232 9.53033 14.0303L13.2803 10.2803C13.5732 9.98744 13.5732 9.51256 13.2803 9.21967C12.9874 8.92678 12.5126 8.92678 12.2197 9.21967L9 12.4393L5.78033 9.21967Z" fill="#912018"/>
</svg>
