<svg width="24" height="24" viewBox="0 0 24 24" fill="none" xmlns="http://www.w3.org/2000/svg">
<path d="M11.9996 7.50151C11.1095 7.50151 10.2395 7.76543 9.49949 8.25989C8.75947 8.75436 8.18269 9.45716 7.8421 10.2794C7.5015 11.1017 7.41239 12.0065 7.58602 12.8794C7.75965 13.7523 8.18824 14.5542 8.81757 15.1835C9.44691 15.8128 10.2487 16.2414 11.1216 16.415C11.9946 16.5887 12.8994 16.4996 13.7216 16.159C14.5439 15.8184 15.2467 15.2416 15.7412 14.5016C16.2356 13.7616 16.4996 12.8915 16.4996 12.0015C16.4983 10.8084 16.0238 9.66454 15.1802 8.8209C14.3365 7.97725 13.1926 7.50275 11.9996 7.50151ZM11.9996 15.0015C11.4062 15.0015 10.8262 14.8256 10.3328 14.4959C9.8395 14.1663 9.45498 13.6977 9.22792 13.1496C9.00085 12.6014 8.94144 11.9982 9.0572 11.4162C9.17295 10.8343 9.45868 10.2997 9.87823 9.88019C10.2978 9.46063 10.8323 9.17491 11.4143 9.05915C11.9962 8.9434 12.5994 9.00281 13.1476 9.22987C13.6958 9.45693 14.1643 9.84145 14.494 10.3348C14.8236 10.8281 14.9996 11.4082 14.9996 12.0015C14.9996 12.7972 14.6835 13.5602 14.1209 14.1228C13.5583 14.6854 12.7952 15.0015 11.9996 15.0015ZM20.2496 12.204C20.2533 12.069 20.2533 11.934 20.2496 11.799L21.6483 10.0515C21.7216 9.95975 21.7724 9.85206 21.7965 9.7371C21.8206 9.62213 21.8174 9.50311 21.7871 9.38963C21.5578 8.5277 21.2147 7.70012 20.7671 6.92869C20.7084 6.82774 20.6271 6.74187 20.5294 6.6779C20.4318 6.61394 20.3205 6.57366 20.2046 6.56026L17.9808 6.31276C17.8883 6.21526 17.7946 6.12151 17.6996 6.03151L17.4371 3.80213C17.4236 3.68608 17.3831 3.57479 17.319 3.47713C17.2549 3.37947 17.1688 3.29814 17.0677 3.23963C16.296 2.79277 15.4685 2.4501 14.6067 2.22057C14.4932 2.19038 14.3741 2.18729 14.2592 2.21156C14.1442 2.23582 14.0365 2.28675 13.9449 2.36026L12.2021 3.75151C12.0671 3.75151 11.9321 3.75151 11.7971 3.75151L10.0496 2.35557C9.9578 2.28223 9.85011 2.23146 9.73514 2.20736C9.62018 2.18326 9.50116 2.1865 9.38768 2.21682C8.52588 2.44653 7.69836 2.78952 6.92674 3.23682C6.82579 3.29544 6.73991 3.37681 6.67595 3.47447C6.61199 3.57212 6.5717 3.68335 6.5583 3.79932L6.3108 6.02682C6.2133 6.11994 6.11955 6.21369 6.02955 6.30807L3.80018 6.56401C3.68413 6.57751 3.57284 6.61794 3.47518 6.68207C3.37752 6.7462 3.29619 6.83226 3.23768 6.93338C2.79082 7.7051 2.44815 8.53261 2.21862 9.39432C2.18843 9.50787 2.18534 9.62693 2.2096 9.7419C2.23387 9.85687 2.2848 9.96452 2.3583 10.0562L3.74955 11.799C3.74955 11.934 3.74955 12.069 3.74955 12.204L2.35362 13.9515C2.28027 14.0433 2.22951 14.151 2.20541 14.2659C2.18131 14.3809 2.18455 14.4999 2.21487 14.6134C2.44417 15.4753 2.78718 16.3029 3.23487 17.0743C3.29348 17.1753 3.37486 17.2611 3.47251 17.3251C3.57017 17.3891 3.6814 17.4294 3.79737 17.4428L6.02112 17.6903C6.11424 17.7878 6.20799 17.8815 6.30237 17.9715L6.56205 20.2009C6.57556 20.3169 6.61598 20.4282 6.68011 20.5259C6.74424 20.6235 6.8303 20.7049 6.93143 20.7634C7.70315 21.2102 8.53066 21.5529 9.39237 21.7824C9.50592 21.8126 9.62498 21.8157 9.73995 21.7915C9.85491 21.7672 9.96257 21.7163 10.0542 21.6428L11.7971 20.2515C11.9321 20.2553 12.0671 20.2553 12.2021 20.2515L13.9496 21.6503C14.0413 21.7236 14.149 21.7744 14.264 21.7985C14.3789 21.8226 14.4979 21.8193 14.6114 21.789C15.4734 21.5597 16.3009 21.2167 17.0724 20.769C17.1733 20.7104 17.2592 20.629 17.3232 20.5314C17.3871 20.4337 17.4274 20.3225 17.4408 20.2065L17.6883 17.9828C17.7858 17.8903 17.8796 17.7965 17.9696 17.7015L20.1989 17.439C20.315 17.4255 20.4263 17.3851 20.5239 17.3209C20.6216 17.2568 20.7029 17.1708 20.7614 17.0696C21.2083 16.2979 21.551 15.4704 21.7805 14.6087C21.8107 14.4951 21.8138 14.3761 21.7895 14.2611C21.7652 14.1461 21.7143 14.0385 21.6408 13.9468L20.2496 12.204ZM18.7402 11.5946C18.7561 11.8656 18.7561 12.1374 18.7402 12.4084C18.729 12.5939 18.7871 12.777 18.9033 12.9221L20.2336 14.5843C20.081 15.0694 19.8855 15.54 19.6496 15.9906L17.5308 16.2306C17.3463 16.2511 17.1759 16.3392 17.0527 16.4781C16.8722 16.681 16.68 16.8732 16.4771 17.0537C16.3382 17.1769 16.25 17.3473 16.2296 17.5318L15.9942 19.6487C15.5438 19.8848 15.0732 20.0802 14.588 20.2328L12.9249 18.9024C12.7918 18.7961 12.6265 18.7382 12.4561 18.7384H12.4111C12.1401 18.7543 11.8684 18.7543 11.5974 18.7384C11.4118 18.7272 11.2287 18.7853 11.0836 18.9015L9.41674 20.2328C8.93162 20.0801 8.46102 19.8847 8.01049 19.6487L7.77049 17.5328C7.75001 17.3482 7.66182 17.1779 7.52299 17.0546C7.32003 16.8742 7.12783 16.682 6.94737 16.479C6.82412 16.3402 6.65376 16.252 6.46924 16.2315L4.35237 15.9953C4.1163 15.5448 3.92084 15.0742 3.7683 14.589L5.09862 12.9259C5.21478 12.7808 5.27291 12.5977 5.26174 12.4121C5.2458 12.1411 5.2458 11.8694 5.26174 11.5984C5.27291 11.4128 5.21478 11.2298 5.09862 11.0846L3.7683 9.41869C3.92095 8.93357 4.11641 8.46297 4.35237 8.01244L6.4683 7.77244C6.65282 7.75196 6.82318 7.66378 6.94643 7.52494C7.12689 7.32198 7.31909 7.12978 7.52205 6.94932C7.66144 6.82599 7.74999 6.65524 7.77049 6.47026L8.0058 4.35432C8.45628 4.11825 8.92689 3.92279 9.41205 3.77026L11.0752 5.10057C11.2203 5.21673 11.4034 5.27486 11.5889 5.2637C11.8599 5.24776 12.1317 5.24776 12.4027 5.2637C12.5882 5.27486 12.7713 5.21673 12.9164 5.10057L14.5824 3.77026C15.0675 3.92291 15.5381 4.11836 15.9886 4.35432L16.2286 6.47026C16.2491 6.65477 16.3373 6.82513 16.4761 6.94838C16.6791 7.12884 16.8713 7.32105 17.0517 7.52401C17.175 7.66284 17.3454 7.75103 17.5299 7.77151L19.6467 8.00682C19.8828 8.45729 20.0783 8.9279 20.2308 9.41307L18.9005 11.0762C18.7832 11.2225 18.725 11.4075 18.7374 11.5946H18.7402Z" fill="#FF6B00"/>
</svg>
