<svg width="14" height="12" viewBox="0 0 14 12" fill="none" xmlns="http://www.w3.org/2000/svg">
<path d="M7.00065 2.4849C9.21148 2.4849 11.1832 3.7274 12.1457 5.69323C11.8015 6.4049 11.3173 7.0174 10.7398 7.51323L11.5623 8.33573C12.3732 7.61823 13.0148 6.7199 13.4173 5.69323C12.4082 3.1324 9.91732 1.31823 7.00065 1.31823C6.25982 1.31823 5.54815 1.4349 4.87732 1.65073L5.83982 2.61323C6.21899 2.5374 6.60398 2.4849 7.00065 2.4849ZM6.37648 3.1499L7.58398 4.3574C7.91648 4.50323 8.18482 4.77156 8.33065 5.10406L9.53815 6.31156C9.58482 6.11323 9.61982 5.90323 9.61982 5.6874C9.62565 4.24073 8.44732 3.06823 7.00065 3.06823C6.78482 3.06823 6.58065 3.0974 6.37648 3.1499ZM1.17315 1.2424L2.73648 2.80573C1.78565 3.5524 1.03315 4.54406 0.583984 5.69323C1.59315 8.25406 4.08398 10.0682 7.00065 10.0682C7.88732 10.0682 8.73899 9.89906 9.52065 9.5899L11.5157 11.5849L12.3382 10.7624L1.99565 0.414062L1.17315 1.2424ZM5.54815 5.6174L7.07065 7.1399C7.04732 7.14573 7.02398 7.15156 7.00065 7.15156C6.19565 7.15156 5.54232 6.49823 5.54232 5.69323C5.54232 5.66406 5.54815 5.64656 5.54815 5.6174ZM3.56482 3.63406L4.58565 4.6549C4.45148 4.97573 4.37565 5.32573 4.37565 5.69323C4.37565 7.1399 5.55398 8.31823 7.00065 8.31823C7.36815 8.31823 7.71815 8.2424 8.03315 8.10823L8.60482 8.6799C8.09149 8.8199 7.55482 8.90156 7.00065 8.90156C4.78982 8.90156 2.81815 7.65906 1.85565 5.69323C2.26398 4.85906 2.85898 4.17073 3.56482 3.63406Z" fill="black" fill-opacity="0.45"/>
</svg>
