<svg width="24" height="24" viewBox="0 0 24 24" fill="none" xmlns="http://www.w3.org/2000/svg">
<path fill-rule="evenodd" clip-rule="evenodd" d="M0.363258 12.8506C0.558943 15.5472 1.68771 18.1888 3.74956 20.2507C5.81142 22.3125 8.45302 23.4413 11.1496 23.637C11.2126 23.6629 11.652 23.6984 12.9063 23.6327C15.5829 23.4252 18.2016 22.2978 20.2487 20.2507C22.2959 18.2035 23.4232 15.5848 23.6307 12.9082C23.661 12.8645 23.7042 12.4519 23.635 11.1516C23.4393 8.45497 22.3106 5.81337 20.2487 3.75152C18.1869 1.68967 15.5453 0.560896 12.8486 0.365212C12.2083 0.296031 11.4108 0.339269 11.092 0.369535C8.41542 0.577022 5.79673 1.70435 3.74956 3.75152C1.70239 5.79869 0.575066 8.41738 0.367579 11.094C0.337314 11.4127 0.294079 12.2103 0.363258 12.8506ZM4.3952 5.6346C3.06046 7.22507 2.30346 9.13586 2.1242 11.0897C4.82082 11.2853 7.46242 12.4141 9.52427 14.476C11.5861 16.5378 12.7149 19.1794 12.9106 21.876C14.8644 21.6968 16.7752 20.9398 18.3656 19.605L4.3952 5.6346ZM19.6031 18.3676C20.9378 16.7771 21.6948 14.8663 21.8741 12.9125C19.1775 12.7168 16.5359 11.5881 14.474 9.52623C12.4122 7.46437 11.2834 4.82277 11.0877 2.12615C9.1339 2.30541 7.22312 3.06242 5.63264 4.39716L19.6031 18.3676ZM8.28683 15.7134C6.56522 13.9918 4.36807 13.0355 2.1182 12.8446C2.30912 15.0945 3.26538 17.2916 4.987 19.0132C6.70862 20.7349 8.90576 21.6911 11.1556 21.882C10.9647 19.6322 10.0084 17.435 8.28683 15.7134ZM12.8427 2.12015C15.0925 2.31107 17.2897 3.26734 19.0113 4.98896C20.7329 6.71057 21.6892 8.90771 21.8801 11.1576C19.6302 10.9667 17.4331 10.0104 15.7115 8.28879C13.9898 6.56717 13.0336 4.37003 12.8427 2.12015Z" fill="#F26A4F"/>
</svg>
