<svg width="41" height="30" viewBox="0 0 41 30" fill="none" xmlns="http://www.w3.org/2000/svg">
<path d="M30.1727 1.00195C30.7404 1.30583 30.9692 1.7623 30.9589 2.42437C30.9292 4.31747 30.9511 6.21187 30.9473 8.10497C30.9473 9.06057 30.5723 9.45238 29.6348 9.45497C26.9882 9.46273 24.3412 9.46273 21.6938 9.45497C20.8145 9.45497 20.3826 9.06704 20.3761 8.23041C20.3606 6.22868 20.3684 4.22178 20.3761 2.22523C20.3941 2.01215 20.4304 1.80101 20.4848 1.5942H20.4744L21.121 1.00712L30.1727 1.00195Z" fill="white"/>
<path d="M20.4754 1.58902H20.4884C20.3047 1.71833 20.0461 1.81014 19.9517 1.98859C18.3457 5.02221 16.7509 8.06316 15.1672 11.1114C14.7716 11.8705 14.3914 12.6386 14.0035 13.4028C13.7086 13.3886 13.406 13.417 13.1228 13.3524C11.5272 12.9851 10.5703 11.917 10 10.4416V3.97609C10.5276 2.7373 11.3009 1.73773 12.6198 1.26057C12.787 1.18594 12.9486 1.09951 13.1034 1.00195H20.3448C20.2934 1.13841 20.2599 1.281 20.2453 1.42609C20.2466 1.48041 20.3927 1.53471 20.4754 1.58902Z" fill="white"/>
<path d="M14.0186 13.5723C15.1915 13.7378 16.332 13.9912 17.3393 14.6662C19.3824 16.0356 20.3924 17.9559 20.4531 20.4037C20.4648 20.8511 20.5514 21.296 20.6031 21.7421L20.5837 21.9671C18.423 22.002 16.2622 22.0408 14.1014 22.0692C13.1755 22.0822 12.2445 22.1249 11.3251 22.0486C10.8725 22.0111 10.4419 21.733 10.001 21.5636V14.0636C10.4044 13.9175 10.8001 13.6757 11.2126 13.6447C12.1436 13.5671 13.0824 13.5904 14.0186 13.5723Z" fill="white"/>
<path d="M20.584 21.966L20.6034 21.741C21.5551 19.8893 22.5017 18.0324 23.4611 16.1807C24.5305 14.1182 25.6193 12.0673 26.6797 10.0009C26.8439 9.68023 27.0042 9.58454 27.3702 9.63627C29.0305 9.87032 30.6146 11.1233 30.7788 12.7966C30.9794 14.7844 30.9842 16.7872 30.793 18.7759C30.6094 20.6147 28.9129 21.9867 27.0715 22.0462C24.9831 22.1134 22.8922 22.0656 20.8025 22.0617C20.734 22.0643 20.6564 22.0009 20.584 21.966Z" fill="white"/>
</svg>
