<svg width="18" height="21" viewBox="0 0 18 21" fill="none" xmlns="http://www.w3.org/2000/svg">
<path fill-rule="evenodd" clip-rule="evenodd" d="M16 2.88281H11.82C11.4 1.72281 10.3 0.882812 9 0.882812C7.7 0.882812 6.6 1.72281 6.18 2.88281H2C0.9 2.88281 0 3.78281 0 4.88281V18.8828C0 19.9828 0.9 20.8828 2 20.8828H16C17.1 20.8828 18 19.9828 18 18.8828V4.88281C18 3.78281 17.1 2.88281 16 2.88281ZM9 2.88281C9.55 2.88281 10 3.33281 10 3.88281C10 4.43281 9.55 4.88281 9 4.88281C8.45 4.88281 8 4.43281 8 3.88281C8 3.33281 8.45 2.88281 9 2.88281ZM9 6.88281C10.66 6.88281 12 8.22281 12 9.88281C12 11.5428 10.66 12.8828 9 12.8828C7.34 12.8828 6 11.5428 6 9.88281C6 8.22281 7.34 6.88281 9 6.88281ZM15 18.8828H3V17.4828C3 15.4828 7 14.3828 9 14.3828C11 14.3828 15 15.4828 15 17.4828V18.8828Z" fill="#F47123"/>
</svg>
