<svg width="24" height="24" viewBox="0 0 24 24" fill="none" xmlns="http://www.w3.org/2000/svg">
<path d="M20.9976 14.2272V19.4772C20.9976 19.875 20.8395 20.2565 20.5582 20.5378C20.2769 20.8191 19.8954 20.9772 19.4976 20.9772H4.49756C4.09973 20.9772 3.7182 20.8191 3.4369 20.5378C3.15559 20.2565 2.99756 19.875 2.99756 19.4772V14.2272C2.99756 14.0282 3.07658 13.8375 3.21723 13.6968C3.35788 13.5562 3.54865 13.4772 3.74756 13.4772C3.94647 13.4772 4.13724 13.5562 4.27789 13.6968C4.41854 13.8375 4.49756 14.0282 4.49756 14.2272V19.4772H19.4976V14.2272C19.4976 14.0282 19.5766 13.8375 19.7172 13.6968C19.8579 13.5562 20.0486 13.4772 20.2476 13.4772C20.4465 13.4772 20.6372 13.5562 20.7779 13.6968C20.9185 13.8375 20.9976 14.0282 20.9976 14.2272ZM8.77818 8.00778L11.2476 5.53747V14.2272C11.2476 14.4261 11.3266 14.6168 11.4672 14.7575C11.6079 14.8981 11.7986 14.9772 11.9976 14.9772C12.1965 14.9772 12.3872 14.8981 12.5279 14.7575C12.6685 14.6168 12.7476 14.4261 12.7476 14.2272V5.53747L15.2169 8.00778C15.3577 8.14851 15.5485 8.22757 15.7476 8.22757C15.9466 8.22757 16.1375 8.14851 16.2782 8.00778C16.4189 7.86705 16.498 7.67618 16.498 7.47715C16.498 7.27813 16.4189 7.08726 16.2782 6.94653L12.5282 3.19653C12.4585 3.1268 12.3758 3.07148 12.2848 3.03373C12.1937 2.99599 12.0961 2.97656 11.9976 2.97656C11.899 2.97656 11.8014 2.99599 11.7104 3.03373C11.6193 3.07148 11.5366 3.1268 11.4669 3.19653L7.71693 6.94653C7.5762 7.08726 7.49714 7.27813 7.49714 7.47715C7.49714 7.67618 7.5762 7.86705 7.71693 8.00778C7.85766 8.14851 8.04854 8.22757 8.24756 8.22757C8.44658 8.22757 8.63745 8.14851 8.77818 8.00778Z" fill="#C4C4C4"/>
</svg>
